<?xml version="1.0" standalone="no"?>
<!DOCTYPE svg PUBLIC "-//W3C//DTD SVG 1.1//EN" "http://www.w3.org/Graphics/SVG/1.1/DTD/svg11.dtd" >
<svg xmlns="http://www.w3.org/2000/svg">
<metadata>
This is a custom SVG webfont generated by Fontspring.
Designer    : Ben Jones
Foundry     : Ben Jones
</metadata>
<defs>
<font id="webfont" horiz-adv-x="637" >
<font-face units-per-em="1000" ascent="755" descent="-245" />
<missing-glyph horiz-adv-x="333" />
<glyph unicode=" "  horiz-adv-x="333" />
<glyph unicode="&#x09;" horiz-adv-x="333" />
<glyph unicode="&#xa0;" horiz-adv-x="333" />
<glyph unicode="!" horiz-adv-x="236" d="M185 717l-23 -506q-37 -5 -51 -5q-36 0 -37 30l-22 521q57 6 77 6q26 0 41.5 -10t14.5 -36zM34 70q0 35 25 59t59 24q35 0 59.5 -24t24.5 -59q0 -34 -25 -59t-59 -25t-59 25t-25 59z" />
<glyph unicode="&#x22;" horiz-adv-x="335" d="M143 723l-26 -202q-31 -10 -55 -10q-33 0 -33 29v210q42 14 73 14q46 0 41 -41zM310 723l-27 -202q-30 -10 -55 -10q-32 0 -32 29v210q41 14 73 14q46 0 41 -41z" />
<glyph unicode="#" d="M321 0l32 179h-133l-31 -179h-116l32 179h-86v111h104l24 135h-85v112h105l32 183h116l-33 -183h134l32 183h115l-33 -183h87v-112h-106l-24 -135h87v-111h-106l-31 -179h-116zM263 425l-24 -135h133l24 135h-133z" />
<glyph unicode="$" d="M267 -72v65q-93 6 -201 47v164q46 5 62 5q45 0 45 -38v-51q38 -14 94 -19v229q-41 16 -72 33t-61.5 42t-47 58t-16.5 73q0 78 51 126t146 58v61h99v-59q90 -10 179 -47v-161q-47 -4 -63 -4q-45 0 -45 39v52q-25 9 -71 14v-200q45 -20 75 -36.5t63.5 -42.5t50 -61 t16.5 -78q0 -86 -52.5 -138t-152.5 -64v-67h-99zM456 194q0 56 -90 97v-185q90 20 90 88zM186 543q0 -51 81 -87v158q-81 -13 -81 -71z" />
<glyph unicode="%" horiz-adv-x="926" d="M154 53l542 703l87 -67l-542 -703zM205 395q31 0 52 30.5t21 82.5q0 55 -20.5 88.5t-52.5 33.5q-33 0 -54.5 -33.5t-21.5 -88.5q0 -52 22 -82.5t54 -30.5zM205 288q-83 0 -136.5 59t-53.5 161t53 165t137 63q83 0 134.5 -63t51.5 -165t-52 -161t-134 -59zM724 97 q31 0 52.5 31t21.5 83q0 55 -20.5 88t-53.5 33t-53.5 -33t-20.5 -88q0 -52 21.5 -83t52.5 -31zM724 -9q-82 0 -136 59.5t-54 160.5q0 102 53 165t137 63q83 0 135 -63t52 -165q0 -101 -52.5 -160.5t-134.5 -59.5z" />
<glyph unicode="&#x26;" horiz-adv-x="768" d="M672 490q23 0 31.5 -10t8.5 -31l-5 -69h-56q-11 -143 -104 -251q30 -24 61 -24q30 0 95 30l48 -92q-93 -52 -152 -52q-41 0 -71.5 12.5t-67.5 49.5q-96 -62 -210 -62q-108 0 -170 55.5t-62 155.5q0 70 37.5 119.5t102.5 92.5v1q-63 75 -63 151q0 72 51 118t134 46 q82 0 130.5 -43t48.5 -117q0 -57 -34.5 -98t-95.5 -79l141 -173q50 69 58 160h-54q-6 50 -6 69q0 21 9 31t33 10h162zM254 103q68 0 131 37l-158 189q-87 -59 -87 -127q0 -46 32.5 -72.5t81.5 -26.5zM219 568q0 -41 35 -82l8 -10q76 48 76 93q0 23 -15.5 38.5t-43.5 15.5 q-26 0 -43 -15.5t-17 -39.5z" />
<glyph unicode="'" horiz-adv-x="169" d="M143 723l-26 -202q-31 -10 -55 -10q-33 0 -33 29v210q42 14 73 14q45 0 41 -41z" />
<glyph unicode="(" horiz-adv-x="345" d="M34 272q0 288 217 539l84 -62q-177 -234 -177 -477t177 -477l-84 -63q-217 253 -217 540z" />
<glyph unicode=")" horiz-adv-x="345" d="M311 272q0 -287 -217 -540l-84 63q177 236 177 477t-177 477l84 62q217 -251 217 -539z" />
<glyph unicode="*" horiz-adv-x="390" d="M142 482l-75 -49q-22 25 -38 48q-21 32 11 50l56 30l-79 41q8 30 24 57q19 34 47 15l54 -34l-4 89q33 9 60 9q18 0 28.5 -7.5t9.5 -26.5l-3 -64l76 49q21 -25 37 -48q22 -33 -11 -50l-56 -29l80 -42q-9 -30 -25 -56q-18 -34 -47 -16l-54 34l4 -89q-32 -9 -60 -9 q-18 0 -28.5 7.5t-9.5 26.5z" />
<glyph unicode="+" d="M260 42v183h-186v112h186v183h116v-183h187v-112h-187v-183h-116z" />
<glyph unicode="," horiz-adv-x="244" d="M126 134q13 0 31.5 -3t30.5 -6l12 -3q0 -87 -25 -145.5t-98 -117.5l-68 67q36 39 47 64t11 75v23q0 46 59 46z" />
<glyph unicode="-" horiz-adv-x="401" d="M44 344h313v-120h-313v120z" />
<glyph unicode="." horiz-adv-x="256" d="M44 72q0 35 24.5 59t58.5 24q35 0 60 -24t25 -59t-25 -59.5t-60 -24.5q-34 0 -58.5 24.5t-24.5 59.5z" />
<glyph unicode="/" horiz-adv-x="406" d="M-5 -22l308 812l108 -38l-308 -812z" />
<glyph unicode="0" d="M318 105q66 0 106 63t40 183q0 123 -39.5 194t-106.5 71q-66 0 -105.5 -71t-39.5 -194q0 -120 40 -183t105 -63zM318 -9q-121 0 -195.5 94t-74.5 266q0 176 72.5 277t197.5 101q126 0 198.5 -100.5t72.5 -277.5q0 -172 -74.5 -266t-196.5 -94z" />
<glyph unicode="1" d="M462 110q23 0 31.5 -10t8.5 -31l-6 -69h-330q-6 50 -6 69q0 21 9 31t32 10h69v479l-85 -53q-31 38 -40 54q-22 36 14 57l122 73h112v-610h69z" />
<glyph unicode="2" d="M578 187v-187h-479q-40 0 -40 51l7 50l209 195q99 91 131.5 138t32.5 88q0 44 -31 68.5t-91 24.5t-107 -22v-55q0 -41 -50 -41l-69 6v157q118 66 226 66q121 0 184 -54t63 -149q0 -71 -47 -135t-166 -174l-108 -100h217v38q0 41 50 41z" />
<glyph unicode="3" d="M76 52v153q50 6 69 6q50 0 50 -41v-52q43 -17 97 -17q67 0 106.5 31t39.5 82q0 47 -36 73.5t-102 26.5h-81v112h91q56 0 87.5 27t31.5 70q0 42 -33.5 67t-87.5 25q-71 0 -107 -16v-47q0 -41 -50 -41l-69 5v147q96 63 226 63q116 0 179.5 -53t63.5 -150q0 -43 -19.5 -83.5 t-57.5 -66.5q86 -48 86 -157q0 -108 -72.5 -167.5t-192.5 -59.5q-57 0 -117.5 17t-101.5 46z" />
<glyph unicode="4" d="M319 110h46v56h-311q-10 34 -10 56q0 23 15 43l316 460h112v-451h65q23 0 31.5 -10t8.5 -31l-6 -67h-99v-56h32q23 0 32 -10t9 -31l-6 -69h-270q-6 50 -6 69q0 21 9 31t32 10zM192 274h173v162q0 88 6 118l-3 -5l-4.5 -11.5t-7.5 -16.5t-11 -20.5l-14 -23.5t-17 -26z" />
<glyph unicode="5" d="M79 52v156q50 6 69 6q50 0 50 -42v-53q39 -17 85 -17q65 0 106.5 38.5t41.5 103.5q0 59 -34.5 90t-86.5 31q-40 0 -70 -6t-87 -27l-49 52l41 289q6 47 44 47h306q23 0 31.5 -10t8.5 -31l-7 -75h-270l-20 -133q39 8 84 8q110 0 172.5 -57.5t62.5 -175.5t-76.5 -187.5 t-191.5 -69.5q-54 0 -111 17t-99 46z" />
<glyph unicode="6" d="M546 698v-162q-50 -6 -69 -6q-50 0 -50 41v41q-17 3 -33 3q-72 0 -125 -54t-75 -161q69 64 150 64q104 0 164.5 -62.5t60.5 -170.5q0 -110 -66 -175t-178 -65q-116 0 -186.5 81.5t-70.5 231.5q0 192 88.5 307t229.5 115q76 0 160 -28zM331 349q-41 0 -78.5 -23.5 t-62.5 -63.5q9 -76 48 -116.5t90 -40.5q54 0 88 34.5t34 89.5q0 57 -32.5 88.5t-86.5 31.5z" />
<glyph unicode="7" d="M567 620q-125 -149 -187 -282t-62 -268v-70h-126v70q0 135 58 274t156 263h-223v-28q0 -41 -50 -41l-68 6v176h467q23 0 31.5 -10t8.5 -31z" />
<glyph unicode="8" d="M318 101q57 0 92.5 27t35.5 70q0 82 -128 121q-129 -39 -129 -121q0 -43 35.5 -70t93.5 -27zM318 436q104 39 104 105q0 36 -28.5 59.5t-75.5 23.5t-76 -23.5t-29 -59.5q0 -67 105 -105zM318 -9q-111 0 -180 58.5t-69 148.5q0 125 123 182q-96 54 -96 161q0 79 61 134.5 t161 55.5q101 0 162 -55.5t61 -134.5q0 -107 -96 -161q123 -57 123 -182q0 -90 -69.5 -148.5t-180.5 -58.5z" />
<glyph unicode="9" d="M123 10v162q50 6 69 6q50 0 50 -41v-31q8 -1 30 -1q67 0 112 53.5t63 149.5q-50 -56 -141 -56q-109 0 -175 63.5t-66 167.5q0 106 71.5 174.5t180.5 68.5q116 0 185 -78.5t69 -230.5q0 -194 -77 -308t-225 -114q-66 0 -146 15zM308 368q42 0 82 23.5t61 65.5 q-8 76 -46.5 115.5t-90.5 39.5q-55 0 -92.5 -35t-37.5 -91q0 -53 35 -85.5t89 -32.5z" />
<glyph unicode=":" horiz-adv-x="256" d="M44 91q0 35 24.5 59t58.5 24q35 0 60 -24t25 -59q0 -34 -25 -58.5t-60 -24.5q-34 0 -58.5 24.5t-24.5 58.5zM44 405q0 35 24.5 59t58.5 24q35 0 60 -24t25 -59q0 -34 -25 -59t-60 -25q-34 0 -58.5 25t-24.5 59z" />
<glyph unicode=";" horiz-adv-x="244" d="M43 415q0 35 24.5 59t58.5 24q35 0 60 -24t25 -59t-25 -59.5t-60 -24.5q-34 0 -58.5 24.5t-24.5 59.5zM126 134q13 0 31.5 -3t30.5 -6l12 -3q0 -87 -25 -145.5t-98 -117.5l-68 67q36 39 47 64t11 75v23q0 46 59 46z" />
<glyph unicode="&#x3c;" d="M77 249v86l483 246v-132l-310 -156l310 -159v-131z" />
<glyph unicode="=" d="M78 455h481v-111h-481v111zM78 248h481v-112h-481v112z" />
<glyph unicode="&#x3e;" d="M560 335v-86l-483 -246v131l310 159l-310 156v132z" />
<glyph unicode="?" horiz-adv-x="481" d="M18 523v142q98 64 207 64t165 -47.5t56 -127.5q0 -41 -18 -74t-44 -56l-52 -45.5t-44 -54.5t-18 -72v-9q0 -41 -50 -41l-68 6v39q0 53 18 96t43 69.5t50.5 48.5t43.5 45t18 48q0 29 -27 47.5t-73 18.5q-48 0 -89 -18v-43q0 -42 -50 -42zM119 70q0 35 24.5 59t58.5 24 q35 0 59.5 -24t24.5 -59q0 -34 -25 -59t-59 -25t-58.5 25t-24.5 59z" />
<glyph unicode="@" horiz-adv-x="998" d="M716 452v-347h8q130 0 130 179q0 137 -96.5 228.5t-243.5 91.5q-155 0 -262 -105t-107 -262q0 -158 100 -255t265 -97q99 0 197 40q6 -21 20.5 -57t16.5 -43q-116 -47 -234 -47q-210 0 -343 123t-133 336q0 136 66 244t175 166t239 58q197 0 323 -117t126 -304 q0 -139 -62.5 -211.5t-176.5 -72.5h-106q-7 14 -12 43q-70 -52 -146 -52q-95 0 -155.5 61t-60.5 176q0 123 78 197t194 74q82 0 181 -39zM474 101q70 0 128 48v226q-42 15 -83 15q-69 0 -111.5 -42t-42.5 -118q0 -66 31 -97.5t78 -31.5z" />
<glyph unicode="A" horiz-adv-x="765" d="M292 0h-271q-6 54 -6 73q0 21 9 31t32 10h38l191 493h-70q-6 54 -6 72q0 22 8.5 31.5t32.5 9.5h188l235 -606h37q23 0 32 -10t9 -31l-6 -73h-272q-6 54 -6 73q0 21 9 31t33 10h24l-36 98h-230l-37 -98h27q23 0 32 -10t9 -31zM382 522l-71 -191h142z" />
<glyph unicode="B" horiz-adv-x="667" d="M80 720h240q146 0 204.5 -49.5t58.5 -139.5t-80 -140q125 -44 125 -171q0 -110 -79 -165t-244 -55h-260q-6 54 -6 73q0 21 9 31t32 10h36v493h-71q-6 54 -6 72q0 22 8.5 31.5t32.5 9.5zM316 318h-70v-200h63q185 0 185 103q0 97 -178 97zM319 603h-73v-168h58 q80 0 112.5 26.5t32.5 63.5q0 40 -30.5 59t-99.5 19z" />
<glyph unicode="C" horiz-adv-x="680" d="M636 215v-155q-118 -74 -254 -74q-175 0 -261.5 100t-86.5 268q0 162 92.5 268.5t266.5 106.5q133 0 235 -58v-155q-52 -5 -71 -5q-52 0 -52 43v36q-41 16 -113 16q-106 0 -163 -69.5t-57 -182.5q0 -114 52 -178.5t159 -64.5q76 0 130 24v42q0 43 51 43z" />
<glyph unicode="D" horiz-adv-x="744" d="M45 0q-6 54 -6 73q0 21 9 31t32 10h36v493h-71q-6 54 -6 72q0 22 8.5 31.5t32.5 9.5h205q121 0 206.5 -27t132 -77.5t66.5 -112t20 -141.5q0 -171 -104 -266.5t-321 -95.5h-240zM283 602h-36v-482h36q154 0 223 62t69 180q0 53 -13 93.5t-44.5 75t-90.5 53t-144 18.5z " />
<glyph unicode="E" horiz-adv-x="659" d="M614 181v-181h-569q-6 54 -6 73q0 21 9 31t32 10h36v493h-71q-6 54 -6 72q0 22 8.5 31.5t32.5 9.5h517v-181q-52 -6 -72 -6q-52 0 -52 43v29h-225v-171h243v-116h-243v-202h243v28q0 43 52 43z" />
<glyph unicode="F" horiz-adv-x="611" d="M356 0h-311q-6 54 -6 73q0 21 9 31t32 10h36v493h-71q-6 54 -6 72q0 22 8.5 31.5t32.5 9.5h516v-190q-52 -6 -72 -6q-52 0 -52 43v38h-224v-207h243v-116h-243v-168h72q24 0 33 -10t9 -31z" />
<glyph unicode="G" horiz-adv-x="701" d="M639 671v-152q-52 -5 -72 -5q-52 0 -52 43v37q-41 16 -114 16q-106 0 -169 -71.5t-63 -184.5q0 -114 57.5 -180.5t165.5 -66.5q77 0 131 24v121h-145q-6 55 -6 73q0 22 9 32t33 10h233v-307q-118 -74 -257 -74q-176 0 -266 100.5t-90 267.5q0 161 96 268t271 107 q137 0 238 -58z" />
<glyph unicode="H" horiz-adv-x="788" d="M743 0h-272q-6 54 -6 73q0 21 9 31t33 10h35v198h-296v-198h35q24 0 32.5 -10t8.5 -31l-5 -73h-272q-6 54 -6 73q0 21 9 31t32 10h36v493h-71q-6 54 -6 72q0 22 8.5 31.5t32.5 9.5h201q24 0 32.5 -9.5t8.5 -31.5l-5 -72h-71v-176h296v176h-71q-6 54 -6 72q0 22 9 31.5 t33 9.5h201q24 0 32.5 -9.5t8.5 -31.5l-6 -72h-71v-493h36q23 0 32 -10t9 -31z" />
<glyph unicode="I" horiz-adv-x="362" d="M317 607h-71v-493h35q24 0 32.5 -10t8.5 -31l-5 -73h-272q-6 54 -6 73q0 21 9 31t32 10h36v493h-71q-6 54 -6 72q0 22 8.5 31.5t32.5 9.5h201q24 0 32.5 -9.5t8.5 -31.5z" />
<glyph unicode="J" horiz-adv-x="480" d="M450 607h-71v-396q0 -106 -56 -163t-156 -57q-33 0 -76 10t-71 23v158q52 6 71 6q52 0 52 -43v-35q10 -2 28 -2q78 0 78 103v396h-90q-6 54 -6 72q0 22 8.5 31.5t32.5 9.5h221q24 0 32.5 -9.5t8.5 -31.5z" />
<glyph unicode="K" horiz-adv-x="723" d="M698 0h-272q-6 54 -6 73q0 21 9 31t33 10h9l-168 211l-57 -54v-157h35q24 0 32.5 -10t8.5 -31l-5 -73h-272q-6 54 -6 73q0 21 9 31t32 10h36v493h-71q-6 54 -6 72q0 22 8.5 31.5t32.5 9.5h201q24 0 32.5 -9.5t8.5 -31.5l-5 -72h-71v-179l190 179h-43q-6 54 -6 72 q0 22 8.5 31.5t32.5 9.5h201q24 0 32.5 -9.5t8.5 -31.5l-6 -72h-62l-206 -194l240 -299h26q24 0 33 -10t9 -31z" />
<glyph unicode="L" horiz-adv-x="666" d="M317 607h-71v-493h272v50q0 43 52 43l72 -6v-201h-597q-6 54 -6 73q0 21 9 31t32 10h36v493h-71q-6 54 -6 72q0 22 8.5 31.5t32.5 9.5h201q24 0 32.5 -9.5t8.5 -31.5z" />
<glyph unicode="M" horiz-adv-x="1039" d="M994 607h-69v-493h33q24 0 33 -10t9 -31l-6 -73h-272q-6 54 -6 73q0 21 9 31t33 10h35v189q0 180 8 220q-34 -101 -80 -201l-150 -322h-101l-150 322q-55 118 -80 202q0 -1 1 -13.5t2 -33.5t2 -47t2 -60t1 -67v-189h33q24 0 32.5 -10t8.5 -31l-5 -73h-272q-6 54 -6 73 q0 21 9 31t32 10h36v493h-71q-6 54 -6 72q0 22 8.5 31.5t32.5 9.5h196l247 -527l245 527h190q24 0 33 -9.5t9 -31.5z" />
<glyph unicode="N" horiz-adv-x="781" d="M317 0h-272q-6 54 -6 73q0 21 9 31t32 10h36v493h-71q-6 54 -6 72q0 22 8.5 31.5t32.5 9.5h155l242 -361q53 -79 72 -132q-7 77 -7 155v225h-71q-6 54 -6 72q0 22 9 31.5t33 9.5h201q24 0 32.5 -9.5t8.5 -31.5l-6 -72h-69v-607h-111l-243 362q-42 62 -80 137l1 -9 q1 -8 2 -23t2 -33.5t2 -44t1 -49.5v-226h33q24 0 32.5 -10t8.5 -31z" />
<glyph unicode="O" horiz-adv-x="772" d="M387 118q94 0 154 66t60 169q0 106 -58 178.5t-156 72.5t-156 -72.5t-58 -178.5q0 -103 60.5 -169t153.5 -66zM386 -9q-160 0 -256 101t-96 262q0 162 95 268t257 106t257 -106t95 -268q0 -161 -97 -262t-255 -101z" />
<glyph unicode="P" horiz-adv-x="632" d="M320 720q136 0 208.5 -65.5t72.5 -175.5q0 -114 -72 -188t-208 -74q-32 0 -75 5v-108h69q23 0 31.5 -10t8.5 -31l-6 -73h-304q-6 54 -6 73q0 21 9 31t32 10h36v493h-71q-6 54 -6 72q0 22 8.5 31.5t32.5 9.5h240zM319 607h-73v-263q40 -10 74 -10q71 0 112 40.5t41 100.5 q0 61 -39 96.5t-115 35.5z" />
<glyph unicode="Q" horiz-adv-x="772" d="M708 -25v-147q-58 -18 -119 -18q-83 0 -141.5 46.5t-81.5 135.5q-151 7 -241.5 106.5t-90.5 255.5q0 162 95 268t257 106t257 -106t95 -268q0 -131 -65.5 -224t-179.5 -125q29 -79 87 -79h4v12q0 43 52 43zM387 118q94 0 154 66t60 169q0 106 -58 178.5t-156 72.5 t-156 -72.5t-58 -178.5q0 -103 60.5 -169t153.5 -66z" />
<glyph unicode="R" horiz-adv-x="658" d="M282 114q23 0 31.5 -10t8.5 -31l-5 -73h-272q-6 54 -6 73q0 21 9 31t32 10h36v493h-71q-6 54 -6 72q0 22 8.5 31.5t32.5 9.5h225q134 0 197.5 -55.5t63.5 -147.5q0 -65 -34.5 -116t-102.5 -79q66 -51 106 -153l22 -55h30q23 0 31.5 -10t8.5 -31l-6 -73h-164l-45 123 q-37 101 -74 135.5t-92 36.5v-181h36zM303 603h-57v-188h58q66 0 99.5 27.5t33.5 71.5q0 38 -30.5 63.5t-103.5 25.5z" />
<glyph unicode="S" d="M565 679v-165q-51 -6 -71 -6q-52 0 -52 43v48q-53 17 -124 17q-136 0 -136 -71q0 -34 42.5 -60.5t103 -48t120.5 -48t102.5 -74.5t42.5 -114q0 -100 -75 -154.5t-216 -54.5q-119 0 -258 49v171q52 6 72 6q52 0 52 -44v-47q59 -19 134 -19t117 23t42 67q0 39 -42.5 67 t-103 48t-121 44.5t-103 70.5t-42.5 111q0 91 72 141t203 50q120 0 241 -50z" />
<glyph unicode="T" horiz-adv-x="706" d="M133 607v-50q0 -43 -52 -43l-71 5v201h686v-201q-52 -5 -72 -5q-52 0 -52 43v50h-155v-493h55q24 0 33 -10t9 -31l-6 -73h-311q-6 54 -6 73q0 21 9 31t32 10h55v493h-154z" />
<glyph unicode="U" horiz-adv-x="775" d="M307 607h-69v-336q0 -75 38.5 -117t112.5 -42t113 42t39 117v336h-73q-5 54 -5 72q0 22 8.5 31.5t32.5 9.5h201q24 0 32.5 -9.5t8.5 -31.5l-6 -72h-69v-348q0 -122 -76 -195t-207 -73q-130 0 -206 73t-76 195v348h-71q-6 54 -6 72q0 22 9 31.5t33 9.5h200q24 0 33 -9.5 t9 -31.5z" />
<glyph unicode="V" horiz-adv-x="735" d="M282 607h-66l93 -253q50 -139 58 -185l3 9q2 10 7 27l11.5 38.5t16.5 51l21 59.5l93 253h-66q-6 54 -6 72q0 22 8.5 31.5t32.5 9.5h201q24 0 32.5 -9.5t8.5 -31.5l-6 -72h-68l-237 -621h-108l-237 621h-63q-6 54 -6 72q0 22 8.5 31.5t32.5 9.5h201q24 0 32.5 -9.5 t8.5 -31.5z" />
<glyph unicode="W" horiz-adv-x="1105" d="M1095 607h-68l-194 -620h-109l-127 381q-35 102 -43 159q-28 -113 -43 -159l-128 -381h-102l-201 620h-69q-6 54 -6 72q0 22 8.5 31.5t32.5 9.5h201q24 0 32.5 -9.5t8.5 -31.5l-6 -72h-65l73 -239q12 -39 23.5 -82t16.5 -66l5 -23q14 83 43 171l118 352h118l117 -352 q13 -39 24 -82t15 -66l5 -23q19 83 45 171l73 239h-70q-6 54 -6 72q0 22 8.5 31.5t32.5 9.5h201q24 0 33 -9.5t9 -31.5z" />
<glyph unicode="X" horiz-adv-x="772" d="M312 0h-282q-6 54 -6 73q0 21 9 31t33 10h38l201 255l-186 238h-83q-6 54 -6 72q0 22 9 31.5t33 9.5h210q24 0 32.5 -9.5t8.5 -31.5l-5 -72h-46l113 -144l114 144h-44q-6 54 -6 72q0 22 8.5 31.5t32.5 9.5h211q24 0 32.5 -9.5t8.5 -31.5l-6 -72h-85l-186 -237l202 -256 h40q23 0 32 -10t9 -31l-6 -73h-281q-6 54 -6 73q0 21 9 31t32 10h18l-130 163l-129 -163h21q24 0 33 -10t9 -31z" />
<glyph unicode="Y" horiz-adv-x="701" d="M690 607h-69l-207 -316v-177h53q24 0 33 -10t9 -31l-6 -73h-311q-6 54 -6 73q0 21 9 31t32 10h55v174l-208 319h-63q-6 54 -6 72q0 22 8.5 31.5t32.5 9.5h201q24 0 32.5 -9.5t8.5 -31.5l-6 -72h-58l125 -196l126 196h-57q-5 54 -5 72q0 22 8.5 31.5t32.5 9.5h201 q24 0 32.5 -9.5t8.5 -31.5z" />
<glyph unicode="Z" horiz-adv-x="685" d="M651 192v-192h-576q-41 0 -41 53l7 50l425 500h-275v-29q0 -43 -52 -43l-71 6v183h536q42 0 42 -53l-8 -51l-426 -498h315v37q0 43 52 43z" />
<glyph unicode="[" horiz-adv-x="315" d="M314 645h-142v-780h107q23 0 31.5 -10t8.5 -31l-5 -69h-260v1000h225q23 0 31.5 -10t8.5 -32z" />
<glyph unicode="\" horiz-adv-x="406" d="M103 790l308 -812l-108 -38l-308 812z" />
<glyph unicode="]" horiz-adv-x="315" d="M142 645h-141q-6 50 -6 68q0 22 8.5 32t31.5 10h226v-1000h-260q-6 50 -6 69q0 21 8.5 31t31.5 10h107v780z" />
<glyph unicode="^" d="M273 720h91l246 -482h-135l-158 310l-156 -310h-134z" />
<glyph unicode="_" horiz-adv-x="499" d="M-5 0h509v-97h-509v97z" />
<glyph unicode="`" horiz-adv-x="343" d="M67 755l236 -105q6 -31 6 -52q0 -20 -10.5 -27.5t-25.5 -3.5l-242 80q-7 36 -7 75q0 51 43 33z" />
<glyph unicode="a" horiz-adv-x="533" d="M468 110q23 0 32 -10t9 -31l-6 -69h-169q-8 16 -12 32q-62 -41 -124 -41q-81 0 -127.5 41.5t-46.5 114.5t54.5 117t144.5 44q51 0 93 -15q-2 50 -17 70.5t-54 20.5q-26 0 -65 -9v-7q0 -41 -50 -41l-68 6v125q130 41 196 41q96 0 138 -47.5t42 -155.5v-186h30zM213 99 q51 0 103 38v59q-34 14 -66 14q-45 0 -71.5 -16t-26.5 -45q0 -50 61 -50z" />
<glyph unicode="b" horiz-adv-x="594" d="M218 755v-296q66 40 135 40q98 0 154.5 -59.5t56.5 -174.5q0 -134 -73.5 -206t-193.5 -72q-68 0 -202 33v625h-74q-6 50 -6 68q0 22 8.5 32t32.5 10h162zM336 381q-65 0 -118 -49v-220q37 -10 72 -10q67 0 106 40t39 120q0 119 -99 119z" />
<glyph unicode="c" horiz-adv-x="497" d="M449 455v-135q-50 -5 -69 -5q-50 0 -50 41v25q-18 5 -47 5q-56 0 -91.5 -40.5t-35.5 -104.5q0 -67 37 -100t90 -33q33 0 60.5 10.5t76.5 42.5l52 -94q-107 -76 -200 -76q-110 0 -176.5 66.5t-66.5 183.5q0 106 69 182t180 76q86 0 171 -44z" />
<glyph unicode="d" horiz-adv-x="607" d="M502 755v-645h30q23 0 31.5 -10t8.5 -31l-6 -69h-169q-8 13 -13 42q-63 -51 -139 -51q-95 0 -155.5 61.5t-60.5 175.5q0 122 75.5 196.5t184.5 74.5q50 0 90 -17v163h-74q-6 50 -6 68q0 22 8.5 32t32.5 10h162zM271 109q60 0 108 45v209q-34 19 -73 19q-66 0 -107 -40 t-41 -111q0 -62 32 -92t81 -30z" />
<glyph unicode="e" horiz-adv-x="488" d="M441 193h-279q20 -89 110 -89q31 0 57.5 9.5t72.5 38.5l57 -94q-101 -68 -196 -68q-104 0 -169 65.5t-65 184.5q0 113 61 186.5t171 73.5q94 0 144.5 -60t50.5 -145q0 -57 -15 -102zM258 388q-81 0 -97 -94h173q0 40 -19.5 67t-56.5 27z" />
<glyph unicode="f" horiz-adv-x="439" d="M110 490v52q0 108 57.5 165t138.5 57q79 0 138 -38v-133q-35 -6 -65 -6q-54 0 -54 41v25q-7 1 -20 1q-30 0 -51.5 -28.5t-21.5 -83.5v-52h89q23 0 32 -10t9 -31l-6 -69h-124v-270h60q23 0 31.5 -10t8.5 -31l-6 -69h-281q-6 50 -6 69q0 21 9 31t32 10h30v270h-65 q-6 50 -6 69q0 21 9 31t32 10h30z" />
<glyph unicode="g" horiz-adv-x="564" d="M529 384q-41 0 -75 -8q9 -26 9 -57q0 -77 -55 -125.5t-142 -48.5q-56 -1 -57 -20q-2 -20 57 -20h39q104 0 154 -46t50 -122q0 -61 -37 -105.5t-90.5 -64.5t-113.5 -20q-109 0 -171.5 49t-62.5 127q0 89 88 126q-36 21 -36 60q0 47 55 70q-73 51 -73 140q0 78 53 129 t145 51q77 0 129 -39q54 34 100 34q23 0 31.5 -10t8.5 -31zM315 -4h-70q-47 0 -69.5 -18.5t-22.5 -46.5q0 -35 32 -54.5t85 -19.5q55 0 87 21.5t32 57.5q0 60 -74 60zM267 248q37 0 60 19.5t23 51.5q0 34 -22 56t-61 22q-40 0 -63.5 -22t-23.5 -56q0 -31 24.5 -51t62.5 -20z " />
<glyph unicode="h" horiz-adv-x="668" d="M237 755v-328q91 72 179 72q83 0 120.5 -47.5t37.5 -151.5v-190h30q23 0 31.5 -10t8.5 -31l-6 -69h-252q-6 50 -6 69q0 21 9 31t32 10h31v189q0 45 -14 65t-44 20q-70 0 -157 -87v-187h30q23 0 31.5 -10t8.5 -31l-6 -69h-252q-6 50 -6 69q0 21 9 31t32 10h31v535h-75 q-6 50 -6 68q0 22 8.5 32t32.5 10h162z" />
<glyph unicode="i" horiz-adv-x="337" d="M232 490v-380h31q23 0 31.5 -10t8.5 -31l-6 -69h-252q-6 50 -6 69q0 21 9 31t32 10h30v270h-65q-6 50 -6 69q0 21 9 31t32 10h152zM73 672q0 33 25.5 58t58.5 25q35 0 60 -24.5t25 -58.5q0 -33 -25 -56.5t-60 -23.5q-33 0 -58.5 23.5t-25.5 56.5z" />
<glyph unicode="j" horiz-adv-x="321" d="M233 490v-533q0 -109 -50 -157t-133 -48q-63 0 -124 27v145q50 5 69 5q50 0 50 -41v-26h10q56 0 56 95v423h-65q-6 50 -6 69q0 21 9 31t32 10h152zM74 672q0 33 25.5 58t58.5 25q35 0 60 -24.5t25 -58.5q0 -33 -25 -56.5t-60 -23.5q-33 0 -58.5 23.5t-25.5 56.5z" />
<glyph unicode="k" horiz-adv-x="649" d="M237 755v-427l164 162h123q23 0 31.5 -10t8.5 -31l-5 -69h-105l-58 -57l161 -213h22q23 0 31.5 -10t8.5 -31l-6 -69h-248q-6 50 -6 69q0 21 9 31t32 10h9l-98 131l-74 -71v-60h31q23 0 31.5 -10t8.5 -31l-6 -69h-252q-6 50 -6 69q0 21 9 31t32 10h30v535h-75q-6 50 -6 68 q0 22 8.5 32t32.5 10h162z" />
<glyph unicode="l" horiz-adv-x="342" d="M237 755v-645h31q23 0 31.5 -10t8.5 -31l-6 -69h-252q-6 50 -6 69q0 21 9 31t32 10h30v535h-75q-6 50 -6 68q0 22 8.5 32t32.5 10h162z" />
<glyph unicode="m" horiz-adv-x="909" d="M845 110q23 0 31.5 -10t8.5 -31l-6 -69h-242q-6 50 -6 69q0 21 9 31t32 10h21v204q0 38 -12 54t-37 16q-48 0 -115 -67q1 -7 1 -21v-186h20q23 0 31.5 -10t8.5 -31l-6 -69h-232q-6 50 -6 69q0 21 9 31t32 10h21v204q0 38 -12 54t-37 16q-53 0 -126 -79v-195h20 q23 0 31.5 -10t8.5 -31l-6 -69h-242q-6 50 -6 69q0 21 9 31t32 10h31v270h-65q-6 50 -6 69q0 21 9 31t32 10h152v-54q72 63 147 63q88 0 125 -71q81 71 160 71q150 0 150 -203v-186h30z" />
<glyph unicode="n" horiz-adv-x="664" d="M233 490v-63q91 72 179 72q83 0 120.5 -47.5t37.5 -151.5v-190h30q23 0 31.5 -10t8.5 -31l-6 -69h-252q-6 50 -6 69q0 21 9 31t32 10h31v189q0 45 -14 65t-44 20q-70 0 -157 -87v-187h30q23 0 31.5 -10t8.5 -31l-6 -69h-252q-6 50 -6 69q0 21 9 31t32 10h31v270h-65 q-6 50 -6 69q0 21 9 31t32 10h152z" />
<glyph unicode="o" horiz-adv-x="544" d="M273 105q52 0 85 38.5t33 97.5q0 61 -32 103t-86 42t-86 -42t-32 -103q0 -59 33 -97.5t85 -38.5zM272 -9q-110 0 -176.5 69.5t-66.5 180.5q0 112 65.5 185t177.5 73t177 -73t65 -185q0 -111 -66.5 -180.5t-175.5 -69.5z" />
<glyph unicode="p" horiz-adv-x="607" d="M224 490v-43q70 52 144 52q93 0 149.5 -59t56.5 -173q0 -137 -73 -208.5t-192 -71.5q-45 0 -85 10v-132h70q23 0 31.5 -10t8.5 -31l-6 -69h-291q-6 50 -6 69q0 21 9 31t33 10h29v515h-65q-6 50 -6 69q0 21 9 31t33 10h151zM347 380q-66 0 -123 -65v-197q35 -14 76 -14 q65 0 104.5 41t39.5 122q0 113 -97 113z" />
<glyph unicode="q" horiz-adv-x="591" d="M383 -135v165q-59 -39 -134 -39q-95 0 -155.5 61.5t-60.5 175.5q0 123 77 197t194 74q88 0 202 -47v-587h29q23 0 32 -10t9 -31l-6 -69h-291q-6 50 -6 69q0 21 9 31t32 10h69zM269 110q65 0 114 54v204q-39 13 -75 13q-66 0 -106 -39.5t-40 -110.5q0 -63 29.5 -92 t77.5 -29z" />
<glyph unicode="r" horiz-adv-x="477" d="M232 490v-58q61 64 128 64q46 0 98 -25v-141q-50 -6 -69 -6q-50 0 -50 42v13h-4q-24 0 -53 -17.5t-50 -47.5v-204h60q23 0 31.5 -10t8.5 -31l-6 -69h-281q-6 50 -6 69q0 21 9 31t32 10h30v270h-65q-6 50 -6 69q0 21 9 31t32 10h152z" />
<glyph unicode="s" horiz-adv-x="477" d="M39 26v142q50 5 69 5q50 0 50 -41v-29q34 -8 63 -8q45 0 68 11.5t23 28.5q0 19 -28 33.5t-67.5 27.5t-79.5 30.5t-68 51t-28 79.5q0 66 54.5 104t150.5 38q91 0 171 -37v-132q-50 -6 -68 -6q-50 0 -50 42v22q-26 8 -58 8q-35 0 -55 -10t-20 -25q0 -19 28 -34t68 -28 t80 -30.5t68 -49t28 -75.5q0 -153 -214 -153q-91 0 -185 35z" />
<glyph unicode="t" horiz-adv-x="416" d="M213 561v-71h105q23 0 31.5 -10t8.5 -31l-6 -69h-139v-218q0 -54 51 -54q25 0 80 27l47 -96q-83 -46 -148 -46q-153 0 -153 161v226h-65q-5 50 -5 69q0 21 8.5 31t32.5 10h29v106q54 6 73 6q50 0 50 -41z" />
<glyph unicode="u" horiz-adv-x="636" d="M379 490h152v-380h30q23 0 32 -10t9 -31l-6 -69h-187v48q-74 -57 -154 -57q-159 0 -159 199v190h-64q-6 50 -6 69q0 21 9 31t32 10h152v-299q0 -46 15 -65.5t52 -19.5q57 0 123 69v205h-64q-6 50 -6 69q0 21 8.5 31t31.5 10z" />
<glyph unicode="v" horiz-adv-x="574" d="M338 -4h-103l-166 384h-58q-6 50 -6 69q0 21 9 31t32 10h173q23 0 31.5 -10t8.5 -31l-6 -69h-50l84 -211l85 211h-51q-5 50 -5 69q0 21 8.5 31t31.5 10h172q24 0 32.5 -10t8.5 -31l-6 -69h-59z" />
<glyph unicode="w" horiz-adv-x="858" d="M808 490q23 0 32 -10t9 -31l-6 -69h-59l-133 -384h-106l-117 312l-116 -312h-105l-134 384h-57q-6 50 -6 69q0 21 9 31t32 10h172q23 0 32 -10t9 -31l-6 -69h-56l62 -191l108 292h116l109 -292l61 191h-57q-6 50 -6 69q0 21 8.5 31t31.5 10h173z" />
<glyph unicode="x" horiz-adv-x="564" d="M179 490l103 -143l104 143h108q23 0 32 -10t9 -31l-6 -69h-73l-96 -132l99 -138h45q23 0 32 -10t9 -31l-6 -69h-149l-109 150l-109 -150h-147q-5 50 -5 69q0 21 8.5 31t32.5 10h43l100 138l-95 132h-74q-6 50 -6 69q0 21 9 31t33 10h108z" />
<glyph unicode="y" horiz-adv-x="584" d="M533 490q23 0 32 -10t9 -31l-6 -69h-60l-207 -509q-47 -116 -171 -116q-55 0 -109 20v154q50 6 68 6q50 0 50 -41v-32q41 0 57 40l35 93l-158 385h-57q-6 50 -6 69q0 21 9 31t32 10h172q23 0 32 -10t9 -31l-6 -69h-49l85 -221l85 221h-53q-6 50 -6 69q0 21 9 31t32 10 h172z" />
<glyph unicode="z" horiz-adv-x="502" d="M42 318v172h374q40 0 40 -51l-7 -49l-253 -278h143v29q0 41 50 41l69 -6v-176h-388q-41 0 -41 51l7 49l252 278h-127v-25q0 -41 -50 -41z" />
<glyph unicode="{" horiz-adv-x="290" d="M35 221v95q62 0 62 51q0 29 -34 97t-34 117q0 88 55 131.5t154 43.5q22 0 29.5 -10t7.5 -28l-7 -72q-62 0 -90.5 -19t-28.5 -61q0 -31 32.5 -97.5t32.5 -113.5q0 -58 -44 -86q44 -29 44 -87q0 -47 -32.5 -113.5t-32.5 -97.5q0 -42 28.5 -61t90.5 -19q7 -41 7 -72 q0 -18 -7.5 -28t-29.5 -10q-99 0 -154 43.5t-55 131.5q0 49 34 117t34 97q0 51 -62 51z" />
<glyph unicode="|" horiz-adv-x="260" d="M64 -245v1000h117v-1000h-117z" />
<glyph unicode="}" horiz-adv-x="290" d="M255 316v-95q-62 0 -62 -51q0 -29 34 -97t34 -117q0 -88 -55 -131.5t-154 -43.5q-22 0 -29.5 10t-7.5 28q0 14 2 32t4 29l2 11q62 0 90 19t28 61q0 31 -32.5 97.5t-32.5 113.5q0 58 45 87q-45 28 -45 86q0 47 32.5 113.5t32.5 97.5q0 42 -28 61t-90 19q-8 41 -8 72 q0 18 7.5 28t29.5 10q99 0 154 -43.5t55 -131.5q0 -49 -34 -117t-34 -97q0 -51 62 -51z" />
<glyph unicode="~" d="M416 315q39 0 82 33q27 21 46 11.5t19 -41.5v-58q-76 -65 -147 -65q-53 0 -106 31t-89 31q-41 0 -83 -33q-26 -20 -45.5 -11t-19.5 42v57q75 64 148 64q53 0 106.5 -30.5t88.5 -30.5z" />
<glyph unicode="&#xa1;" horiz-adv-x="237" d="M47 -198l24 507q36 5 51 5q35 0 36 -31l22 -520q-57 -7 -77 -7q-26 0 -41.5 10t-14.5 36zM28 459q0 35 25 59t59 24q35 0 59.5 -24t24.5 -59t-25 -59.5t-59 -24.5t-59 25t-25 59z" />
<glyph unicode="&#xa2;" d="M276 -86v84q-83 18 -131 81t-48 162q0 87 48.5 156.5t130.5 91.5v97h95v-88q69 -4 144 -43v-131q-49 -5 -65 -5q-47 0 -47 39v28q-17 4 -32 5v-288q44 4 118 51q18 -34 50 -89q-95 -64 -168 -72v-79h-95zM218 241q0 -85 58 -119v246q-58 -42 -58 -127z" />
<glyph unicode="&#xa3;" d="M542 668v-161q-50 -6 -69 -6q-50 0 -50 41v50q-24 4 -59 4q-63 0 -96 -25.5t-33 -71.5q0 -36 16 -88l9 -32h135q23 0 31.5 -10t8.5 -31l-6 -68h-159q-1 -77 -40 -156h220v36q0 41 50 41l68 -6v-185h-448q-41 0 -41 51l7 49q61 79 65 170h-77q-5 49 -5 68q0 22 8 31.5 t32 9.5h27v2q0 2 -1 3q-20 58 -20 115q0 94 61 151t188 57q78 0 178 -39z" />
<glyph unicode="&#xa4;" d="M319 97q-78 0 -136 36l-82 -82l-81 81l86 87q-29 56 -29 128q0 75 30 132l-89 90l82 82l83 -85q58 39 136 39q76 0 136 -38l83 84l81 -82l-88 -89q31 -59 31 -133q0 -70 -30 -128l87 -87l-82 -82l-84 82q-59 -35 -134 -35zM320 211q52 0 85.5 38.5t33.5 97.5 q0 62 -32 103.5t-87 41.5q-54 0 -85.5 -41.5t-31.5 -103.5q0 -59 33 -97.5t84 -38.5z" />
<glyph unicode="&#xa5;" d="M72 239h179v37h-179v90h135l-146 241h-62q-6 54 -6 72q0 22 8.5 31.5t32.5 9.5h191q24 0 33 -9.5t9 -31.5l-6 -72h-62l119 -196l119 196h-60q-6 54 -6 72q0 22 9 31.5t33 9.5h191q24 0 32.5 -9.5t8.5 -31.5l-6 -72h-67l-148 -241h142v-90h-184v-37h184v-88h-184v-37h54 q23 0 32 -10t9 -31l-6 -73h-310q-6 54 -6 73q0 21 9 31t32 10h55v37h-179v88z" />
<glyph unicode="&#xa6;" horiz-adv-x="260" d="M181 343h-117v412h117v-412zM181 -245h-117v418h117v-418z" />
<glyph unicode="&#xa7;" horiz-adv-x="514" d="M381 211q0 43 -21.5 83.5t-52 73.5l-61 66.5t-52.5 75.5t-23 87q-36 -30 -36 -88q0 -43 21.5 -83.5t52 -74l61.5 -67t53 -75.5t23 -87q35 30 35 89zM485 220q0 -106 -69.5 -169t-185.5 -63q-91 0 -178 28v146q50 6 69 6q50 0 50 -42v-30q15 -5 32 -5q42 0 42 34 q0 24 -22 51.5t-53.5 57.5t-63.5 65.5t-54 88t-22 111.5q0 106 69.5 169t186.5 63q89 0 178 -27v-146q-50 -6 -69 -6q-50 0 -50 41v30q-17 5 -32 5q-43 0 -43 -34q0 -23 22 -51t54 -58.5t63.5 -66.5t53.5 -88t22 -110z" />
<glyph unicode="&#xa8;" horiz-adv-x="397" d="M19 656q0 31 23.5 53.5t53.5 22.5q32 0 55 -22.5t23 -53.5q0 -32 -23 -53.5t-55 -21.5q-31 0 -54 21.5t-23 53.5zM242 656q0 31 23.5 53.5t53.5 22.5q32 0 55.5 -22.5t23.5 -53.5q0 -32 -23 -53.5t-56 -21.5q-31 0 -54 21.5t-23 53.5z" />
<glyph unicode="&#xa9;" horiz-adv-x="857" d="M599 563v-132q-52 -6 -66 -6q-50 0 -50 42v20q-22 5 -46 5q-58 0 -92 -35t-34 -97q0 -60 35.5 -93.5t91.5 -33.5q17 0 45 4v23q0 41 50 41l66 -5v-132q-74 -41 -164 -41q-116 0 -181 63.5t-65 173.5q0 105 65.5 174.5t180.5 69.5q87 0 164 -41zM34 364q0 167 112.5 280.5 t280.5 113.5t281.5 -113.5t113.5 -280.5q0 -169 -112.5 -281t-282.5 -112q-169 0 -281 112.5t-112 280.5zM137 364q0 -131 83 -217.5t207 -86.5q125 0 208 86.5t83 217.5t-82.5 217t-208.5 86q-125 0 -207.5 -86t-82.5 -217z" />
<glyph unicode="&#xaa;" horiz-adv-x="407" d="M377 363h-121q-5 5 -9 20q-42 -27 -90 -27q-63 0 -98 30t-35 81q0 57 43 89.5t113 32.5q29 0 59 -5q-1 35 -11 49t-39 14q-20 0 -41 -5q0 -33 -40 -33l-57 4v96q100 32 152 32q73 0 105 -35t32 -115v-138h10q32 0 32 -34zM165 441q32 0 74 28v28q-24 9 -54 9 q-25 0 -41.5 -9.5t-16.5 -27.5q0 -28 38 -28z" />
<glyph unicode="&#xab;" horiz-adv-x="609" d="M180 248l129 -166q9 -13 10 -25.5t-12 -22.5t-41 -10q-32 0 -56 6l-205 218l205 217q24 6 56 6q28 0 41 -9.5t12 -22t-10 -25.5zM440 248l128 -166q17 -17 7.5 -37.5t-50.5 -20.5l-56 6l-204 218l204 217q25 6 56 6q41 0 50.5 -20t-7.5 -37z" />
<glyph unicode="&#xac;" d="M445 122v156h-371v111h489v-267h-118z" />
<glyph unicode="&#xad;" horiz-adv-x="401" d="M44 344h313v-120h-313v120z" />
<glyph unicode="&#xae;" horiz-adv-x="857" d="M34 364q0 167 112.5 280.5t280.5 113.5t281.5 -113.5t113.5 -280.5q0 -169 -112.5 -281t-282.5 -112q-169 0 -281 112.5t-112 280.5zM137 364q0 -131 83 -217.5t207 -86.5q125 0 208 86.5t83 217.5t-82.5 217t-208.5 86q-125 0 -207.5 -86t-82.5 -217zM428 151h-196 q-5 42 -5 58q0 17 7.5 25.5t27.5 8.5h21v259h-51q-5 42 -5 58q0 17 7.5 25.5t27.5 8.5h165q165 0 165 -133q0 -37 -20.5 -67t-58.5 -44q45 -28 59 -80l8 -27h26q20 0 27.5 -8.5t7.5 -25.5l-5 -58h-135l-28 92q-21 74 -88 82v-82h14q34 0 34 -34zM426 502h-41v-90h41 q68 0 68 44q0 46 -68 46z" />
<glyph unicode="&#xaf;" horiz-adv-x="353" d="M68 684h218q23 0 31.5 -10t8.5 -31l-6 -56h-288q-6 37 -6 56q0 21 9 31t33 10z" />
<glyph unicode="&#xb0;" d="M44 573q0 67 48 114t116 47t115.5 -47t47.5 -114q0 -66 -47.5 -111.5t-115.5 -45.5t-116 45.5t-48 111.5zM146 573q0 -25 18 -42.5t44 -17.5q25 0 43 18t18 42q0 27 -18 46t-43 19q-27 0 -44.5 -19t-17.5 -46z" />
<glyph unicode="&#xb1;" d="M73 112h187v103h-186v111h186v184h116v-184h187v-111h-187v-103h187v-112h-490v112z" />
<glyph unicode="&#xb2;" horiz-adv-x="367" d="M343 514v-121h-284q-35 0 -35 43l4 40l153 121q26 20 35.5 31t9.5 25q0 26 -36 26q-21 0 -49 -10v-25q0 -33 -40 -33l-55 4v112q80 43 144 43q69 0 103 -30t34 -79q0 -35 -19.5 -63.5t-70.5 -69.5l-61 -48h75v5q0 33 40 33z" />
<glyph unicode="&#xb3;" horiz-adv-x="338" d="M24 416v95q41 4 55 4q41 0 41 -33v-11q15 -5 36 -5q28 0 45 9.5t17 27.5q0 30 -58 30h-26v87h34q46 0 46 31q0 25 -50 25q-26 0 -42 -3v-12q0 -33 -40 -33l-55 5v95q26 16 65.5 26.5t71.5 10.5q70 0 108 -28.5t38 -81.5q0 -46 -38 -76q42 -26 42 -78q0 -59 -43 -92.5 t-114 -33.5t-133 41z" />
<glyph unicode="&#xb4;" horiz-adv-x="459" d="M97 650l236 105q43 18 43 -33q0 -39 -8 -75l-242 -80q-15 -4 -25 3.5t-10 27.5z" />
<glyph unicode="&#xb5;" d="M383 490h152v-380h29q24 0 33 -10t9 -31l-6 -69h-187v48q-71 -55 -134 -55q-34 0 -57 14v-201q0 -41 -50 -41l-72 7v608h-64q-6 50 -6 69q0 21 9 31t32 10h151v-308q0 -40 16 -58t52 -18q57 0 123 69v205h-64q-6 50 -6 69q0 21 8.5 31t31.5 10z" />
<glyph unicode="&#xb6;" horiz-adv-x="779" d="M748 611h-61v-856h-125v856h-77v-856h-125v485q-38 -7 -74 -7q-130 0 -199.5 71.5t-69.5 178.5t71 172t206 65h418q24 0 33 -9.5t9 -31.5zM287 352q33 0 73 10v245h-66q-77 0 -115 -34t-38 -94q0 -57 38.5 -92t107.5 -35z" />
<glyph unicode="&#xb7;" horiz-adv-x="256" d="M44 326q0 35 24.5 59.5t58.5 24.5q35 0 60 -24.5t25 -59.5q0 -34 -25 -58.5t-60 -24.5q-34 0 -58.5 24.5t-24.5 58.5z" />
<glyph unicode="&#xb8;" horiz-adv-x="491" d="M182 0h92l-5 -44q53 5 87 -18.5t34 -74.5q0 -56 -36 -85.5t-89 -29.5q-54 0 -101 30q-5 27 -5 50t12 29t30 -5q31 -17 58 -17q35 0 35 27q0 25 -38 25q-26 0 -59 -10l-26 30z" />
<glyph unicode="&#xb9;" horiz-adv-x="327" d="M269 483q19 0 26.5 -8t7.5 -26l-5 -56h-240q-5 41 -5 56q0 34 33 34h41v172l-59 -34q-27 30 -35 41q-19 31 8 48l90 52h97v-279h41z" />
<glyph unicode="&#xba;" horiz-adv-x="425" d="M214 451q35 0 58 27t23 68q0 43 -21.5 72.5t-59.5 29.5t-60.5 -29.5t-22.5 -72.5q0 -41 23.5 -68t59.5 -27zM213 358q-84 0 -134 52.5t-50 135.5q0 84 49.5 139.5t134.5 55.5t134 -55.5t49 -139.5q0 -83 -50 -135.5t-133 -52.5z" />
<glyph unicode="&#xbb;" horiz-adv-x="609" d="M300 82l128 166l-128 166q-17 17 -7.5 37t50.5 20l56 -6l205 -217l-205 -218q-25 -6 -56 -6q-41 0 -50.5 20.5t7.5 37.5zM40 82l129 166l-129 166q-9 13 -10 25.5t12 22t41 9.5q32 0 56 -6l205 -217l-205 -218q-24 -6 -56 -6q-28 0 -41 10t-12 22.5t10 25.5z" />
<glyph unicode="&#xbc;" horiz-adv-x="939" d="M670 94h52v34h-189q-14 65 2 84l195 229h93v-215h34q27 0 35 -12t8 -36l-3 -50h-74v-34h28q19 0 26.5 -8.5t7.5 -26.5l-5 -59h-239q-5 42 -5 59q0 18 7 26.5t27 8.5zM722 310l-71 -84h71v84zM198 53l542 703l87 -67l-542 -703zM147 401v197l-60 -36q-25 25 -40 51 q-19 35 13 53l104 63h99v-328h48q22 0 30 -9.5t8 -29.5l-6 -65h-287q-5 47 -5 65q0 21 8 30t30 9h58z" />
<glyph unicode="&#xbd;" horiz-adv-x="1019" d="M147 401v197l-60 -36q-25 25 -40 51q-19 35 13 53l104 63h99v-328h48q22 0 30 -9.5t8 -29.5l-6 -65h-287q-5 47 -5 65q0 21 8 30t30 9h58zM198 53l542 703l87 -67l-542 -703zM626 258v127q94 52 172 52q83 0 121.5 -33.5t38.5 -88.5q0 -43 -20.5 -74.5t-79.5 -72.5 l-86 -62h95v14q0 39 47 39l66 -6v-153h-336q-38 0 -38 49q0 27 5 49l176 132q56 43 56 72q0 31 -45 31q-32 0 -59 -11v-31q0 -39 -47 -39z" />
<glyph unicode="&#xbe;" horiz-adv-x="939" d="M42 585v108q31 16 78 27.5t84 11.5q81 0 124 -31.5t43 -91.5q0 -55 -49 -89q53 -32 53 -95q0 -64 -49 -101t-130 -37q-34 0 -80 12t-77 31v112q47 6 66 6q47 0 47 -39v-14q22 -6 43 -6q32 0 52 11t20 31q0 35 -69 35h-33v102h43q54 0 54 34q0 32 -58 32q-30 0 -49 -6v-10 q0 -39 -47 -39zM670 94h52v34h-189q-14 65 2 84l195 229h93v-215h34q27 0 35 -12t8 -36l-3 -50h-74v-34h28q19 0 26.5 -8.5t7.5 -26.5l-5 -59h-239q-5 42 -5 59q0 18 7 26.5t27 8.5zM722 310l-71 -84h71v84zM186 53l542 703l87 -67l-542 -703z" />
<glyph unicode="&#xbf;" horiz-adv-x="474" d="M446 -47v-142q-102 -64 -208 -64q-111 0 -165.5 47.5t-54.5 128.5q0 41 18 74t43.5 55.5l51.5 45t44 54.5t18 72v9q0 41 50 41l69 -5v-40q0 -53 -18 -96t-43.5 -69t-51 -48t-43.5 -45t-18 -48q0 -30 25.5 -48.5t74.5 -18.5q51 0 89 19v43q0 41 50 41zM174 427 q0 35 25 59.5t59 24.5q35 0 59.5 -24.5t24.5 -59.5q0 -34 -24.5 -58.5t-59.5 -24.5q-34 0 -59 24.5t-25 58.5z" />
<glyph unicode="&#xc0;" horiz-adv-x="765" d="M292 0h-271q-6 54 -6 73q0 21 9 31t32 10h38l191 493h-70q-6 54 -6 72q0 22 8.5 31.5t32.5 9.5h188l235 -606h37q23 0 32 -10t9 -31l-6 -73h-272q-6 54 -6 73q0 21 9 31t33 10h24l-36 98h-230l-37 -98h27q23 0 32 -10t9 -31zM382 522l-71 -191h142zM234 956l236 -104 q6 -31 6 -52q0 -20 -10 -28t-25 -3l-242 80q-8 36 -8 75q0 26 13 34t30 -2z" />
<glyph unicode="&#xc1;" horiz-adv-x="765" d="M292 0h-271q-6 54 -6 73q0 21 9 31t32 10h38l191 493h-70q-6 54 -6 72q0 22 8.5 31.5t32.5 9.5h188l235 -606h37q23 0 32 -10t9 -31l-6 -73h-272q-6 54 -6 73q0 21 9 31t33 10h24l-36 98h-230l-37 -98h27q23 0 32 -10t9 -31zM382 522l-71 -191h142zM205 852l236 104 q43 20 43 -32q0 -39 -8 -75l-242 -80q-14 -5 -24.5 3t-10.5 28z" />
<glyph unicode="&#xc2;" horiz-adv-x="765" d="M292 0h-271q-6 54 -6 73q0 21 9 31t32 10h38l191 493h-70q-6 54 -6 72q0 22 8.5 31.5t32.5 9.5h188l235 -606h37q23 0 32 -10t9 -31l-6 -73h-272q-6 54 -6 73q0 21 9 31t33 10h24l-36 98h-230l-37 -98h27q23 0 32 -10t9 -31zM382 522l-71 -191h142zM176 845l163 125 l163 -125q4 -22 4 -48q0 -22 -13 -29.5t-30 3.5l-124 74l-123 -74q-17 -10 -30.5 -3.5t-13.5 29.5z" />
<glyph unicode="&#xc3;" horiz-adv-x="765" d="M292 0h-271q-6 54 -6 73q0 21 9 31t32 10h38l191 493h-70q-6 54 -6 72q0 22 8.5 31.5t32.5 9.5h188l235 -606h37q23 0 32 -10t9 -31l-6 -73h-272q-6 54 -6 73q0 21 9 31t33 10h24l-36 98h-230l-37 -98h27q23 0 32 -10t9 -31zM382 522l-71 -191h142zM274 824 q-28 0 -56 -26q-14 -14 -31.5 -6t-17.5 33q0 13 1 27q2 14 4 20l2 6q54 46 100 46q38 0 79 -25t59 -25q27 0 54 27q14 14 31.5 5.5t17.5 -33.5l-6 -53q-58 -46 -100 -46q-37 0 -78 25t-59 25z" />
<glyph unicode="&#xc4;" horiz-adv-x="765" d="M292 0h-271q-6 54 -6 73q0 21 9 31t32 10h38l191 493h-70q-6 54 -6 72q0 22 8.5 31.5t32.5 9.5h188l235 -606h37q23 0 32 -10t9 -31l-6 -73h-272q-6 54 -6 73q0 21 9 31t33 10h24l-36 98h-230l-37 -98h27q23 0 32 -10t9 -31zM382 522l-71 -191h142zM154 857q0 32 23 54.5 t54 22.5q32 0 55.5 -22.5t23.5 -54.5q0 -31 -23.5 -52.5t-55.5 -21.5q-31 0 -54 21.5t-23 52.5zM377 857q0 32 23.5 54.5t54.5 22.5q32 0 55 -22.5t23 -54.5q0 -31 -23 -52.5t-55 -21.5q-31 0 -54.5 21.5t-23.5 52.5z" />
<glyph unicode="&#xc5;" horiz-adv-x="765" d="M292 0h-271q-6 54 -6 73q0 21 9 31t32 10h38l191 493h-70q-6 54 -6 72q0 22 8.5 31.5t32.5 9.5h188l235 -606h37q23 0 32 -10t9 -31l-6 -73h-272q-6 54 -6 73q0 21 9 31t33 10h24l-36 98h-230l-37 -98h27q23 0 32 -10t9 -31zM382 522l-71 -191h142zM209 896q0 56 40 95.5 t98 39.5t99 -39.5t41 -95.5q0 -57 -40.5 -96t-99.5 -39q-58 0 -98 39t-40 96zM295 896q0 -22 15 -37t37 -15t37 15t15 37q0 21 -15.5 37.5t-36.5 16.5t-36.5 -16.5t-15.5 -37.5z" />
<glyph unicode="&#xc6;" horiz-adv-x="1090" d="M329 0h-296q-6 54 -6 73q0 21 9 31t33 10h33l318 493h-98q-5 54 -5 72q0 22 8.5 31.5t32.5 9.5h670v-181q-52 -6 -72 -6q-51 0 -51 43v29h-226v-171h243v-116h-243v-202h243v28q0 43 52 43l72 -6v-181h-570q-6 54 -6 73q0 21 9 31t33 10h35v98h-229l-62 -98h38 q23 0 32 -10t9 -31zM547 575l-154 -244h154v244z" />
<glyph unicode="&#xc7;" horiz-adv-x="680" d="M636 215v-155q-94 -60 -215 -72l-4 -32q54 5 88 -18t34 -75q0 -56 -36 -85.5t-89 -29.5q-54 0 -101 30q-5 27 -5 50t12 29t30 -5q29 -17 58 -17q35 0 35 27q0 25 -38 25q-26 0 -59 -10l-27 30l10 82q-149 15 -222 112.5t-73 252.5q0 162 92.5 268.5t266.5 106.5 q133 0 235 -58v-155q-52 -5 -71 -5q-52 0 -52 43v36q-41 16 -113 16q-106 0 -163 -69.5t-57 -182.5q0 -114 52 -178.5t159 -64.5q76 0 130 24v42q0 43 51 43z" />
<glyph unicode="&#xc8;" horiz-adv-x="659" d="M614 181v-181h-569q-6 54 -6 73q0 21 9 31t32 10h36v493h-71q-6 54 -6 72q0 22 8.5 31.5t32.5 9.5h517v-181q-52 -6 -72 -6q-52 0 -52 43v29h-225v-171h243v-116h-243v-202h243v28q0 43 52 43zM214 956l236 -104q6 -31 6 -52q0 -20 -10.5 -28t-25.5 -3l-242 80 q-7 36 -7 75q0 52 43 32z" />
<glyph unicode="&#xc9;" horiz-adv-x="659" d="M614 181v-181h-569q-6 54 -6 73q0 21 9 31t32 10h36v493h-71q-6 54 -6 72q0 22 8.5 31.5t32.5 9.5h517v-181q-52 -6 -72 -6q-52 0 -52 43v29h-225v-171h243v-116h-243v-202h243v28q0 43 52 43zM184 852l236 104q18 10 31 2t13 -34q0 -39 -8 -75l-242 -80q-15 -5 -25.5 3 t-10.5 28z" />
<glyph unicode="&#xca;" horiz-adv-x="659" d="M614 181v-181h-569q-6 54 -6 73q0 21 9 31t32 10h36v493h-71q-6 54 -6 72q0 22 8.5 31.5t32.5 9.5h517v-181q-52 -6 -72 -6q-52 0 -52 43v29h-225v-171h243v-116h-243v-202h243v28q0 43 52 43zM156 845l162 125l163 -125q4 -22 4 -48q0 -23 -13 -29.5t-30 3.5l-124 74 l-123 -74q-17 -10 -30 -3.5t-13 29.5z" />
<glyph unicode="&#xcb;" horiz-adv-x="659" d="M614 181v-181h-569q-6 54 -6 73q0 21 9 31t32 10h36v493h-71q-6 54 -6 72q0 22 8.5 31.5t32.5 9.5h517v-181q-52 -6 -72 -6q-52 0 -52 43v29h-225v-171h243v-116h-243v-202h243v28q0 43 52 43zM357 857q0 32 23 54.5t54 22.5q32 0 55.5 -22.5t23.5 -54.5 q0 -31 -23.5 -52.5t-55.5 -21.5q-31 0 -54 21.5t-23 52.5zM133 857q0 32 23.5 54.5t54.5 22.5q32 0 55 -22.5t23 -54.5q0 -31 -23 -52.5t-55 -21.5q-31 0 -54.5 21.5t-23.5 52.5z" />
<glyph unicode="&#xcc;" horiz-adv-x="362" d="M317 607h-71v-493h35q24 0 32.5 -10t8.5 -31l-5 -73h-272q-6 54 -6 73q0 21 9 31t32 10h36v493h-71q-6 54 -6 72q0 22 8.5 31.5t32.5 9.5h201q24 0 32.5 -9.5t8.5 -31.5zM69 956l236 -104q6 -31 6 -52q0 -20 -10.5 -28t-25.5 -3l-242 80q-8 36 -8 75q0 26 13 34t31 -2z " />
<glyph unicode="&#xcd;" horiz-adv-x="362" d="M317 607h-71v-493h35q24 0 32.5 -10t8.5 -31l-5 -73h-272q-6 54 -6 73q0 21 9 31t32 10h36v493h-71q-6 54 -6 72q0 22 8.5 31.5t32.5 9.5h201q24 0 32.5 -9.5t8.5 -31.5zM39 852l236 104q43 20 43 -32q0 -39 -7 -75l-242 -80q-15 -5 -25.5 3t-10.5 28z" />
<glyph unicode="&#xce;" horiz-adv-x="362" d="M317 607h-71v-493h35q24 0 32.5 -10t8.5 -31l-5 -73h-272q-6 54 -6 73q0 21 9 31t32 10h36v493h-71q-6 54 -6 72q0 22 8.5 31.5t32.5 9.5h201q24 0 32.5 -9.5t8.5 -31.5zM11 845l162 125l163 -125q4 -22 4 -48q0 -22 -13 -29.5t-30 3.5l-124 74l-123 -74 q-17 -10 -30 -3.5t-13 29.5z" />
<glyph unicode="&#xcf;" horiz-adv-x="362" d="M317 607h-71v-493h35q24 0 32.5 -10t8.5 -31l-5 -73h-272q-6 54 -6 73q0 21 9 31t32 10h36v493h-71q-6 54 -6 72q0 22 8.5 31.5t32.5 9.5h201q24 0 32.5 -9.5t8.5 -31.5zM-12 857q0 32 23.5 54.5t54.5 22.5q32 0 55 -22.5t23 -54.5q0 -31 -23 -52.5t-55 -21.5 q-31 0 -54.5 21.5t-23.5 52.5zM212 857q0 32 23 54.5t54 22.5q32 0 55 -22.5t23 -54.5q0 -31 -23 -52.5t-55 -21.5q-31 0 -54 21.5t-23 52.5z" />
<glyph unicode="&#xd0;" horiz-adv-x="744" d="M45 0q-6 54 -6 73q0 21 9 31t32 10h36v168h-84v115h84v210h-71q-6 54 -6 72q0 22 8.5 31.5t32.5 9.5h205q121 0 206.5 -27t132 -77.5t66.5 -112t20 -141.5q0 -171 -104 -266.5t-321 -95.5h-240zM283 602h-36v-205h135v-115h-135v-162h36q154 0 223 62t69 180 q0 53 -13 93.5t-44.5 75t-90.5 53t-144 18.5z" />
<glyph unicode="&#xd1;" horiz-adv-x="781" d="M317 0h-272q-6 54 -6 73q0 21 9 31t32 10h36v493h-71q-6 54 -6 72q0 22 8.5 31.5t32.5 9.5h155l242 -361q53 -79 72 -132q-7 77 -7 155v225h-71q-6 54 -6 72q0 22 9 31.5t33 9.5h201q24 0 32.5 -9.5t8.5 -31.5l-6 -72h-69v-607h-111l-243 362q-42 62 -80 137l1 -9 q1 -8 2 -23t2 -33.5t2 -44t1 -49.5v-226h33q24 0 32.5 -10t8.5 -31zM305 824q-28 0 -57 -26q-14 -14 -31.5 -6t-17.5 33q0 13 2 27t4 20l2 6q52 46 100 46q37 0 78.5 -25t58.5 -25q26 0 55 27q13 14 31 5.5t18 -33.5q0 -12 -2 -25.5t-4 -20.5l-1 -7q-56 -46 -100 -46 q-37 0 -78 25t-58 25z" />
<glyph unicode="&#xd2;" horiz-adv-x="772" d="M387 118q94 0 154 66t60 169q0 106 -58 178.5t-156 72.5t-156 -72.5t-58 -178.5q0 -103 60.5 -169t153.5 -66zM386 -9q-160 0 -256 101t-96 262q0 162 95 268t257 106t257 -106t95 -268q0 -161 -97 -262t-255 -101zM306 956l236 -104q6 -31 6 -52q0 -20 -10.5 -28 t-24.5 -3l-243 80q-7 36 -7 75q0 52 43 32z" />
<glyph unicode="&#xd3;" horiz-adv-x="772" d="M387 118q94 0 154 66t60 169q0 106 -58 178.5t-156 72.5t-156 -72.5t-58 -178.5q0 -103 60.5 -169t153.5 -66zM386 -9q-160 0 -256 101t-96 262q0 162 95 268t257 106t257 -106t95 -268q0 -161 -97 -262t-255 -101zM244 852l236 104q43 20 43 -32q0 -39 -8 -75l-242 -80 q-14 -5 -24.5 3t-10.5 28z" />
<glyph unicode="&#xd4;" horiz-adv-x="772" d="M387 118q94 0 154 66t60 169q0 106 -58 178.5t-156 72.5t-156 -72.5t-58 -178.5q0 -103 60.5 -169t153.5 -66zM386 -9q-160 0 -256 101t-96 262q0 162 95 268t257 106t257 -106t95 -268q0 -161 -97 -262t-255 -101zM216 845l162 125l163 -125q4 -22 4 -48 q0 -22 -13.5 -29.5t-29.5 3.5l-124 74l-123 -74q-17 -10 -30 -3.5t-13 29.5z" />
<glyph unicode="&#xd5;" horiz-adv-x="772" d="M387 118q94 0 154 66t60 169q0 106 -58 178.5t-156 72.5t-156 -72.5t-58 -178.5q0 -103 60.5 -169t153.5 -66zM386 -9q-160 0 -256 101t-96 262q0 162 95 268t257 106t257 -106t95 -268q0 -161 -97 -262t-255 -101zM314 824q-29 0 -57 -26q-13 -14 -31 -6t-18 33 q0 13 2 27t4 20l2 6q52 46 100 46q37 0 78.5 -25t58.5 -25q26 0 55 27q14 14 31.5 5.5t17.5 -33.5q0 -12 -1.5 -25.5t-3.5 -20.5l-2 -7q-58 -46 -100 -46q-37 0 -78 25t-58 25z" />
<glyph unicode="&#xd6;" horiz-adv-x="772" d="M387 118q94 0 154 66t60 169q0 106 -58 178.5t-156 72.5t-156 -72.5t-58 -178.5q0 -103 60.5 -169t153.5 -66zM386 -9q-160 0 -256 101t-96 262q0 162 95 268t257 106t257 -106t95 -268q0 -161 -97 -262t-255 -101zM193 857q0 32 23 54.5t54 22.5q32 0 55.5 -22.5 t23.5 -54.5q0 -31 -23 -52.5t-56 -21.5q-31 0 -54 21.5t-23 52.5zM416 857q0 32 23.5 54.5t54.5 22.5q32 0 55 -22.5t23 -54.5q0 -31 -23 -52.5t-55 -21.5q-31 0 -54.5 21.5t-23.5 52.5z" />
<glyph unicode="&#xd7;" d="M162 528l156 -158l156 156l79 -78l-156 -156l161 -160l-84 -83l-160 160l-158 -158l-78 78l158 158l-158 159z" />
<glyph unicode="&#xd8;" horiz-adv-x="772" d="M386 -9q-112 0 -194 51l-53 -64l-80 66l55 66q-80 97 -80 244q0 162 95 268t257 106q113 0 196 -55l50 60l81 -66l-53 -64q78 -103 78 -249q0 -161 -97 -262t-255 -101zM173 353q0 -73 33 -133l292 351q-50 33 -111 33q-98 0 -156 -72.5t-58 -178.5zM387 118q94 0 154 66 t60 169q0 78 -34 140l-289 -347q47 -28 109 -28z" />
<glyph unicode="&#xd9;" horiz-adv-x="775" d="M307 607h-69v-336q0 -75 38.5 -117t112.5 -42t113 42t39 117v336h-73q-5 54 -5 72q0 22 8.5 31.5t32.5 9.5h201q24 0 32.5 -9.5t8.5 -31.5l-6 -72h-69v-348q0 -122 -76 -195t-207 -73q-130 0 -206 73t-76 195v348h-71q-6 54 -6 72q0 22 9 31.5t33 9.5h200q24 0 33 -9.5 t9 -31.5zM275 951l237 -105q5 -31 5 -52q0 -40 -35 -31l-242 80q-8 36 -8 75q0 26 13 34t30 -1z" />
<glyph unicode="&#xda;" horiz-adv-x="775" d="M307 607h-69v-336q0 -75 38.5 -117t112.5 -42t113 42t39 117v336h-73q-5 54 -5 72q0 22 8.5 31.5t32.5 9.5h201q24 0 32.5 -9.5t8.5 -31.5l-6 -72h-69v-348q0 -122 -76 -195t-207 -73q-130 0 -206 73t-76 195v348h-71q-6 54 -6 72q0 22 9 31.5t33 9.5h200q24 0 33 -9.5 t9 -31.5zM246 846l236 105q43 18 43 -33q0 -39 -8 -75l-242 -80q-15 -4 -25 3.5t-10 27.5z" />
<glyph unicode="&#xdb;" horiz-adv-x="775" d="M307 607h-69v-336q0 -75 38.5 -117t112.5 -42t113 42t39 117v336h-73q-5 54 -5 72q0 22 8.5 31.5t32.5 9.5h201q24 0 32.5 -9.5t8.5 -31.5l-6 -72h-69v-348q0 -122 -76 -195t-207 -73q-130 0 -206 73t-76 195v348h-71q-6 54 -6 72q0 22 9 31.5t33 9.5h200q24 0 33 -9.5 t9 -31.5zM218 839l162 125l163 -125q4 -22 4 -48q0 -22 -13.5 -29.5t-29.5 3.5l-124 74l-123 -74q-17 -10 -30 -3.5t-13 29.5z" />
<glyph unicode="&#xdc;" horiz-adv-x="775" d="M307 607h-69v-336q0 -75 38.5 -117t112.5 -42t113 42t39 117v336h-73q-5 54 -5 72q0 22 8.5 31.5t32.5 9.5h201q24 0 32.5 -9.5t8.5 -31.5l-6 -72h-69v-348q0 -122 -76 -195t-207 -73q-130 0 -206 73t-76 195v348h-71q-6 54 -6 72q0 22 9 31.5t33 9.5h200q24 0 33 -9.5 t9 -31.5zM195 852q0 31 23.5 53.5t53.5 22.5q32 0 55.5 -22.5t23.5 -53.5q0 -32 -23 -53.5t-56 -21.5q-31 0 -54 21.5t-23 53.5zM418 852q0 31 23.5 53.5t54.5 22.5q32 0 55 -22.5t23 -53.5q0 -32 -23 -53.5t-55 -21.5q-31 0 -54.5 22t-23.5 53z" />
<glyph unicode="&#xdd;" horiz-adv-x="701" d="M690 607h-69l-207 -316v-177h53q24 0 33 -10t9 -31l-6 -73h-311q-6 54 -6 73q0 21 9 31t32 10h55v174l-208 319h-63q-6 54 -6 72q0 22 8.5 31.5t32.5 9.5h201q24 0 32.5 -9.5t8.5 -31.5l-6 -72h-58l125 -196l126 196h-57q-5 54 -5 72q0 22 8.5 31.5t32.5 9.5h201 q24 0 32.5 -9.5t8.5 -31.5zM208 852l236 104q17 10 30 2t13 -34q0 -39 -8 -75l-242 -80q-14 -5 -24.5 3t-10.5 28z" />
<glyph unicode="&#xde;" horiz-adv-x="623" d="M317 607h-71v-38h82q142 0 206.5 -51.5t64.5 -150.5t-72 -159t-188 -60q-43 0 -93 10v-44h55q23 0 32 -10t9 -31l-6 -73h-291q-6 54 -6 73q0 21 9 31t32 10h36v493h-71q-6 54 -6 72q0 22 8.5 31.5t32.5 9.5h201q24 0 32.5 -9.5t8.5 -31.5zM333 456h-87v-178 q44 -12 93 -12q59 0 95.5 25.5t36.5 72.5q0 92 -138 92z" />
<glyph unicode="&#xdf;" horiz-adv-x="604" d="M248 8l28 111q47 -14 87 -14q38 0 61.5 19t23.5 54q0 33 -19 55t-46 35.5l-53.5 28t-45.5 41.5t-19 67q0 37 16.5 63t36 38t36 29.5t16.5 39.5q0 24 -17 36.5t-45 12.5q-99 0 -99 -111v-513h-187q-6 50 -6 69q0 21 9 31t32 10h29v403q0 111 60.5 166.5t161.5 55.5 q92 0 140.5 -42.5t48.5 -117.5q0 -42 -17.5 -73t-38 -44t-38 -26.5t-17.5 -25.5q0 -10 19.5 -20l47 -23t54.5 -33t46.5 -59.5t19.5 -92.5q0 -82 -53.5 -134.5t-160.5 -52.5q-52 0 -111 17z" />
<glyph unicode="&#xe0;" horiz-adv-x="533" d="M468 110q23 0 32 -10t9 -31l-6 -69h-169q-8 16 -12 32q-62 -41 -124 -41q-81 0 -127.5 41.5t-46.5 114.5t54.5 117t144.5 44q51 0 93 -15q-2 50 -17 70.5t-54 20.5q-26 0 -65 -9v-7q0 -41 -50 -41l-68 6v125q130 41 196 41q96 0 138 -47.5t42 -155.5v-186h30zM213 99 q51 0 103 38v59q-34 14 -66 14q-45 0 -71.5 -16t-26.5 -45q0 -50 61 -50zM129 755l237 -105q5 -31 5 -52q0 -40 -35 -31l-242 80q-8 36 -8 75q0 26 13 34t30 -1z" />
<glyph unicode="&#xe1;" horiz-adv-x="533" d="M468 110q23 0 32 -10t9 -31l-6 -69h-169q-8 16 -12 32q-62 -41 -124 -41q-81 0 -127.5 41.5t-46.5 114.5t54.5 117t144.5 44q51 0 93 -15q-2 50 -17 70.5t-54 20.5q-26 0 -65 -9v-7q0 -41 -50 -41l-68 6v125q130 41 196 41q96 0 138 -47.5t42 -155.5v-186h30zM213 99 q51 0 103 38v59q-34 14 -66 14q-45 0 -71.5 -16t-26.5 -45q0 -50 61 -50zM100 650l236 105q43 18 43 -33q0 -39 -8 -75l-242 -80q-15 -4 -25 3.5t-10 27.5z" />
<glyph unicode="&#xe2;" horiz-adv-x="533" d="M468 110q23 0 32 -10t9 -31l-6 -69h-169q-8 16 -12 32q-62 -41 -124 -41q-81 0 -127.5 41.5t-46.5 114.5t54.5 117t144.5 44q51 0 93 -15q-2 50 -17 70.5t-54 20.5q-26 0 -65 -9v-7q0 -41 -50 -41l-68 6v125q130 41 196 41q96 0 138 -47.5t42 -155.5v-186h30zM213 99 q51 0 103 38v59q-34 14 -66 14q-45 0 -71.5 -16t-26.5 -45q0 -50 61 -50zM72 643l162 125l163 -125q4 -22 4 -48q0 -22 -13.5 -29.5t-29.5 3.5l-124 74l-123 -74q-17 -10 -30 -3.5t-13 29.5z" />
<glyph unicode="&#xe3;" horiz-adv-x="533" d="M468 110q23 0 32 -10t9 -31l-6 -69h-169q-8 16 -12 32q-62 -41 -124 -41q-81 0 -127.5 41.5t-46.5 114.5t54.5 117t144.5 44q51 0 93 -15q-2 50 -17 70.5t-54 20.5q-26 0 -65 -9v-7q0 -41 -50 -41l-68 6v125q130 41 196 41q96 0 138 -47.5t42 -155.5v-186h30zM213 99 q51 0 103 38v59q-34 14 -66 14q-45 0 -71.5 -16t-26.5 -45q0 -50 61 -50zM170 622q-29 0 -57 -26q-13 -14 -31 -6t-18 33q0 13 2 27t4 20l2 6q52 46 99 46q38 0 79.5 -25t58.5 -25q26 0 55 27q14 14 31.5 6t17.5 -34q0 -12 -1.5 -25.5t-3.5 -20.5l-2 -7q-58 -46 -100 -46 q-37 0 -78 25t-58 25z" />
<glyph unicode="&#xe4;" horiz-adv-x="533" d="M468 110q23 0 32 -10t9 -31l-6 -69h-169q-8 16 -12 32q-62 -41 -124 -41q-81 0 -127.5 41.5t-46.5 114.5t54.5 117t144.5 44q51 0 93 -15q-2 50 -17 70.5t-54 20.5q-26 0 -65 -9v-7q0 -41 -50 -41l-68 6v125q130 41 196 41q96 0 138 -47.5t42 -155.5v-186h30zM213 99 q51 0 103 38v59q-34 14 -66 14q-45 0 -71.5 -16t-26.5 -45q0 -50 61 -50zM49 656q0 31 23.5 53.5t53.5 22.5q32 0 55.5 -22.5t23.5 -53.5q0 -32 -23 -53.5t-56 -21.5q-31 0 -54 21.5t-23 53.5zM272 656q0 31 23.5 53.5t54.5 22.5q32 0 55 -22.5t23 -53.5q0 -32 -23 -53.5 t-55 -21.5q-31 0 -54.5 22t-23.5 53z" />
<glyph unicode="&#xe5;" horiz-adv-x="533" d="M468 110q23 0 32 -10t9 -31l-6 -69h-169q-8 16 -12 32q-62 -41 -124 -41q-81 0 -127.5 41.5t-46.5 114.5t54.5 117t144.5 44q51 0 93 -15q-2 50 -17 70.5t-54 20.5q-26 0 -65 -9v-7q0 -41 -50 -41l-68 6v125q130 41 196 41q96 0 138 -47.5t42 -155.5v-186h30zM213 99 q51 0 103 38v59q-34 14 -66 14q-45 0 -71.5 -16t-26.5 -45q0 -50 61 -50zM104 694q0 56 40.5 95.5t97.5 39.5q58 0 99 -39.5t41 -95.5q0 -57 -40.5 -95.5t-99.5 -38.5q-58 0 -98 38.5t-40 95.5zM190 694q0 -22 15 -37t37 -15t37 15t15 37q0 21 -15.5 37.5t-36.5 16.5 t-36.5 -16.5t-15.5 -37.5z" />
<glyph unicode="&#xe6;" horiz-adv-x="764" d="M717 193h-279q21 -89 111 -89q30 0 56.5 9.5t72.5 38.5l57 -94q-101 -68 -196 -68q-114 0 -174 77q-76 -76 -167 -76q-81 0 -127.5 41.5t-46.5 114.5t54.5 117t144.5 44q51 0 93 -15q-2 50 -17 70.5t-54 20.5q-26 0 -65 -9v-7q0 -41 -50 -41l-68 6v125q130 41 196 41 q99 0 137 -58q50 59 142 59q94 0 144.5 -60t50.5 -145q0 -57 -15 -102zM213 99q57 0 112 46q-7 22 -10 51q-31 14 -65 14q-45 0 -71.5 -16t-26.5 -45q0 -50 61 -50zM534 388q-80 0 -97 -94h174q0 40 -20 67t-57 27z" />
<glyph unicode="&#xe7;" horiz-adv-x="497" d="M200 0q-80 19 -125.5 82t-45.5 159q0 106 69 182t180 76q86 0 171 -44v-135q-50 -5 -69 -5q-50 0 -50 41v25q-18 5 -47 5q-56 0 -91.5 -40.5t-35.5 -104.5q0 -67 37 -100t90 -33q33 0 60.5 10.5t76.5 42.5l52 -94q-98 -70 -181 -75l-5 -36q54 5 88 -18t34 -75 q0 -56 -36 -85.5t-90 -29.5q-52 0 -101 30q-5 27 -5 50t12.5 29t30.5 -5q29 -17 57 -17q36 0 36 27q0 25 -39 25q-25 0 -58 -10l-27 30z" />
<glyph unicode="&#xe8;" horiz-adv-x="488" d="M441 193h-279q20 -89 110 -89q31 0 57.5 9.5t72.5 38.5l57 -94q-101 -68 -196 -68q-104 0 -169 65.5t-65 184.5q0 113 61 186.5t171 73.5q94 0 144.5 -60t50.5 -145q0 -57 -15 -102zM258 388q-81 0 -97 -94h173q0 40 -19.5 67t-56.5 27zM144 755l236 -105q6 -31 6 -52 q0 -20 -10 -27.5t-25 -3.5l-242 80q-8 36 -8 75q0 26 13 34t30 -1z" />
<glyph unicode="&#xe9;" horiz-adv-x="488" d="M441 193h-279q20 -89 110 -89q31 0 57.5 9.5t72.5 38.5l57 -94q-101 -68 -196 -68q-104 0 -169 65.5t-65 184.5q0 113 61 186.5t171 73.5q94 0 144.5 -60t50.5 -145q0 -57 -15 -102zM258 388q-81 0 -97 -94h173q0 40 -19.5 67t-56.5 27zM115 650l236 105q17 9 30 1 t13 -34q0 -39 -8 -75l-242 -80q-35 -9 -35 31z" />
<glyph unicode="&#xea;" horiz-adv-x="488" d="M441 193h-279q20 -89 110 -89q31 0 57.5 9.5t72.5 38.5l57 -94q-101 -68 -196 -68q-104 0 -169 65.5t-65 184.5q0 113 61 186.5t171 73.5q94 0 144.5 -60t50.5 -145q0 -57 -15 -102zM258 388q-81 0 -97 -94h173q0 40 -19.5 67t-56.5 27zM86 643l163 125l163 -125 q4 -22 4 -48q0 -23 -13.5 -29.5t-30.5 3.5l-123 74l-124 -74q-17 -11 -30 -3.5t-13 29.5z" />
<glyph unicode="&#xeb;" horiz-adv-x="488" d="M441 193h-279q20 -89 110 -89q31 0 57.5 9.5t72.5 38.5l57 -94q-101 -68 -196 -68q-104 0 -169 65.5t-65 184.5q0 113 61 186.5t171 73.5q94 0 144.5 -60t50.5 -145q0 -57 -15 -102zM258 388q-81 0 -97 -94h173q0 40 -19.5 67t-56.5 27zM64 656q0 31 23.5 53.5t53.5 22.5 q32 0 55.5 -22.5t23.5 -53.5q0 -32 -23.5 -53.5t-55.5 -21.5q-31 0 -54 21.5t-23 53.5zM287 656q0 31 23.5 53.5t54.5 22.5q32 0 55 -22.5t23 -53.5q0 -32 -23 -53.5t-55 -21.5q-31 0 -54.5 21.5t-23.5 53.5z" />
<glyph unicode="&#xec;" horiz-adv-x="337" d="M232 490v-380h31q23 0 31.5 -10t8.5 -31l-6 -69h-252q-6 50 -6 69q0 21 9 31t32 10h30v270h-65q-6 50 -6 69q0 21 9 31t32 10h152zM32 755l237 -105q5 -31 5 -52q0 -40 -35 -31l-242 80q-8 36 -8 75q0 26 13 34t30 -1z" />
<glyph unicode="&#xed;" horiz-adv-x="337" d="M232 490v-380h31q23 0 31.5 -10t8.5 -31l-6 -69h-252q-6 50 -6 69q0 21 9 31t32 10h30v270h-65q-6 50 -6 69q0 21 9 31t32 10h152zM3 650l236 105q43 18 43 -33q0 -39 -8 -75l-242 -80q-15 -4 -25 3.5t-10 27.5z" />
<glyph unicode="&#xee;" horiz-adv-x="337" d="M232 490v-380h31q23 0 31.5 -10t8.5 -31l-6 -69h-252q-6 50 -6 69q0 21 9 31t32 10h30v270h-65q-6 50 -6 69q0 21 9 31t32 10h152zM-25 643l162 125l163 -125q4 -22 4 -48q0 -22 -13 -29.5t-30 3.5l-124 74l-123 -74q-17 -10 -30 -3.5t-13 29.5z" />
<glyph unicode="&#xef;" horiz-adv-x="337" d="M232 490v-380h31q23 0 31.5 -10t8.5 -31l-6 -69h-252q-6 50 -6 69q0 21 9 31t32 10h30v270h-65q-6 50 -6 69q0 21 9 31t32 10h152zM-48 656q0 31 23.5 53.5t53.5 22.5q32 0 55.5 -22.5t23.5 -53.5q0 -32 -23 -53.5t-56 -21.5q-31 0 -54 21.5t-23 53.5zM175 656 q0 31 23.5 53.5t54.5 22.5q32 0 55 -22.5t23 -53.5q0 -32 -23 -53.5t-55 -21.5q-31 0 -54.5 22t-23.5 53z" />
<glyph unicode="&#xf0;" horiz-adv-x="541" d="M176 513l-47 80l85 47l-58 60l74 74q37 -30 85 -76l94 53l48 -81l-80 -45q125 -157 125 -344q0 -147 -64.5 -218.5t-178.5 -71.5q-108 0 -169 70.5t-61 184.5q0 116 61 183t178 67q39 0 62 -15q-20 37 -57 85zM378 282q0 31 -6 66q-45 38 -98 38q-60 0 -90 -38.5 t-30 -100.5q0 -63 29.5 -102t79.5 -39q53 0 84 43.5t31 132.5z" />
<glyph unicode="&#xf1;" horiz-adv-x="664" d="M233 490v-63q91 72 179 72q83 0 120.5 -47.5t37.5 -151.5v-190h30q23 0 31.5 -10t8.5 -31l-6 -69h-252q-6 50 -6 69q0 21 9 31t32 10h31v189q0 45 -14 65t-44 20q-70 0 -157 -87v-187h30q23 0 31.5 -10t8.5 -31l-6 -69h-252q-6 50 -6 69q0 21 9 31t32 10h31v270h-65 q-6 50 -6 69q0 21 9 31t32 10h152zM269 622q-29 0 -57 -26q-14 -14 -31.5 -6t-17.5 33q0 13 2 27t4 20l2 6q52 46 99 46q38 0 79.5 -25t58.5 -25q26 0 55 27q13 14 31 6t18 -34q0 -12 -2 -25.5t-4 -20.5l-1 -7q-58 -46 -100 -46q-37 0 -78 25t-58 25z" />
<glyph unicode="&#xf2;" horiz-adv-x="544" d="M273 105q52 0 85 38.5t33 97.5q0 61 -32 103t-86 42t-86 -42t-32 -103q0 -59 33 -97.5t85 -38.5zM272 -9q-110 0 -176.5 69.5t-66.5 180.5q0 112 65.5 185t177.5 73t177 -73t65 -185q0 -111 -66.5 -180.5t-175.5 -69.5zM160 755l236 -105q6 -31 6 -52q0 -20 -10 -27.5 t-25 -3.5l-243 80q-7 36 -7 75q0 51 43 33z" />
<glyph unicode="&#xf3;" horiz-adv-x="544" d="M273 105q52 0 85 38.5t33 97.5q0 61 -32 103t-86 42t-86 -42t-32 -103q0 -59 33 -97.5t85 -38.5zM272 -9q-110 0 -176.5 69.5t-66.5 180.5q0 112 65.5 185t177.5 73t177 -73t65 -185q0 -111 -66.5 -180.5t-175.5 -69.5zM130 650l237 105q17 9 30 1t13 -34q0 -39 -8 -75 l-242 -80q-15 -4 -25.5 3.5t-10.5 27.5z" />
<glyph unicode="&#xf4;" horiz-adv-x="544" d="M273 105q52 0 85 38.5t33 97.5q0 61 -32 103t-86 42t-86 -42t-32 -103q0 -59 33 -97.5t85 -38.5zM272 -9q-110 0 -176.5 69.5t-66.5 180.5q0 112 65.5 185t177.5 73t177 -73t65 -185q0 -111 -66.5 -180.5t-175.5 -69.5zM102 643l163 125l162 -125q4 -22 4 -48 q0 -23 -13 -29.5t-30 3.5l-123 74l-124 -74q-17 -11 -30 -3.5t-13 29.5z" />
<glyph unicode="&#xf5;" horiz-adv-x="544" d="M273 105q52 0 85 38.5t33 97.5q0 61 -32 103t-86 42t-86 -42t-32 -103q0 -59 33 -97.5t85 -38.5zM272 -9q-110 0 -176.5 69.5t-66.5 180.5q0 112 65.5 185t177.5 73t177 -73t65 -185q0 -111 -66.5 -180.5t-175.5 -69.5zM200 622q-28 0 -57 -26q-13 -14 -31 -6t-18 33 q0 13 2 27t4 20l2 6q52 46 100 46q37 0 78.5 -25t58.5 -25q26 0 55 27q14 14 31.5 6t17.5 -34q0 -12 -1.5 -25.5t-3.5 -20.5l-2 -7q-56 -46 -100 -46q-37 0 -78 25t-58 25z" />
<glyph unicode="&#xf6;" horiz-adv-x="544" d="M273 105q52 0 85 38.5t33 97.5q0 61 -32 103t-86 42t-86 -42t-32 -103q0 -59 33 -97.5t85 -38.5zM272 -9q-110 0 -176.5 69.5t-66.5 180.5q0 112 65.5 185t177.5 73t177 -73t65 -185q0 -111 -66.5 -180.5t-175.5 -69.5zM79 656q0 31 23.5 53.5t54.5 22.5q32 0 55 -22.5 t23 -53.5q0 -32 -23 -53.5t-55 -21.5q-31 0 -54.5 22t-23.5 53zM303 656q0 31 23.5 53.5t53.5 22.5q32 0 55.5 -22.5t23.5 -53.5q0 -32 -23.5 -53.5t-55.5 -21.5q-31 0 -54 21.5t-23 53.5z" />
<glyph unicode="&#xf7;" d="M234 89q0 35 24.5 59t59.5 24t59.5 -24t24.5 -59q0 -34 -24.5 -58.5t-59.5 -24.5t-59.5 24.5t-24.5 58.5zM234 467q0 35 24.5 59.5t59.5 24.5t59.5 -24.5t24.5 -59.5q0 -34 -24.5 -58.5t-59.5 -24.5t-59.5 24.5t-24.5 58.5zM73 335h490v-112h-490v112z" />
<glyph unicode="&#xf8;" horiz-adv-x="544" d="M272 -9q-72 0 -126 31l-42 -47l-82 69l46 52q-39 62 -39 145q0 112 65.5 185t177.5 73q71 0 125 -32l44 49l82 -70l-48 -55q39 -63 39 -150q0 -111 -66.5 -180.5t-175.5 -69.5zM273 105q52 0 85 38.5t33 97.5q0 25 -6 49l-158 -176q21 -9 46 -9zM155 241q0 -19 5 -41 l158 177q-21 9 -45 9q-54 0 -86 -42t-32 -103z" />
<glyph unicode="&#xf9;" horiz-adv-x="636" d="M379 490h152v-380h30q23 0 32 -10t9 -31l-6 -69h-187v48q-74 -57 -154 -57q-159 0 -159 199v190h-64q-6 50 -6 69q0 21 9 31t32 10h152v-299q0 -46 15 -65.5t52 -19.5q57 0 123 69v205h-64q-6 50 -6 69q0 21 8.5 31t31.5 10zM178 755l237 -105q5 -31 5 -52q0 -40 -35 -31 l-242 80q-8 36 -8 75q0 26 13 34t30 -1z" />
<glyph unicode="&#xfa;" horiz-adv-x="636" d="M379 490h152v-380h30q23 0 32 -10t9 -31l-6 -69h-187v48q-74 -57 -154 -57q-159 0 -159 199v190h-64q-6 50 -6 69q0 21 9 31t32 10h152v-299q0 -46 15 -65.5t52 -19.5q57 0 123 69v205h-64q-6 50 -6 69q0 21 8.5 31t31.5 10zM149 650l236 105q43 18 43 -33q0 -39 -8 -75 l-242 -80q-15 -4 -25 3.5t-10 27.5z" />
<glyph unicode="&#xfb;" horiz-adv-x="636" d="M379 490h152v-380h30q23 0 32 -10t9 -31l-6 -69h-187v48q-74 -57 -154 -57q-159 0 -159 199v190h-64q-6 50 -6 69q0 21 9 31t32 10h152v-299q0 -46 15 -65.5t52 -19.5q57 0 123 69v205h-64q-6 50 -6 69q0 21 8.5 31t31.5 10zM121 643l162 125l163 -125q4 -22 4 -48 q0 -22 -13 -29.5t-30 3.5l-124 74l-123 -74q-17 -10 -30 -3.5t-13 29.5z" />
<glyph unicode="&#xfc;" horiz-adv-x="636" d="M379 490h152v-380h30q23 0 32 -10t9 -31l-6 -69h-187v48q-74 -57 -154 -57q-159 0 -159 199v190h-64q-6 50 -6 69q0 21 9 31t32 10h152v-299q0 -46 15 -65.5t52 -19.5q57 0 123 69v205h-64q-6 50 -6 69q0 21 8.5 31t31.5 10zM98 656q0 31 23.5 53.5t53.5 22.5 q32 0 55.5 -22.5t23.5 -53.5q0 -32 -23 -53.5t-56 -21.5q-31 0 -54 21.5t-23 53.5zM321 656q0 31 23.5 53.5t54.5 22.5q32 0 55 -22.5t23 -53.5q0 -32 -23 -53.5t-55 -21.5q-31 0 -54.5 22t-23.5 53z" />
<glyph unicode="&#xfd;" horiz-adv-x="584" d="M533 490q23 0 32 -10t9 -31l-6 -69h-60l-207 -509q-47 -116 -171 -116q-55 0 -109 20v154q50 6 68 6q50 0 50 -41v-32q41 0 57 40l35 93l-158 385h-57q-6 50 -6 69q0 21 9 31t32 10h172q23 0 32 -10t9 -31l-6 -69h-49l85 -221l85 221h-53q-6 50 -6 69q0 21 9 31t32 10 h172zM143 650l236 105q43 18 43 -33q0 -39 -7 -75l-243 -80q-15 -4 -25 3.5t-10 27.5z" />
<glyph unicode="&#xfe;" horiz-adv-x="585" d="M201 755v-308q68 52 144 52q93 0 149.5 -59t56.5 -173q0 -137 -73.5 -208.5t-192.5 -71.5q-45 0 -84 10v-132h69q23 0 32 -10t9 -31l-6 -69h-291q-6 50 -6 69q0 21 9 31t32 10h29v780h-64q-6 50 -6 68q0 22 8.5 32t32.5 10h152zM323 380q-67 0 -122 -65v-197 q34 -14 75 -14q66 0 105 40.5t39 122.5q0 113 -97 113z" />
<glyph unicode="&#xff;" horiz-adv-x="584" d="M533 490q23 0 32 -10t9 -31l-6 -69h-60l-207 -509q-47 -116 -171 -116q-55 0 -109 20v154q50 6 68 6q50 0 50 -41v-32q41 0 57 40l35 93l-158 385h-57q-6 50 -6 69q0 21 9 31t32 10h172q23 0 32 -10t9 -31l-6 -69h-49l85 -221l85 221h-53q-6 50 -6 69q0 21 9 31t32 10 h172zM92 656q0 31 23.5 53.5t54.5 22.5q32 0 55 -22.5t23 -53.5q0 -32 -23 -53.5t-55 -21.5q-31 0 -54.5 21.5t-23.5 53.5zM316 656q0 31 23.5 53.5t53.5 22.5q32 0 55 -22.5t23 -53.5q0 -32 -23 -53.5t-55 -21.5q-31 0 -54 21.5t-23 53.5z" />
<glyph unicode="&#x152;" horiz-adv-x="1120" d="M1058 720v-181q-52 -6 -71 -6q-52 0 -52 43v29h-281q59 -76 76 -171h223v-116h-218q-11 -121 -78 -202h296v28q0 43 51 43l72 -6v-181h-684q-165 0 -261.5 96.5t-96.5 257.5q0 162 96 264t265 102h663zM386 118q98 0 162 65t64 170q0 108 -61.5 180t-164.5 72 q-102 0 -162.5 -72t-60.5 -180q0 -105 62.5 -170t160.5 -65z" />
<glyph unicode="&#x153;" horiz-adv-x="842" d="M272 -9q-110 0 -176.5 69.5t-66.5 180.5q0 112 65.5 185t177.5 73q107 0 174 -70q64 71 168 71q95 0 145 -60t50 -145q0 -60 -14 -102h-280q21 -89 111 -89q30 0 57 9.5t73 38.5l56 -94q-99 -68 -196 -68q-105 0 -170 68q-67 -67 -174 -67zM273 105q52 0 85 38.5t33 97.5 q0 61 -32 103t-86 42t-86 -42t-32 -103q0 -59 33 -97.5t85 -38.5zM612 388q-81 0 -98 -94h174q0 40 -20 67t-56 27z" />
<glyph unicode="&#x178;" horiz-adv-x="701" d="M690 607h-69l-207 -316v-177h53q24 0 33 -10t9 -31l-6 -73h-311q-6 54 -6 73q0 21 9 31t32 10h55v174l-208 319h-63q-6 54 -6 72q0 22 8.5 31.5t32.5 9.5h201q24 0 32.5 -9.5t8.5 -31.5l-6 -72h-58l125 -196l126 196h-57q-5 54 -5 72q0 22 8.5 31.5t32.5 9.5h201 q24 0 32.5 -9.5t8.5 -31.5zM157 857q0 32 23 54.5t54 22.5q32 0 55.5 -22.5t23.5 -54.5q0 -31 -23.5 -52.5t-55.5 -21.5q-31 0 -54 21.5t-23 52.5zM380 857q0 32 23.5 54.5t54.5 22.5q32 0 55 -22.5t23 -54.5q0 -31 -23 -52.5t-55 -21.5q-31 0 -54.5 21.5t-23.5 52.5z" />
<glyph unicode="&#x2c6;" horiz-adv-x="390" d="M24 643l163 125l163 -125q4 -22 4 -48q0 -22 -13 -29.5t-30 3.5l-124 74l-123 -74q-17 -10 -30 -3.5t-13 29.5z" />
<glyph unicode="&#x2dc;" horiz-adv-x="406" d="M126 622q-28 0 -56 -26q-14 -14 -31.5 -6t-17.5 33q0 13 1 27q2 14 4 20l2 6q54 46 100 46q38 0 79 -25t59 -25q27 0 54 27q14 14 31.5 6t17.5 -34l-6 -53q-58 -46 -100 -46q-37 0 -78 25t-59 25z" />
<glyph unicode="&#x2000;" horiz-adv-x="515" />
<glyph unicode="&#x2001;" horiz-adv-x="1031" />
<glyph unicode="&#x2002;" horiz-adv-x="515" />
<glyph unicode="&#x2003;" horiz-adv-x="1031" />
<glyph unicode="&#x2004;" horiz-adv-x="343" />
<glyph unicode="&#x2005;" horiz-adv-x="257" />
<glyph unicode="&#x2006;" horiz-adv-x="171" />
<glyph unicode="&#x2007;" horiz-adv-x="171" />
<glyph unicode="&#x2008;" horiz-adv-x="128" />
<glyph unicode="&#x2009;" horiz-adv-x="206" />
<glyph unicode="&#x200a;" horiz-adv-x="57" />
<glyph unicode="&#x2010;" horiz-adv-x="401" d="M44 344h313v-120h-313v120z" />
<glyph unicode="&#x2011;" horiz-adv-x="401" d="M44 344h313v-120h-313v120z" />
<glyph unicode="&#x2013;" horiz-adv-x="499" d="M-5 328h509v-97h-509v97z" />
<glyph unicode="&#x2014;" horiz-adv-x="1007" d="M-5 328h1017v-97h-1017v97z" />
<glyph unicode="&#x2018;" horiz-adv-x="209" d="M108 734l6 6q23 25 50 -5q16 -20 25 -41q-44 -63 -44 -127v-59h-121v95q14 40 31.5 68t52.5 63z" />
<glyph unicode="&#x2019;" horiz-adv-x="209" d="M101 528l-6 -6q-24 -22 -50 5q-17 20 -25 41q24 35 34 62.5t10 64.5v60h120v-95q-13 -40 -30.5 -68.5t-52.5 -63.5z" />
<glyph unicode="&#x201a;" horiz-adv-x="209" d="M101 -226l-6 -6q-24 -24 -50 5q-17 19 -25 41q44 63 44 126v60h120v-95q-13 -40 -30.5 -68t-52.5 -63z" />
<glyph unicode="&#x201c;" horiz-adv-x="391" d="M290 749l6 6q24 22 50 -5q17 -20 25 -41q-24 -35 -34 -62.5t-10 -64.5v-60h-120v95q13 40 30.5 68.5t52.5 63.5zM108 749l6 6q23 23 50 -5q16 -20 25 -41q-24 -35 -34 -62.5t-10 -64.5v-60h-121v95q14 41 31.5 69t52.5 63z" />
<glyph unicode="&#x201d;" horiz-adv-x="391" d="M101 528l-6 -6q-24 -22 -50 5q-17 20 -25 41q24 35 34 62.5t10 64.5v60h120v-95q-13 -40 -30.5 -68.5t-52.5 -63.5zM283 528l-6 -6q-23 -23 -50 5q-16 20 -25 41q24 35 34 62.5t10 64.5v60h121v-95q-14 -41 -31.5 -69t-52.5 -63z" />
<glyph unicode="&#x201e;" horiz-adv-x="396" d="M101 -226l-6 -6q-24 -24 -50 5q-17 19 -25 41q44 63 44 126v60h120v-95q-13 -40 -30.5 -68t-52.5 -63zM283 -226l-6 -6q-23 -25 -50 5q-16 19 -25 41q44 63 44 126v60h121v-95q-14 -40 -31.5 -68t-52.5 -63z" />
<glyph unicode="&#x2022;" horiz-adv-x="339" d="M34 311q0 56 40 95t95 39q56 0 96 -39t40 -95t-40 -95.5t-96 -39.5q-55 0 -95 39.5t-40 95.5z" />
<glyph unicode="&#x2026;" horiz-adv-x="1007" d="M81 71q0 35 25 59t59 24q35 0 59.5 -24t24.5 -59t-24.5 -59.5t-59.5 -24.5q-34 0 -59 24.5t-25 59.5zM420 71q0 35 25 59t59 24q35 0 59.5 -24t24.5 -59t-24.5 -59.5t-59.5 -24.5q-34 0 -59 24.5t-25 59.5zM759 71q0 35 25 59t59 24q35 0 59.5 -24t24.5 -59t-24.5 -59.5 t-59.5 -24.5q-34 0 -59 24.5t-25 59.5z" />
<glyph unicode="&#x202f;" horiz-adv-x="206" />
<glyph unicode="&#x2039;" horiz-adv-x="349" d="M180 248l129 -166q9 -13 10 -25.5t-12 -22.5t-41 -10q-32 0 -56 6l-205 218l205 217q24 6 56 6q28 0 41 -9.5t12 -22t-10 -25.5z" />
<glyph unicode="&#x203a;" horiz-adv-x="349" d="M40 82l129 166l-129 166q-9 13 -10 25.5t12 22t41 9.5q32 0 56 -6l205 -217l-205 -218q-24 -6 -56 -6q-28 0 -41 10t-12 22.5t10 25.5z" />
<glyph unicode="&#x205f;" horiz-adv-x="257" />
<glyph unicode="&#x20ac;" d="M17 324h62v55h-62v90h73q25 121 104.5 190.5t209.5 69.5q89 0 187 -42v-153q-50 -6 -69 -6q-50 0 -50 41v43q-42 6 -68 6q-70 0 -117.5 -39t-67.5 -110h249l-20 -90h-244v-55h234l-21 -91h-198q38 -129 178 -129q72 0 171 59l52 -98q-111 -76 -228 -76q-253 0 -302 244 h-73v91z" />
<glyph unicode="&#x2122;" horiz-adv-x="994" d="M634 384h-176q-5 44 -5 58q0 18 7 26t25 8h17v187h-44q-5 45 -5 58q0 34 32 34h147l85 -196l84 196h146q32 0 32 -34q0 -28 -5 -58h-45v-187h17q18 0 25 -8t7 -26q0 -28 -5 -58h-175q-5 44 -5 58q0 18 7 26t26 8h4v24q0 9 9 126q-11 -37 -46 -114l-59 -128h-36l-58 128 q-15 32 -48 114q10 -80 10 -126v-24h4q33 0 33 -34q0 -28 -5 -58zM15 618v137h396v-137q-42 -8 -60 -8q-38 0 -38 33v19h-50v-186h15q19 0 26.5 -8t7.5 -26q0 -28 -5 -58h-188q-5 44 -5 58q0 18 7 26t25 8h18v186h-51v-19q0 -33 -39 -33q-23 0 -59 8z" />
</font>
</defs>
</svg>
