<?xml version="1.0" standalone="no"?>
<!DOCTYPE svg PUBLIC "-//W3C//DTD SVG 1.1//EN" "http://www.w3.org/Graphics/SVG/1.1/DTD/svg11.dtd" >
<svg xmlns="http://www.w3.org/2000/svg">
<metadata>
This is a custom SVG webfont generated by Fontspring.
Designer    : Ben Jones
Foundry     : Ben Jones
</metadata>
<defs>
<font id="webfont" horiz-adv-x="637" >
<font-face units-per-em="1000" ascent="755" descent="-245" />
<missing-glyph horiz-adv-x="372" />
<glyph unicode=" "  horiz-adv-x="372" />
<glyph unicode="&#x09;" horiz-adv-x="372" />
<glyph unicode="&#xa0;" horiz-adv-x="372" />
<glyph unicode="!" horiz-adv-x="247" d="M111 165l-9 593q18 3 31 3t13 -12l-10 -589q-9 -2 -16 -2q-9 0 -9 7zM81 29q0 17 12 29t29 12t29 -12t12 -29q0 -16 -12 -27.5t-29 -11.5t-29 11.5t-12 27.5z" />
<glyph unicode="&#x22;" horiz-adv-x="270" d="M98 728l-29 -211q-10 -3 -18 -3q-7 0 -7 5v211q26 8 41 8q8 0 11 -2.5t2 -7.5zM225 728l-29 -211q-10 -3 -18 -3q-7 0 -7 5v211q26 8 42 8q7 0 10 -2.5t2 -7.5z" />
<glyph unicode="#" d="M55 253h116l38 212h-113v33h118l39 222h32l-39 -222h191l39 222h33l-40 -222h112v-33h-116l-38 -212h113v-33h-119l-38 -220h-32l38 220h-191l-38 -220h-33l39 220h-111v33zM241 465l-37 -212h191l37 212h-191z" />
<glyph unicode="$" d="M302 -92v82q-114 1 -223 35v125q13 2 23 2t10 -10v-92q100 -28 190 -28v341q-43 15 -66.5 24t-58 27t-52 36t-31 46t-13.5 62q0 76 55 121.5t166 49.5v77h32v-76q96 -1 185 -38v-122q-12 -2 -22 -2t-10 10v90q-68 28 -153 31v-314q41 -14 67 -24.5t59 -28.5t52 -37.5 t32.5 -49t13.5 -65.5q0 -178 -224 -189v-83h-32zM522 179q0 36 -14.5 63.5t-44 48t-58 33.5t-71.5 28v-330q188 11 188 157zM117 558q0 -61 47 -95t138 -66v301q-185 -8 -185 -140z" />
<glyph unicode="%" horiz-adv-x="857" d="M154 0l516 742l26 -19l-517 -742zM190 325q60 0 100.5 49.5t40.5 131.5q0 88 -39.5 140t-101.5 52q-63 0 -104 -52t-41 -140q0 -82 42 -131.5t103 -49.5zM190 293q-79 0 -129.5 57t-50.5 156q0 101 50.5 162.5t129.5 61.5q77 0 127 -61.5t50 -162.5q0 -98 -50 -155.5 t-127 -57.5zM670 23q60 0 100.5 49t40.5 131q0 89 -39 140.5t-102 51.5t-104 -52t-41 -140q0 -82 42 -131t103 -49zM670 -10q-79 0 -129.5 57.5t-50.5 155.5q0 101 50.5 162.5t129.5 61.5q77 0 127 -61.5t50 -162.5q0 -98 -50 -155.5t-127 -57.5z" />
<glyph unicode="&#x26;" horiz-adv-x="828" d="M744 490q7 0 7 -7l-1 -20h-77q-1 -107 -38.5 -202.5t-102.5 -161.5l4 -4q57 -72 131 -72q41 0 89 23l13 -27q-55 -29 -102 -29q-88 0 -156 84l-2 2q-101 -86 -227 -86q-104 0 -163.5 51t-59.5 140q0 35 11.5 66t26.5 51.5t43 43t48 34.5l55 32l-45 56q-50 63 -50 126 q0 61 43 102t111 41q67 0 106.5 -38t39.5 -98q0 -69 -40 -112.5t-115 -86.5l220 -274q58 62 91 151t35 188h-77q-1 13 -1 20t6 7h177zM282 23q118 0 206 79l-224 280q-41 -23 -64 -38t-51 -40t-41 -55.5t-13 -67.5q0 -75 51 -116.5t136 -41.5zM185 590q0 -57 49 -119l38 -48 q68 38 104.5 76.5t36.5 96.5q0 45 -30.5 74.5t-80.5 29.5q-51 0 -84 -30.5t-33 -79.5z" />
<glyph unicode="'" horiz-adv-x="143" d="M98 728l-29 -211q-10 -3 -18 -3q-7 0 -7 5v211q26 8 41 8q8 0 11 -2.5t2 -7.5z" />
<glyph unicode="(" horiz-adv-x="267" d="M49 277q0 163 46 276.5t148 247.5l24 -19q-98 -129 -141 -243.5t-43 -261.5t43 -261.5t141 -242.5l-24 -19q-100 127 -147 243.5t-47 279.5z" />
<glyph unicode=")" horiz-adv-x="267" d="M218 277q0 -163 -47 -279.5t-147 -243.5l-24 19q97 128 140 242.5t43 261.5t-43 261.5t-140 243.5l24 19q102 -134 148 -247.5t46 -276.5z" />
<glyph unicode="*" horiz-adv-x="440" d="M68 548l126 60l-130 47q-6 3 -2 11l16 27l131 -67l-7 146q18 5 31 6q10 0 10 -7l-12 -142l121 78q14 -14 20 -25q5 -9 0 -12l-126 -59l130 -48q6 -1 2 -10l-17 -27l-130 66l7 -144q-19 -5 -32 -6q-9 0 -9 7l11 140l-119 -76q-15 14 -21 24q-6 8 0 11z" />
<glyph unicode="+" d="M301 520h34v-221h230v-32h-230v-222h-34v222h-230v32h230v221z" />
<glyph unicode="," horiz-adv-x="199" d="M140 56q0 -45 -13.5 -79.5t-48.5 -72.5l-19 17q21 29 26.5 53.5t5.5 77.5q0 9 10 9z" />
<glyph unicode="-" horiz-adv-x="411" d="M49 324h313v-34h-313v34z" />
<glyph unicode="." horiz-adv-x="199" d="M59 29q0 17 11.5 29t28.5 12t29 -12t12 -29q0 -16 -12 -27.5t-29 -11.5q-16 0 -28 11.5t-12 27.5z" />
<glyph unicode="/" horiz-adv-x="392" d="M28 -29l311 815l30 -11l-308 -815z" />
<glyph unicode="0" d="M318 23q107 0 173 86t66 246q0 161 -64.5 252t-174.5 91t-174.5 -91t-64.5 -252q0 -160 66 -246t173 -86zM318 -10q-123 0 -198 96t-75 269q0 175 73 275t200 100q128 0 201 -100t73 -275q0 -173 -75 -269t-199 -96z" />
<glyph unicode="1" d="M338 27h120q7 0 7 -6l-1 -21h-287q-1 14 -1 21q0 6 7 6h120v668l-118 -58q-7 10 -10 17q-5 9 2 13l123 63h38v-703z" />
<glyph unicode="2" d="M111 30h429v100q0 10 10 10l22 -2v-138h-505q-2 17 -2 24t4 11l254 236q121 112 160.5 173.5t39.5 117.5q0 137 -199 137q-96 0 -190 -39v-71q0 -10 -10 -10l-23 2v102q120 47 223 47q119 0 177.5 -44t58.5 -124q0 -65 -40.5 -129t-171.5 -184z" />
<glyph unicode="3" d="M293 22q104 0 166.5 44.5t62.5 133.5q0 79 -62.5 120t-171.5 41h-30v32h56q79 0 138 43.5t59 118.5q0 72 -53.5 108t-150.5 36q-94 0 -179 -39v-71q0 -10 -9 -10l-24 2v102q116 47 212 47q238 0 238 -175q0 -63 -39.5 -109.5t-109.5 -69.5q72 -14 116 -61.5t44 -114.5 q0 -102 -70.5 -156t-192.5 -54q-99 0 -212 47v102q14 2 24 2t10 -10v-70q76 -39 178 -39z" />
<glyph unicode="4" d="M89 223h332v465zM51 227l360 502h46v-506h125q8 0 8 -7l-1 -23h-132v-166h70q7 0 7 -6l-1 -21h-208q-1 14 -1 21q0 6 7 6h90v166h-372q-2 16 -2 23q0 6 4 11z" />
<glyph unicode="5" d="M288 23q102 0 168.5 56t66.5 159q0 98 -56.5 145.5t-145.5 47.5q-86 0 -180 -45l-25 19l42 307q2 8 10 8h356q8 0 8 -8l-1 -22h-344l-36 -265q85 40 172 40q106 0 171.5 -57t65.5 -170q0 -116 -75 -182t-197 -66q-92 0 -212 50v102q14 2 24 2t10 -10v-70q87 -41 178 -41z " />
<glyph unicode="6" d="M392 699q-128 0 -201.5 -88.5t-83.5 -249.5q48 41 109 67t123 26q105 0 166 -62.5t61 -165.5q0 -102 -66 -169t-175 -67t-181.5 82.5t-72.5 240.5q0 198 83.5 307.5t237.5 109.5q66 0 132 -23v-102q-13 -2 -23 -2t-10 9v71q-37 16 -99 16zM339 421q-127 0 -233 -103v-5 q0 -140 63 -215t159 -75q89 0 146 55.5t57 145.5q0 91 -53.5 144t-138.5 53z" />
<glyph unicode="7" d="M514 690h-395v-71q0 -9 -10 -9l-23 2v108h456q9 0 9 -9l-2 -27q-160 -169 -228 -314t-68 -343v-27h-35v27q0 138 35 253.5t96.5 209t164.5 200.5z" />
<glyph unicode="8" d="M318 729q96 0 153 -45.5t57 -117.5q0 -67 -44 -107t-126 -75q48 -19 77.5 -34.5t62.5 -40.5t49 -58.5t16 -76.5q0 -80 -67.5 -132t-177.5 -52q-109 0 -177 52t-68 132q0 43 16 76.5t49.5 58.5t62.5 40.5t77 34.5q-81 34 -125 74.5t-44 107.5q0 72 57 117.5t152 45.5z M530 174q0 27 -7.5 49.5t-25 41t-32.5 31t-45.5 27.5t-48 22.5t-53.5 21.5l-53.5 -22t-47 -22t-45.5 -27.5t-32.5 -31t-25 -41t-7.5 -49.5q0 -70 60 -110.5t151 -40.5q92 0 152 40.5t60 110.5zM144 566q0 -60 44.5 -96t129.5 -70q86 34 130.5 70t44.5 96q0 57 -47.5 94 t-127.5 37t-127 -37t-47 -94z" />
<glyph unicode="9" d="M274 22q109 0 177.5 84t77.5 245q-103 -84 -221 -84q-106 0 -171.5 63t-65.5 164q0 102 68 169t177 67t179.5 -83.5t70.5 -244.5q0 -200 -78 -306t-214 -106q-57 0 -132 21v102q14 2 24 2q9 0 9 -10v-71q47 -12 99 -12zM308 299q120 0 223 94v9q0 145 -61.5 220.5 t-156.5 75.5q-90 0 -148.5 -56t-58.5 -146t58 -143.5t144 -53.5z" />
<glyph unicode=":" horiz-adv-x="199" d="M59 85q0 17 11.5 28.5t28.5 11.5t29 -11.5t12 -28.5q0 -16 -12 -27.5t-29 -11.5q-16 0 -28 11.5t-12 27.5zM59 402q0 16 11.5 28t28.5 12t29 -11.5t12 -28.5q0 -16 -12 -27.5t-29 -11.5t-28.5 11.5t-11.5 27.5z" />
<glyph unicode=";" horiz-adv-x="219" d="M140 56q0 -45 -13.5 -79.5t-48.5 -72.5l-19 17q21 29 26.5 53.5t5.5 77.5q0 9 10 9zM78 392q0 17 12 28.5t29 11.5t29 -11.5t12 -28.5q0 -16 -12 -27.5t-29 -11.5t-29 11.5t-12 27.5z" />
<glyph unicode="&#x3c;" d="M87 251v32l463 236v-37l-424 -214l424 -217v-36z" />
<glyph unicode="=" d="M75 387h486v-32h-486v32zM75 201h486v-32h-486v32z" />
<glyph unicode="&#x3e;" d="M550 283v-32l-463 -236v36l424 217l-424 214v37z" />
<glyph unicode="?" horiz-adv-x="498" d="M454 585q0 -47 -22 -84t-53.5 -63.5l-63 -53.5t-53.5 -69.5t-22 -96.5v-60q0 -7 -10 -7l-26 3v58q0 60 22 106.5t53 75.5t62.5 55t53.5 60t22 76q0 56 -42 87.5t-126 31.5q-91 0 -172 -35v-71q0 -10 -9 -10l-24 2v102q113 43 205 43q100 0 152.5 -40.5t52.5 -109.5z M184 29q0 17 12 29t28 12q17 0 29.5 -12t12.5 -29q0 -16 -12.5 -27.5t-29.5 -11.5q-16 0 -28 11.5t-12 27.5z" />
<glyph unicode="@" horiz-adv-x="988" d="M722 0h-43v107q-39 -52 -95 -84.5t-124 -32.5q-90 0 -152 58t-62 176q0 126 79 201t199 75q94 0 190 -39v-434h8q74 0 123 67t49 191q0 157 -108.5 259t-276.5 102q-178 0 -297.5 -116.5t-119.5 -295.5t112 -287.5t299 -108.5q99 0 177 28l11 -29q-81 -30 -188 -30 q-200 0 -322.5 113.5t-122.5 313.5q0 195 129 318.5t322 123.5q184 0 302 -109.5t118 -281.5q0 -129 -55 -207t-152 -78zM460 23q126 0 219 134v281q-77 29 -151 29q-110 0 -178 -65t-68 -175q0 -106 52.5 -155t125.5 -49z" />
<glyph unicode="A" horiz-adv-x="786" d="M646 27l-85 220h-336l-85 -220h84q7 0 7 -6l-1 -21h-209q-1 14 -1 21q0 6 6 6h76l259 666h-108q-1 14 -1 20q0 7 7 7h157l268 -693h75q7 0 7 -6l-1 -21h-209q-1 14 -1 21q0 6 7 6h84zM394 682l-156 -403h311z" />
<glyph unicode="B" horiz-adv-x="731" d="M116 720h259q248 0 248 -171q0 -62 -37 -104t-100 -58q191 -29 191 -183q0 -204 -312 -204h-255q-1 14 -1 21q0 6 7 6h80v666h-86q-1 14 -1 20q0 7 7 7zM371 367h-139v-336h133q141 0 208.5 41.5t67.5 130.5q0 164 -270 164zM375 689h-143v-290h138q110 0 163.5 44 t53.5 106q0 140 -212 140z" />
<glyph unicode="C" horiz-adv-x="724" d="M447 23q97 0 191 35v90q0 10 10 10l22 -2v-122q-122 -44 -224 -44q-169 0 -263.5 98.5t-94.5 265.5q0 168 97.5 271.5t269.5 103.5q104 0 206 -35v-112q-13 -2 -23 -2t-10 10v78q-77 29 -173 29q-157 0 -244 -96t-87 -247t85 -241t238 -90z" />
<glyph unicode="D" horiz-adv-x="860" d="M116 720h219q123 0 210.5 -27t135.5 -77.5t69.5 -112.5t21.5 -141q0 -170 -108 -266t-329 -96h-225q-1 14 -1 21q0 6 7 6h80v666h-86q-1 14 -1 20q0 7 7 7zM335 689h-102v-658h102q202 0 301.5 88t99.5 243q0 73 -19 129t-63 102.5t-124.5 71t-194.5 24.5z" />
<glyph unicode="E" horiz-adv-x="712" d="M646 720v-119q-13 -2 -23 -2t-10 10v80h-381v-296h283v-31h-283v-331h394v91q0 9 10 9l23 -2v-129h-549q-1 14 -1 21q0 6 7 6h80v666h-86q-1 14 -1 20q0 7 7 7h530z" />
<glyph unicode="F" horiz-adv-x="691" d="M348 0h-238q-1 14 -1 21q0 6 7 6h80v666h-86q-1 14 -1 20q0 7 7 7h521v-119q-13 -2 -23 -2q-9 0 -9 10v80h-373v-335h283v-32h-283v-295h110q7 0 7 -6z" />
<glyph unicode="G" horiz-adv-x="759" d="M638 276h-171q-1 16 -1 24t8 8h196v-272q-116 -46 -224 -46q-169 0 -263.5 98.5t-94.5 265.5q0 168 97.5 271.5t269.5 103.5q104 0 206 -35v-112q-13 -2 -23 -2t-10 10v78q-77 29 -173 29q-157 0 -244 -96t-87 -247t85 -241t238 -90q97 0 191 35v218z" />
<glyph unicode="H" horiz-adv-x="921" d="M806 720q6 0 6 -7l-1 -20h-86v-666h81q6 0 6 -6l-1 -21h-208q-1 14 -1 21q0 6 7 6h80v333h-457v-333h81q6 0 6 -6l-1 -21h-208q-1 14 -1 21q0 6 7 6h80v666h-86q-1 14 -1 20q0 7 7 7h197q6 0 6 -7l-1 -20h-86v-302h457v302h-86q-1 14 -1 20q0 7 7 7h197z" />
<glyph unicode="I" horiz-adv-x="428" d="M313 720q6 0 6 -7l-1 -20h-86v-666h81q6 0 6 -6l-1 -21h-208q-1 14 -1 21q0 6 7 6h80v666h-86q-1 14 -1 20q0 7 7 7h197z" />
<glyph unicode="J" horiz-adv-x="506" d="M163 24q66 0 108 40.5t42 128.5v500h-126q-1 14 -1 20q0 7 7 7h236q7 0 7 -7l-1 -20h-86v-500q0 -102 -49 -152.5t-137 -50.5q-56 0 -114 22v103q14 2 24 2q9 0 9 -10v-70q38 -13 81 -13z" />
<glyph unicode="K" horiz-adv-x="808" d="M313 720q6 0 6 -7l-1 -20h-86v-377l386 377h-93q-1 14 -1 20q0 7 7 7h210q7 0 7 -7l-1 -20h-82l-289 -283l329 -383h77q7 0 7 -6l-1 -21h-218q-1 14 -1 21q0 6 7 6h82l-307 358l-119 -116v-242h81q6 0 6 -6l-1 -21h-208q-1 14 -1 21q0 6 7 6h80v666h-86q-1 14 -1 20 q0 7 7 7h197z" />
<glyph unicode="L" horiz-adv-x="710" d="M232 693v-662h426v100q0 10 9 10l23 -2v-139h-580q-1 14 -1 21q0 6 7 6h80v666h-86q-1 14 -1 20q0 7 7 7h197q6 0 6 -7l-1 -20h-86z" />
<glyph unicode="M" horiz-adv-x="1174" d="M605 0h-36l-337 685v-658h81q6 0 6 -6l-1 -21h-208q-1 14 -1 21q0 6 7 6h80v666h-86q-1 14 -1 20q0 7 7 7h138l334 -677l333 677h137q7 0 7 -7l-1 -20h-86v-666h80q7 0 7 -6l-1 -21h-208q-1 14 -1 21q0 6 6 6h81v658z" />
<glyph unicode="N" horiz-adv-x="901" d="M806 720q6 0 6 -7l-1 -20h-86v-693h-42l-451 668v-641h81q6 0 6 -6l-1 -21h-208q-1 14 -1 21q0 6 7 6h80v666h-86q-1 14 -1 20q0 7 7 7h123l450 -664v637h-86q-1 14 -1 20q0 7 7 7h197z" />
<glyph unicode="O" horiz-adv-x="872" d="M436 23q136 0 224 90.5t88 236.5q0 150 -84 248.5t-228 98.5t-228 -98.5t-84 -248.5q0 -146 88 -236.5t224 -90.5zM436 729q159 0 253.5 -107t94.5 -272q0 -158 -96 -259t-252 -101t-252 101t-96 259q0 164 94.5 271.5t253.5 107.5z" />
<glyph unicode="P" horiz-adv-x="744" d="M116 720h261q133 0 201 -59t68 -166q0 -110 -69 -177.5t-199 -67.5q-73 0 -146 19v-242h110q7 0 7 -6l-1 -21h-238q-1 14 -1 21q0 6 7 6h80v666h-86q-1 14 -1 20q0 7 7 7zM375 689h-143v-385q70 -21 146 -21q112 0 171.5 58t59.5 154q0 93 -58.5 143.5t-175.5 50.5z" />
<glyph unicode="Q" horiz-adv-x="872" d="M436 729q159 0 253.5 -107t94.5 -272q0 -139 -76 -235.5t-204 -118.5q48 -121 159 -121q36 0 64 12v72q0 10 10 10l23 -2v-103q-54 -22 -100 -22q-67 0 -119.5 39.5t-73.5 109.5q-9 -1 -31 -1q-156 0 -252 101t-96 259q0 164 94.5 271.5t253.5 107.5zM436 23 q136 0 224 90.5t88 236.5q0 150 -84 248.5t-228 98.5t-228 -98.5t-84 -248.5q0 -146 88 -236.5t224 -90.5z" />
<glyph unicode="R" horiz-adv-x="746" d="M232 332v-305h81q6 0 6 -6l-1 -21h-208q-1 14 -1 21q0 6 7 6h80v666h-86q-1 14 -1 20q0 7 7 7h242q248 0 248 -187q0 -83 -54 -134.5t-148 -62.5q56 -19 91.5 -63.5t68.5 -134.5l42 -111h64q7 0 7 -6l-1 -21h-98l-47 127q-44 119 -104 162t-169 43h-26zM356 689h-124 v-325h125q106 0 160 48t54 121q0 156 -215 156z" />
<glyph unicode="S" horiz-adv-x="713" d="M555 578v90q-27 12 -80 21.5t-103 9.5q-114 0 -170.5 -34.5t-56.5 -97.5q0 -47 35 -82.5t87 -55.5l113 -44t113 -47.5t87 -66.5t35 -100q0 -84 -67 -132.5t-205 -48.5q-130 0 -245 35v125q13 2 23 2q9 0 9 -10v-92q102 -28 213 -28q120 0 178.5 40t58.5 108 q0 60 -48.5 102t-117.5 66.5l-138 50t-117.5 70t-48.5 108.5q0 77 68.5 120t193.5 43q123 0 215 -38v-122q-13 -2 -23 -2q-9 0 -9 10z" />
<glyph unicode="T" horiz-adv-x="718" d="M493 0h-268q-1 14 -1 21q0 6 7 6h110v662h-289v-90q0 -10 -10 -10l-22 2v129h679v-129q-13 -2 -23 -2t-10 10v90h-289v-662h110q7 0 7 -6z" />
<glyph unicode="U" horiz-adv-x="902" d="M445 -10q-130 0 -200 69t-70 191v443h-76q-1 14 -1 20q0 7 7 7h187q7 0 7 -7l-1 -20h-86v-446q0 -104 63 -163.5t171 -59.5t171 59.5t63 163.5v446h-86q-1 14 -1 20q0 7 7 7h197q7 0 7 -7l-1 -20h-87v-443q0 -122 -71 -191t-200 -69z" />
<glyph unicode="V" horiz-adv-x="777" d="M409 -17h-40l-270 710h-78q-1 14 -1 20q0 7 6 7h198q7 0 7 -7l-1 -20h-92l251 -663l252 663h-93q-1 14 -1 20q0 7 7 7h197q7 0 7 -7l-1 -20h-78z" />
<glyph unicode="W" horiz-adv-x="1182" d="M360 -17h-42l-219 710h-78q-1 14 -1 20q0 7 6 7h198q7 0 7 -7l-1 -20h-92l201 -662l233 689h40l223 -689l212 662h-93q-1 14 -1 20q0 7 6 7h196q7 0 7 -7l-1 -20h-77l-228 -710h-43l-222 683z" />
<glyph unicode="X" horiz-adv-x="830" d="M652 27l-237 322l-237 -322h83q7 0 7 -6l-1 -21h-212q-1 14 -1 21q0 6 7 6h76l254 344l-235 322h-79q-1 14 -1 20q0 7 7 7h200q7 0 7 -7l-1 -20h-92l217 -295l216 295h-92q-1 14 -1 20q0 7 7 7h200q7 0 7 -7l-1 -20h-79l-233 -318l255 -348h76q7 0 7 -6l-1 -21h-212v21 q0 6 6 6h83z" />
<glyph unicode="Y" horiz-adv-x="715" d="M492 0h-268q-1 14 -1 21q0 6 7 6h110v306l-241 360h-78q-1 14 -1 20q0 7 6 7h199q7 0 7 -7l-1 -20h-92l220 -328l219 328h-93q-1 14 -1 20q0 7 7 7h198q7 0 7 -7l-1 -20h-78l-241 -360v-306h110q7 0 7 -6z" />
<glyph unicode="Z" horiz-adv-x="703" d="M649 0h-588q-7 0 -7 7l1 21l541 661h-488v-70q0 -9 -10 -9l-23 2v108h561q7 0 7 -7l-1 -21l-541 -661h515v70q0 10 10 10l23 -2v-109z" />
<glyph unicode="[" horiz-adv-x="251" d="M49 -245v1000h195q7 0 7 -7l-1 -23h-166v-941h160q7 0 7 -6l-1 -23h-201z" />
<glyph unicode="\" horiz-adv-x="392" d="M59 786l310 -815l-32 -11l-309 815z" />
<glyph unicode="]" horiz-adv-x="251" d="M202 755v-1000h-201q-1 16 -1 23q0 6 7 6h160v941h-166q-1 16 -1 23t7 7h195z" />
<glyph unicode="^" d="M302 720h32l236 -462h-36l-216 423l-215 -423h-37z" />
<glyph unicode="_" horiz-adv-x="509" d="M0 0h509v-30h-509v30z" />
<glyph unicode="`" horiz-adv-x="353" d="M62 724l247 -112q2 -9 2 -23q0 -8 -8 -5l-250 97q-4 20 -4 33q0 16 13 10z" />
<glyph unicode="a" horiz-adv-x="544" d="M117 441v-60q0 -10 -10 -10l-23 2v92q95 35 176 35q90 0 133 -46.5t43 -165.5v-261h71q7 0 7 -6l-1 -21h-112v55q-103 -65 -197 -65q-77 0 -121 37t-44 103q0 79 59.5 123t159.5 44q69 0 143 -23v14q0 104 -35 141.5t-106 37.5q-72 0 -143 -26zM204 23q100 0 197 72v147 q-76 23 -143 23q-85 0 -133.5 -36.5t-48.5 -98.5q0 -53 35 -80t93 -27z" />
<glyph unicode="b" horiz-adv-x="657" d="M169 755v-374q131 119 236 119q193 0 193 -231q0 -137 -74.5 -208t-197.5 -71q-105 0 -193 34v703h-87q-1 12 -1 19q0 9 7 9h117zM169 336v-289q65 -24 149 -24q112 0 178 60t66 183q0 108 -44 154t-113 46q-107 0 -236 -130z" />
<glyph unicode="c" horiz-adv-x="513" d="M423 383v64q-42 20 -113 20q-98 0 -157 -61.5t-59 -167.5q0 -110 57 -162t140 -52q68 0 159 47l14 -29q-92 -52 -173 -52q-100 0 -166 61.5t-66 186.5q0 124 70 193t181 69q77 0 146 -31v-94q-13 -2 -23 -2t-10 10z" />
<glyph unicode="d" horiz-adv-x="650" d="M276 24q116 0 216 109v307q-63 28 -150 28q-105 0 -176 -65.5t-71 -175.5q0 -101 53 -152t128 -51zM492 727h-87q-1 12 -1 19q0 9 7 9h116v-728h71q7 0 7 -6l-1 -21h-112v89q-51 -51 -102 -75t-114 -24q-93 0 -155 60.5t-62 173.5q0 127 80.5 201.5t207.5 74.5 q77 0 145 -26v253z" />
<glyph unicode="e" horiz-adv-x="520" d="M468 235h-373q1 -108 56.5 -159.5t131.5 -51.5q43 0 77 13t81 46l20 -27q-87 -66 -178 -66q-93 0 -158.5 62t-65.5 188q0 121 65.5 190.5t160.5 69.5q90 0 138 -56t48 -158q0 -24 -3 -51zM285 467q-75 0 -128.5 -53t-60.5 -148h338q1 8 1 25q0 85 -39 130.5t-111 45.5z " />
<glyph unicode="f" horiz-adv-x="420" d="M328 461h-170v-434h99q7 0 7 -6l-1 -21h-217q-1 14 -1 21q0 6 7 6h70v434h-76q-1 15 -1 22t7 7h70v53q0 109 52.5 163t134.5 54q65 0 111 -21v-82q-12 -2 -22 -2t-10 9v52q-30 13 -77 13q-69 0 -111 -44t-42 -142v-53h164q7 0 7 -7z" />
<glyph unicode="g" horiz-adv-x="566" d="M268 501q91 0 143 -54q62 54 120 54q11 0 11 -12l-4 -28q-68 0 -112 -34q26 -38 26 -90q0 -69 -51.5 -115t-132.5 -46q-131 0 -131 -59q0 -57 113 -57h70q98 0 143 -37.5t45 -101.5q0 -74 -67.5 -119.5t-179.5 -45.5q-100 0 -159 41t-59 112q0 48 33 85.5t94 48.5 q-66 16 -66 74q0 27 19.5 48t56.5 30q-44 14 -71 53.5t-27 88.5q0 72 49.5 118t136.5 46zM324 27h-71q-92 0 -133 -33t-41 -85q0 -56 50 -88.5t132 -32.5q95 0 152.5 36t57.5 97q0 106 -147 106zM268 208q65 0 106 36t41 93q0 60 -38.5 96t-108.5 36q-71 0 -110 -36t-39 -96 q0 -57 41.5 -93t107.5 -36z" />
<glyph unicode="h" horiz-adv-x="700" d="M169 755v-372q84 63 144 90t118 27q73 0 114.5 -43.5t41.5 -152.5v-277h71q6 0 6 -6l-1 -21h-188q-1 14 -1 21q0 6 7 6h71v273q0 92 -32.5 129.5t-89.5 37.5q-114 0 -261 -121v-319h70q7 0 7 -6l-1 -21h-188q-1 14 -1 21q0 6 7 6h70v700h-87q-1 14 -1 21t7 7h117z" />
<glyph unicode="i" horiz-adv-x="280" d="M158 27h70q7 0 7 -6l-1 -21h-188q-1 14 -1 21q0 6 7 6h70v436h-76q-1 13 -1 20t7 7h106v-463zM85 714q0 16 11 26.5t26 10.5t26 -10.5t11 -26.5q0 -14 -11 -24.5t-26 -10.5t-26 10.5t-11 24.5z" />
<glyph unicode="j" horiz-adv-x="280" d="M-1 -212q123 0 123 165v510h-76q-1 13 -1 20t7 7h106v-537q0 -196 -159 -196q-56 0 -96 14v102q14 2 23 2q10 0 10 -10v-69q30 -8 63 -8zM88 714q0 16 11 26.5t25 10.5q16 0 27 -10.5t11 -26.5q0 -14 -11 -24.5t-27 -10.5q-14 0 -25 10.5t-11 24.5z" />
<glyph unicode="k" horiz-adv-x="613" d="M169 27h70q7 0 7 -6l-1 -21h-188q-1 14 -1 21q0 6 7 6h70v700h-87q-1 12 -1 19q0 9 7 9h117v-551l280 259h-82v20q0 7 6 7h193q7 0 7 -7l-1 -20h-72l-189 -173l210 -263h66q7 0 7 -6l-1 -21h-204q-1 14 -1 21q0 6 7 6h78l-189 239l-115 -106v-133z" />
<glyph unicode="l" horiz-adv-x="291" d="M169 27h70q7 0 7 -6l-1 -21h-188q-1 14 -1 21q0 6 7 6h70v700h-87q-1 12 -1 19q0 9 7 9h117v-728z" />
<glyph unicode="m" horiz-adv-x="994" d="M375 500q110 0 140 -105q57 51 105.5 78t107.5 27q73 0 113 -48t40 -144v-281h71q6 0 6 -6l-1 -21h-188q-1 14 -1 21q0 6 7 6h71v269q0 92 -32 131.5t-91 39.5q-92 0 -200 -103q4 -36 4 -56v-281h71q7 0 7 -6l-1 -21h-188q-1 14 -1 21q0 6 6 6h71v269q0 92 -31.5 131.5 t-90.5 39.5q-99 0 -212 -116v-324h70q7 0 7 -6l-1 -21h-188q-1 14 -1 21q0 6 7 6h70v436h-76q-1 13 -1 20t7 7h106v-100q63 59 110.5 84.5t106.5 25.5z" />
<glyph unicode="n" horiz-adv-x="689" d="M158 490v-107q84 63 144 90t118 27q156 0 156 -196v-277h71q7 0 7 -6l-1 -21h-188q-1 14 -1 21q0 6 6 6h71v273q0 92 -32.5 129.5t-89.5 37.5q-114 0 -261 -121v-319h70q7 0 7 -6l-1 -21h-188q-1 14 -1 21q0 6 7 6h70v436h-76q-1 13 -1 20t7 7h106z" />
<glyph unicode="o" horiz-adv-x="599" d="M299 23q89 0 147 59.5t58 155.5q0 100 -55 164.5t-150 64.5q-94 0 -149.5 -65.5t-55.5 -163.5q0 -95 58 -155t147 -60zM299 -10q-108 0 -174 69.5t-66 178.5q0 114 64.5 188t175.5 74t176 -73.5t65 -188.5q0 -109 -66.5 -178.5t-174.5 -69.5z" />
<glyph unicode="p" horiz-adv-x="646" d="M158 -218h100q7 0 7 -6l-1 -21h-218q-1 14 -1 21q0 6 7 6h70v681h-76q-1 13 -1 20t7 7h106v-107q122 117 234 117q84 0 139.5 -56t55.5 -173q0 -141 -75.5 -211t-191.5 -70q-85 0 -162 34v-242zM390 467q-110 0 -232 -126v-282q72 -36 162 -36q99 0 165 61t66 187 q0 102 -46.5 149t-114.5 47z" />
<glyph unicode="q" horiz-adv-x="650" d="M272 23q127 0 220 134v281q-77 29 -151 29q-110 0 -178 -65t-68 -175q0 -106 52.5 -155t124.5 -49zM492 -218v325q-38 -51 -95 -84t-125 -33q-89 0 -151 58t-62 176q0 126 79 201t199 75q94 0 190 -39v-679h71q7 0 7 -6l-1 -21h-218q-1 14 -1 21q0 6 7 6h100z" />
<glyph unicode="r" horiz-adv-x="463" d="M406 409v50q-23 6 -56 6q-110 0 -192 -144v-294h95q7 0 7 -6l-1 -21h-213q-1 14 -1 21q0 6 7 6h70v436h-76q-1 13 -1 20t7 7h106v-117q74 124 195 124q45 0 85 -14v-82q-13 -2 -22 -2q-10 0 -10 10z" />
<glyph unicode="s" horiz-adv-x="513" d="M101 111v-69q60 -19 142 -19q164 0 164 98q0 38 -33.5 64t-81.5 42l-96 32.5t-81.5 47.5t-33.5 76q0 56 49.5 86.5t143.5 30.5q93 0 159 -27v-93q-13 -2 -22 -2q-10 0 -10 10v61q-62 18 -132 18q-151 0 -151 -84q0 -35 33.5 -60t81.5 -41t96 -34t81.5 -49.5t33.5 -77.5 q0 -62 -51.5 -96.5t-149.5 -34.5q-101 0 -174 27v102q12 2 22 2t10 -10z" />
<glyph unicode="t" horiz-adv-x="427" d="M127 605q14 2 25 2t11 -11v-106h179q7 0 7 -7l-1 -22h-185v-348q0 -46 23 -67.5t59 -21.5q46 0 114 37l14 -28q-75 -42 -128 -42q-54 0 -86 30t-32 87v353h-72q-1 15 -1 22t7 7h66v115z" />
<glyph unicode="u" horiz-adv-x="654" d="M501 0v127q-34 -54 -90.5 -95.5t-123.5 -41.5q-83 0 -126 48t-43 159v266h-77q-1 13 -1 20t7 7h106v-270q0 -108 32.5 -152t97.5 -44q117 0 218 155v284h-77q-1 13 -1 20t7 7h106v-463h71q6 0 6 -6l-1 -21h-111z" />
<glyph unicode="v" horiz-adv-x="603" d="M320 -7h-38l-202 470h-59q-1 13 -1 20t6 7h162q7 0 7 -7l-1 -20h-74l181 -426l182 426h-74q-1 13 -1 20t7 7h161q7 0 7 -7l-1 -20h-60z" />
<glyph unicode="w" horiz-adv-x="926" d="M280 -7h-37l-163 470h-59q-1 13 -1 20t6 7h162q7 0 7 -7l-1 -20h-74l142 -426l182 453h38l182 -453l143 426h-75q-1 13 -1 20t7 7h162q6 0 6 -7v-20h-60l-163 -470h-37l-183 448z" />
<glyph unicode="x" horiz-adv-x="612" d="M505 463l-177 -211l187 -225h61q7 0 7 -6l-1 -21h-180q-1 14 -1 21q0 6 7 6h63l-166 198l-165 -198h64q7 0 7 -6l-1 -21h-180q-1 14 -1 21q0 6 7 6h61l183 222l-176 214h-60q-1 13 -1 20t7 7h169q6 0 6 -7l-1 -20h-74l154 -188l156 188h-75q-1 13 -1 20t7 7h168q6 0 6 -7 l-1 -20h-59z" />
<glyph unicode="y" horiz-adv-x="612" d="M106 -229v84q13 2 22 2q10 0 10 -10v-54q21 -7 40 -7q46 0 71 62l51 128l-220 487h-59q-1 13 -1 20t6 7h162q7 0 7 -7l-1 -20h-72l195 -448l179 448h-80v20q0 7 6 7h164q7 0 7 -7l-1 -20h-60l-250 -616q-37 -92 -102 -92q-32 0 -74 16z" />
<glyph unicode="z" horiz-adv-x="525" d="M476 0h-420q-7 0 -7 7l1 21l367 432h-317v-71q0 -10 -10 -10l-22 2v109h388q7 0 7 -7l-1 -21l-368 -432h350v71q0 10 10 10l22 -2v-109z" />
<glyph unicode="{" horiz-adv-x="301" d="M245 -186q7 0 7 -7l-3 -23q-97 0 -148.5 43t-51.5 111q0 52 42 127.5t42 112.5q0 32 -19 54t-49 28v27q30 6 49 27.5t19 53.5q0 38 -42 113.5t-42 127.5q0 68 51 110.5t145 42.5q7 0 7 -6l-3 -24q-84 0 -125 -35.5t-41 -87.5q0 -43 42 -121t42 -120q0 -60 -58 -95 q58 -33 58 -95q0 -41 -42 -119t-42 -121q0 -52 41 -88t121 -36z" />
<glyph unicode="|" horiz-adv-x="664" d="M316 -245v1000h32v-1000h-32z" />
<glyph unicode="}" horiz-adv-x="301" d="M56 -186q80 0 121 36t41 88q0 43 -42 121t-42 119q0 62 58 95q-58 35 -58 95q0 42 42 120t42 121q0 52 -41 87.5t-125 35.5q-3 13 -3 24q0 6 7 6q94 0 145 -42.5t51 -110.5q0 -52 -42 -127.5t-42 -113.5q0 -32 19 -53.5t49 -27.5v-27q-30 -6 -49 -28t-19 -54 q0 -37 42 -112.5t42 -127.5q0 -68 -51.5 -111t-148.5 -43q-3 12 -3 23q0 7 7 7z" />
<glyph unicode="~" d="M83 264q-12 -9 -12 5l2 24q66 48 128 48q55 0 121.5 -36t111.5 -36q57 0 120 45q12 7 12 -5l-3 -26q-64 -48 -129 -48q-52 0 -120.5 37t-112.5 37q-60 0 -118 -45z" />
<glyph unicode="&#xa1;" horiz-adv-x="247" d="M133 328l9 -566q-18 -4 -31 -4t-13 13l10 562q9 2 16 2q9 0 9 -7zM163 464q0 -17 -12 -29t-29 -12t-29 12t-12 29q0 16 12 27.5t29 11.5t29 -11.5t12 -27.5z" />
<glyph unicode="&#xa2;" d="M480 383v64q-42 20 -113 20h-10v-443q59 0 150 47l13 -29q-84 -49 -163 -52v-81h-33v82q-92 7 -150 68t-58 179q0 111 57 178.5t151 80.5v80h33v-77h10q76 0 146 -31v-94q-13 -2 -23 -2t-10 10zM151 238q0 -102 49.5 -154.5t123.5 -59.5v440q-79 -13 -126 -72.5 t-47 -153.5z" />
<glyph unicode="&#xa3;" d="M369 303h-166q0 -3 0.5 -8.5t0.5 -7.5q0 -118 -83 -256h405v100q0 10 10 10l23 -2v-139h-473q-9 0 -9 9l4 28q89 120 89 250q0 11 -1 16h-89q-1 15 -1 24q0 8 8 8h79q-5 32 -30 103t-25 119q0 86 60.5 134.5t168.5 48.5q92 0 186 -37v-102q-13 -2 -23 -2t-10 10v70 q-69 30 -153 30q-91 0 -142 -40t-51 -112q0 -39 24 -111t29 -111h162q8 0 8 -8z" />
<glyph unicode="&#xa4;" d="M319 127q-102 0 -169 64l-68 -68l-22 25l68 68q-49 66 -49 159q0 102 50 170l-70 69l22 23l69 -68q65 68 169 68t169 -67l68 66l22 -23l-68 -67q51 -70 51 -171q0 -92 -51 -159l68 -68l-22 -25l-68 67q-68 -63 -169 -63zM319 160q90 0 147.5 59.5t57.5 155.5 q0 101 -55 165.5t-150 64.5q-94 0 -149 -65.5t-55 -164.5q0 -95 57.5 -155t146.5 -60z" />
<glyph unicode="&#xa5;" d="M97 366h202l-210 327h-78q-1 14 -1 20q0 7 7 7h199q6 0 6 -7l-1 -20h-92l190 -299l191 299h-94v20q0 7 6 7h198q7 0 7 -7l-1 -20h-77l-210 -327h204v-33h-206v-132h206v-32h-206v-142h100q7 0 7 -6l-1 -21h-248q-1 14 -1 21q0 6 7 6h100v142h-204v32h204v132h-204v33z " />
<glyph unicode="&#xa6;" horiz-adv-x="664" d="M348 360h-32v395h32v-395zM348 -245h-32v403h32v-403z" />
<glyph unicode="&#xa7;" horiz-adv-x="504" d="M422 183q0 48 -20 95.5t-48 86.5l-56.5 77.5t-48.5 82t-20 86.5q0 25 11.5 50.5t28.5 38.5q-81 0 -124.5 -44t-43.5 -123q0 -47 20 -94.5t48.5 -86.5l56.5 -77.5t48 -82t20 -86.5q0 -25 -11.5 -51t-28.5 -38q81 0 124.5 43.5t43.5 122.5zM460 183q0 -90 -53 -143.5 t-153 -53.5q-90 0 -174 28v101q13 2 23 2t10 -10v-72q31 -14 65 -14q38 0 58.5 23t20.5 62t-20 79.5t-48.5 78l-56.5 77t-48 90t-20 102.5q0 91 52.5 144t152.5 53q88 0 174 -27v-101q-13 -2 -23 -2q-9 0 -9 10v71q-35 15 -66 15q-38 0 -58 -23t-20 -62t20 -80t48.5 -78.5 l56.5 -77t48 -90t20 -102.5z" />
<glyph unicode="&#xa8;" horiz-adv-x="392" d="M69 688q0 16 11.5 28t28.5 12t29 -12t12 -28t-12 -27.5t-29 -11.5t-28.5 11.5t-11.5 27.5zM242 688q0 16 12 28t28 12q17 0 29 -11.5t12 -28.5q0 -16 -12 -27.5t-29 -11.5q-16 0 -28 11.5t-12 27.5z" />
<glyph unicode="&#xa9;" horiz-adv-x="881" d="M49 376q0 167 112.5 279t279.5 112t279 -111.5t112 -279.5q0 -167 -112 -279.5t-279 -112.5q-168 0 -280 112.5t-112 279.5zM85 376q0 -156 101.5 -258.5t254.5 -102.5q151 0 252.5 103t101.5 258q0 154 -101 256.5t-253 102.5q-153 0 -254.5 -102t-101.5 -257zM458 589 q-105 0 -162.5 -61t-57.5 -155q0 -97 59.5 -153t161.5 -56q69 0 121 20v74q0 10 10 10l23 -2v-104q-84 -31 -154 -31q-119 0 -188 64t-69 178q0 108 67 178t189 70q74 0 153 -28v-104q-14 -2 -24 -2t-10 10v71q-63 21 -119 21z" />
<glyph unicode="&#xaa;" horiz-adv-x="447" d="M212 733q-44 0 -92 -17v-45q0 -10 -10 -10l-23 2v76q73 25 125 25q65 0 97.5 -33t32.5 -117v-179h49q7 0 7 -7l-1 -20h-89v35q-67 -43 -131 -43q-55 0 -86.5 27.5t-31.5 74.5q0 56 41 87t107 31q42 0 101 -16v10q0 68 -24 93.5t-72 25.5zM177 430q63 0 131 49v92 q-53 19 -101 19q-51 0 -82 -23.5t-31 -63.5q0 -35 23 -54t60 -19z" />
<glyph unicode="&#xab;" horiz-adv-x="470" d="M219 45l-190 203l190 203q19 1 29 1q4 0 5.5 -2.5t-0.5 -5.5l-172 -196l172 -196q2 -3 0.5 -5.5t-5.5 -2.5zM385 45l-189 203l189 203q20 1 30 1q3 0 4.5 -2.5t-0.5 -5.5l-171 -196l171 -196q2 -3 0.5 -5.5t-4.5 -2.5z" />
<glyph unicode="&#xac;" d="M561 358v-193h-37v160h-449v33h486z" />
<glyph unicode="&#xad;" horiz-adv-x="411" d="M49 324h313v-34h-313v34z" />
<glyph unicode="&#xae;" horiz-adv-x="881" d="M342 368v-186h65q7 0 7 -8l-1 -20h-177q-1 12 -1 20t9 8h63v410h-71q-1 15 -1 20q0 8 9 8h202q166 0 166 -123q0 -54 -36 -86t-93 -38q36 -14 60.5 -43t42.5 -86l20 -62h53q7 0 7 -8l-1 -20h-88l-24 80q-23 73 -73 103.5t-138 30.5zM444 590h-102v-190h101q64 0 97.5 27 t33.5 70q0 47 -30.5 70t-99.5 23zM49 375q0 167 112.5 279t279.5 112t279 -111.5t112 -279.5q0 -167 -112 -279.5t-279 -112.5q-168 0 -280 112.5t-112 279.5zM85 375q0 -156 101.5 -258.5t254.5 -102.5q151 0 252.5 103t101.5 258q0 154 -101 256.5t-253 102.5 q-153 0 -254.5 -102t-101.5 -257z" />
<glyph unicode="&#xaf;" horiz-adv-x="363" d="M315 661h-267q-1 15 -1 24q0 8 8 8h252q9 0 9 -8z" />
<glyph unicode="&#xb0;" d="M185 726q59 0 100 -40.5t41 -99.5q0 -57 -41 -97t-100 -40t-100 40t-41 97q0 58 41 99t100 41zM185 479q47 0 78 31t31 76q0 47 -31 78.5t-78 31.5t-78 -31.5t-31 -78.5q0 -45 31 -76t78 -31z" />
<glyph unicode="&#xb1;" d="M71 45h230v222h-230v32h230v221h34v-221h230v-32h-230v-222h230v-32h-494v32z" />
<glyph unicode="&#xb2;" horiz-adv-x="397" d="M96 709v-55q0 -10 -10 -10l-23 2v80q67 38 142 38q61 0 94 -25.5t33 -69.5q0 -34 -23 -62t-77 -67l-143 -102h227v71q0 9 9 9l23 -2v-108h-307q-2 16 -2 24q0 7 5 11l167 119q49 36 67.5 60t18.5 47q0 31 -24.5 47.5t-67.5 16.5q-57 0 -109 -24z" />
<glyph unicode="&#xb3;" horiz-adv-x="334" d="M75 496v-50q41 -18 86 -18q46 0 73.5 19.5t27.5 58.5q0 66 -102 66h-41v32h49q89 0 89 65q0 66 -93 66q-39 0 -83 -14v-49q0 -10 -9 -10l-24 2v77q61 23 116 23q125 0 125 -95q0 -55 -61 -82q67 -18 67 -81q0 -51 -37 -79t-99 -28q-54 0 -117 28v77q14 2 24 2q9 0 9 -10z " />
<glyph unicode="&#xb4;" horiz-adv-x="320" d="M31 612l247 112q13 6 13 -10l-4 -33l-250 -97q-8 -3 -8 5z" />
<glyph unicode="&#xb5;" d="M492 0v127q-34 -54 -90.5 -95.5t-123.5 -41.5q-95 0 -134 71v-296q0 -10 -10 -10l-25 2v706h-77q-1 13 -1 20t7 7h106v-296q0 -170 130 -170q117 0 218 155v284h-76q-1 13 -1 20t6 7h106v-463h71q7 0 7 -6l-1 -21h-112z" />
<glyph unicode="&#xb6;" horiz-adv-x="789" d="M499 693v-938h-36v514q-72 -20 -146 -20q-130 0 -199 68t-69 178q0 107 68 166t201 59h441q7 0 7 -7l-1 -20h-91v-938h-36v938h-139zM463 689h-144q-116 0 -174.5 -50.5t-58.5 -143.5q0 -96 59.5 -154t171.5 -58q75 0 146 21v385z" />
<glyph unicode="&#xb7;" horiz-adv-x="188" d="M54 284q0 17 12 28.5t28 11.5q17 0 29 -11.5t12 -28.5q0 -16 -12 -27.5t-29 -11.5q-16 0 -28 11.5t-12 27.5z" />
<glyph unicode="&#xb8;" horiz-adv-x="501" d="M232 0h31l-9 -72q25 10 54 10q40 0 64.5 -21.5t24.5 -62.5q0 -46 -30 -72.5t-78 -26.5t-81 24q-3 12 -3 27q0 11 8 6q36 -26 75 -26q31 0 53 17.5t22 49.5q0 26 -17 40t-44 14q-34 0 -63 -14l-19 15z" />
<glyph unicode="&#xb9;" horiz-adv-x="307" d="M173 435h81q7 0 7 -7l-1 -20h-207q-1 13 -1 20t7 7h80v295l-82 -43q-7 9 -10 16q-5 9 2 13l87 48h37v-329z" />
<glyph unicode="&#xba;" horiz-adv-x="446" d="M222 428q61 0 101 41t40 106q0 69 -38 113t-103 44q-64 0 -102 -45t-38 -112q0 -65 39.5 -106t100.5 -41zM222 396q-78 0 -125.5 50t-47.5 129q0 82 47 135.5t126 53.5q80 0 127.5 -53t47.5 -136q0 -79 -48 -129t-127 -50z" />
<glyph unicode="&#xbb;" horiz-adv-x="470" d="M441 248l-189 -203q-20 -1 -30 -1q-3 0 -4.5 2.5t0.5 5.5l171 196l-171 196q-2 3 -0.5 5.5t4.5 2.5l30 -1zM274 248l-189 -203q-19 -1 -29 -1q-4 0 -5.5 2.5t0.5 5.5l171 196l-171 196q-2 3 -0.5 5.5t5.5 2.5l29 -1z" />
<glyph unicode="&#xbc;" horiz-adv-x="787" d="M178 330h81q7 0 7 -7l-1 -20h-217q-1 14 -1 20q0 7 7 7h90v366l-92 -48q-7 9 -10 15q-5 10 2 14l97 53h37v-400zM120 0l516 742l25 -19l-516 -742zM441 128h175v236zM404 132l219 295h29v-299h88q8 0 8 -7l-1 -23h-95v-71h60q7 0 7 -6l-1 -21h-168q-1 14 -1 21q0 6 7 6 h60v71h-214q-2 16 -2 23q0 6 4 11z" />
<glyph unicode="&#xbd;" horiz-adv-x="854" d="M178 330h81q7 0 7 -7l-1 -20h-217q-1 14 -1 20q0 7 7 7h90v366l-92 -48q-7 9 -10 15q-5 10 2 14l97 53h37v-400zM107 0l516 742l26 -19l-517 -742zM522 368v-53q0 -10 -9 -10l-24 2v80q67 38 155 38q75 0 114 -32t39 -85q0 -43 -25.5 -78.5t-78.5 -73.5l-176 -126h265v71 q0 10 10 10l22 -2v-109h-347q-2 17 -2 24t5 11l201 144q50 35 70 64.5t20 64.5q0 41 -30.5 63.5t-86.5 22.5q-68 0 -122 -26z" />
<glyph unicode="&#xbe;" horiz-adv-x="803" d="M73 403v-58q49 -23 105 -23q59 0 93 24t34 73q0 84 -128 84h-47v33h56q113 0 113 85q0 38 -29.5 59.5t-87.5 21.5q-52 0 -103 -19v-54q0 -10 -9 -10l-24 2v83q74 27 136 27q150 0 150 -110q0 -77 -75 -102q82 -23 82 -100q0 -61 -44.5 -93.5t-118.5 -32.5q-64 0 -137 33 v85q14 2 24 2t10 -10zM152 0l516 742l26 -19l-517 -742zM457 128h175v236zM419 132l220 295h28v-299h89q7 0 7 -7l-1 -23h-95v-71h61q7 0 7 -6l-1 -21h-169q-1 14 -1 21q0 6 7 6h61v71h-215q-1 16 -1 23t3 11z" />
<glyph unicode="&#xbf;" horiz-adv-x="515" d="M44 -95q0 47 22 84t53.5 63.5l63 53.5t53.5 69.5t22 96.5v60q0 7 10 7l26 -3v-58q0 -60 -22 -106.5t-53.5 -75.5t-63 -55t-53.5 -60t-22 -76q0 -56 42.5 -87.5t126.5 -31.5q91 0 171 35v71q0 10 10 10l24 -2v-102q-113 -43 -205 -43q-100 0 -152.5 40.5t-52.5 109.5z M314 461q0 -17 -12 -29t-29 -12t-29 12t-12 29q0 16 12 27.5t29 11.5t29 -11.5t12 -27.5z" />
<glyph unicode="&#xc0;" horiz-adv-x="786" d="M646 27l-85 220h-336l-85 -220h84q7 0 7 -6l-1 -21h-209q-1 14 -1 21q0 6 6 6h76l259 666h-108q-1 14 -1 20q0 7 7 7h157l268 -693h75q7 0 7 -6l-1 -21h-209q-1 14 -1 21q0 6 7 6h84zM394 682l-156 -403h311zM240 900l247 -113q2 -9 2 -23q0 -7 -8 -5l-250 98 q-4 19 -4 33q0 16 13 10z" />
<glyph unicode="&#xc1;" horiz-adv-x="786" d="M646 27l-85 220h-336l-85 -220h84q7 0 7 -6l-1 -21h-209q-1 14 -1 21q0 6 6 6h76l259 666h-108q-1 14 -1 20q0 7 7 7h157l268 -693h75q7 0 7 -6l-1 -21h-209q-1 14 -1 21q0 6 7 6h84zM394 682l-156 -403h311zM225 787l247 113q13 6 13 -10l-4 -33l-250 -98q-8 -2 -8 5z " />
<glyph unicode="&#xc2;" horiz-adv-x="786" d="M646 27l-85 220h-336l-85 -220h84q7 0 7 -6l-1 -21h-209q-1 14 -1 21q0 6 6 6h76l259 666h-108q-1 14 -1 20q0 7 7 7h157l268 -693h75q7 0 7 -6l-1 -21h-209q-1 14 -1 21q0 6 7 6h84zM394 682l-156 -403h311zM209 805l154 119l153 -119q2 -8 2 -18t-7 -5l-148 91 l-148 -91q-8 -5 -8 5z" />
<glyph unicode="&#xc3;" horiz-adv-x="786" d="M646 27l-85 220h-336l-85 -220h84q7 0 7 -6l-1 -21h-209q-1 14 -1 21q0 6 6 6h76l259 666h-108q-1 14 -1 20q0 7 7 7h157l268 -693h75q7 0 7 -6l-1 -21h-209q-1 14 -1 21q0 6 7 6h84zM394 682l-156 -403h311zM438 845q37 0 72 26q4 3 8 1.5t4 -6.5l-3 -25 q-39 -31 -84 -31q-33 0 -75.5 21.5t-70.5 21.5q-39 0 -71 -27q-5 -3 -9 -1.5t-4 6.5l3 26q39 30 84 30q35 0 76 -21t70 -21z" />
<glyph unicode="&#xc4;" horiz-adv-x="786" d="M646 27l-85 220h-336l-85 -220h84q7 0 7 -6l-1 -21h-209q-1 14 -1 21q0 6 6 6h76l259 666h-108q-1 14 -1 20q0 7 7 7h157l268 -693h75q7 0 7 -6l-1 -21h-209q-1 14 -1 21q0 6 7 6h84zM394 682l-156 -403h311zM234 863q0 17 12 29t28 12q17 0 29.5 -12t12.5 -29 q0 -16 -12.5 -27.5t-29.5 -11.5q-16 0 -28 11.5t-12 27.5zM408 863q0 17 11.5 29t28.5 12t29 -12t12 -29q0 -16 -12 -27.5t-29 -11.5q-16 0 -28 11.5t-12 27.5z" />
<glyph unicode="&#xc5;" horiz-adv-x="786" d="M646 27l-85 220h-336l-85 -220h84q7 0 7 -6l-1 -21h-209q-1 14 -1 21q0 6 6 6h76l259 666h-108q-1 14 -1 20q0 7 7 7h157l268 -693h75q7 0 7 -6l-1 -21h-209q-1 14 -1 21q0 6 7 6h84zM394 682l-156 -403h311zM363 798q24 0 41 17t17 42t-17 42t-41 17q-25 0 -42 -17 t-17 -42t17 -42t42 -17zM363 770q-38 0 -64 25t-26 62t26.5 63t63.5 26t63 -26t26 -63t-25.5 -62t-63.5 -25z" />
<glyph unicode="&#xc6;" horiz-adv-x="1170" d="M1103 720v-119q-12 -2 -22 -2t-10 10v80h-381v-296h283v-31h-283v-331h394v91q0 9 10 9l22 -2v-129h-549q-1 14 -1 21q0 6 7 6h81v220h-333l-167 -220h84q7 0 7 -6l-1 -21h-216q-1 14 -1 21q0 6 7 6h76l510 666h-107q-1 14 -1 20q0 7 6 7h585zM654 682l-308 -403h308v403 z" />
<glyph unicode="&#xc7;" horiz-adv-x="724" d="M447 23q97 0 191 35v90q0 10 10 10l22 -2v-122q-117 -43 -220 -44l-8 -62q27 10 54 10q40 0 64.5 -21.5t24.5 -62.5q0 -46 -30 -72.5t-78 -26.5q-46 0 -81 24q-3 12 -3 27q0 11 8 6q36 -26 75 -26q31 0 53 17.5t22 49.5q0 26 -17 40t-44 14q-34 0 -63 -14l-18 15l10 83 q-157 8 -244 105.5t-87 257.5q0 168 97.5 271.5t269.5 103.5q104 0 206 -35v-112q-13 -2 -23 -2t-10 10v78q-77 29 -173 29q-157 0 -244 -96t-87 -247t85 -241t238 -90z" />
<glyph unicode="&#xc8;" horiz-adv-x="712" d="M646 720v-119q-13 -2 -23 -2t-10 10v80h-381v-296h283v-31h-283v-331h394v91q0 9 10 9l23 -2v-129h-549q-1 14 -1 21q0 6 7 6h80v666h-86q-1 14 -1 20q0 7 7 7h530zM278 900l247 -113q2 -9 2 -23q0 -7 -8 -5l-250 98q-3 19 -3 33q0 16 12 10z" />
<glyph unicode="&#xc9;" horiz-adv-x="712" d="M646 720v-119q-13 -2 -23 -2t-10 10v80h-381v-296h283v-31h-283v-331h394v91q0 9 10 9l23 -2v-129h-549q-1 14 -1 21q0 6 7 6h80v666h-86q-1 14 -1 20q0 7 7 7h530zM264 787l247 113q12 7 12 -10l-4 -33l-250 -98q-7 -2 -7 5z" />
<glyph unicode="&#xca;" horiz-adv-x="712" d="M646 720v-119q-13 -2 -23 -2t-10 10v80h-381v-296h283v-31h-283v-331h394v91q0 9 10 9l23 -2v-129h-549q-1 14 -1 21q0 6 7 6h80v666h-86q-1 14 -1 20q0 7 7 7h530zM247 805l154 119l154 -119q2 -8 2 -18t-8 -5l-148 91l-148 -91q-8 -5 -8 5z" />
<glyph unicode="&#xcb;" horiz-adv-x="712" d="M646 720v-119q-13 -2 -23 -2t-10 10v80h-381v-296h283v-31h-283v-331h394v91q0 9 10 9l23 -2v-129h-549q-1 14 -1 21q0 6 7 6h80v666h-86q-1 14 -1 20q0 7 7 7h530zM272 863q0 17 12 29t29 12t29 -12t12 -29q0 -16 -12 -27.5t-29 -11.5t-29 11.5t-12 27.5zM446 863 q0 17 12 29t28 12q17 0 29 -12t12 -29q0 -16 -12 -27.5t-29 -11.5q-16 0 -28 11.5t-12 27.5z" />
<glyph unicode="&#xcc;" horiz-adv-x="428" d="M313 720q6 0 6 -7l-1 -20h-86v-666h81q6 0 6 -6l-1 -21h-208q-1 14 -1 21q0 6 7 6h80v666h-86q-1 14 -1 20q0 7 7 7h197zM91 900l247 -113q2 -9 2 -23q0 -7 -8 -5l-250 98q-4 19 -4 33q0 16 13 10z" />
<glyph unicode="&#xcd;" horiz-adv-x="428" d="M313 720q6 0 6 -7l-1 -20h-86v-666h81q6 0 6 -6l-1 -21h-208q-1 14 -1 21q0 6 7 6h80v666h-86q-1 14 -1 20q0 7 7 7h197zM76 787l247 113q13 6 13 -10l-4 -33l-250 -98q-8 -2 -8 5z" />
<glyph unicode="&#xce;" horiz-adv-x="428" d="M313 720q6 0 6 -7l-1 -20h-86v-666h81q6 0 6 -6l-1 -21h-208q-1 14 -1 21q0 6 7 6h80v666h-86q-1 14 -1 20q0 7 7 7h197zM60 805l154 119l153 -119q2 -8 2 -18q0 -9 -7 -5l-148 91l-148 -91q-8 -5 -8 5z" />
<glyph unicode="&#xcf;" horiz-adv-x="428" d="M313 720q6 0 6 -7l-1 -20h-86v-666h81q6 0 6 -6l-1 -21h-208q-1 14 -1 21q0 6 7 6h80v666h-86q-1 14 -1 20q0 7 7 7h197zM85 863q0 17 12 29t28 12q17 0 29.5 -12t12.5 -29q0 -16 -12.5 -27.5t-29.5 -11.5q-16 0 -28 11.5t-12 27.5zM259 863q0 17 11.5 29t28.5 12t29 -12 t12 -29q0 -16 -12 -27.5t-29 -11.5q-16 0 -28 11.5t-12 27.5z" />
<glyph unicode="&#xd0;" horiz-adv-x="860" d="M116 720h219q123 0 210.5 -27t135.5 -77.5t69.5 -112.5t21.5 -141q0 -170 -108 -266t-329 -96h-225q-1 14 -1 21q0 6 7 6h80v309h-93v31h93v326h-86q-1 14 -1 20q0 7 7 7zM335 689h-102v-322h170v-31h-170v-305h102q202 0 301.5 88t99.5 243q0 73 -19 129t-63 102.5 t-124.5 71t-194.5 24.5z" />
<glyph unicode="&#xd1;" horiz-adv-x="901" d="M806 720q6 0 6 -7l-1 -20h-86v-693h-42l-451 668v-641h81q6 0 6 -6l-1 -21h-208q-1 14 -1 21q0 6 7 6h80v666h-86q-1 14 -1 20q0 7 7 7h123l450 -664v637h-86q-1 14 -1 20q0 7 7 7h197zM533 845q37 0 72 26q5 3 8.5 1.5t3.5 -6.5l-3 -25q-39 -31 -84 -31 q-33 0 -75.5 21.5t-70.5 21.5q-39 0 -71 -27q-5 -3 -9 -1.5t-4 6.5l3 26q39 30 84 30q35 0 76 -21t70 -21z" />
<glyph unicode="&#xd2;" horiz-adv-x="872" d="M436 23q136 0 224 90.5t88 236.5q0 150 -84 248.5t-228 98.5t-228 -98.5t-84 -248.5q0 -146 88 -236.5t224 -90.5zM436 729q159 0 253.5 -107t94.5 -272q0 -158 -96 -259t-252 -101t-252 101t-96 259q0 164 94.5 271.5t253.5 107.5zM314 900l247 -113q2 -9 2 -23 q0 -7 -8 -5l-250 98q-4 19 -4 33q0 16 13 10z" />
<glyph unicode="&#xd3;" horiz-adv-x="872" d="M436 23q136 0 224 90.5t88 236.5q0 150 -84 248.5t-228 98.5t-228 -98.5t-84 -248.5q0 -146 88 -236.5t224 -90.5zM436 729q159 0 253.5 -107t94.5 -272q0 -158 -96 -259t-252 -101t-252 101t-96 259q0 164 94.5 271.5t253.5 107.5zM299 787l247 113q13 6 13 -10l-4 -33 l-250 -98q-8 -2 -8 5z" />
<glyph unicode="&#xd4;" horiz-adv-x="872" d="M436 23q136 0 224 90.5t88 236.5q0 150 -84 248.5t-228 98.5t-228 -98.5t-84 -248.5q0 -146 88 -236.5t224 -90.5zM436 729q159 0 253.5 -107t94.5 -272q0 -158 -96 -259t-252 -101t-252 101t-96 259q0 164 94.5 271.5t253.5 107.5zM282 805l154 119l154 -119q2 -8 2 -18 t-8 -5l-148 91l-148 -91q-8 -5 -8 5z" />
<glyph unicode="&#xd5;" horiz-adv-x="872" d="M436 23q136 0 224 90.5t88 236.5q0 150 -84 248.5t-228 98.5t-228 -98.5t-84 -248.5q0 -146 88 -236.5t224 -90.5zM436 729q159 0 253.5 -107t94.5 -272q0 -158 -96 -259t-252 -101t-252 101t-96 259q0 164 94.5 271.5t253.5 107.5zM512 845q36 0 71 26q5 3 9 1.5t4 -6.5 l-3 -25q-40 -31 -84 -31q-33 0 -76 21.5t-70 21.5q-38 0 -72 -27q-5 -3 -9 -1.5t-4 6.5l3 26q41 30 85 30q34 0 75.5 -21t70.5 -21z" />
<glyph unicode="&#xd6;" horiz-adv-x="872" d="M436 23q136 0 224 90.5t88 236.5q0 150 -84 248.5t-228 98.5t-228 -98.5t-84 -248.5q0 -146 88 -236.5t224 -90.5zM436 729q159 0 253.5 -107t94.5 -272q0 -158 -96 -259t-252 -101t-252 101t-96 259q0 164 94.5 271.5t253.5 107.5zM308 863q0 17 11.5 29t28.5 12t29 -12 t12 -29q0 -16 -12 -27.5t-29 -11.5q-16 0 -28 11.5t-12 27.5zM481 863q0 17 12 29t28 12q17 0 29.5 -12t12.5 -29q0 -16 -12.5 -27.5t-29.5 -11.5q-16 0 -28 11.5t-12 27.5z" />
<glyph unicode="&#xd7;" d="M510 69l-192 191l-191 -191l-23 22l191 191l-193 194l22 23l194 -194l194 194l22 -23l-194 -194l192 -191z" />
<glyph unicode="&#xd8;" horiz-adv-x="872" d="M436 729q144 0 238 -92l62 67l24 -22l-63 -70q87 -102 87 -262q0 -158 -96 -259t-252 -101q-138 0 -232 83l-62 -68l-23 22l61 68q-92 102 -92 255q0 164 94.5 271.5t253.5 107.5zM124 350q0 -139 80 -229l448 491q-87 85 -216 85q-144 0 -228 -98.5t-84 -248.5zM436 23 q136 0 224 90.5t88 236.5q0 139 -75 236l-446 -488q83 -75 209 -75z" />
<glyph unicode="&#xd9;" horiz-adv-x="902" d="M445 -10q-130 0 -200 69t-70 191v443h-76q-1 14 -1 20q0 7 7 7h187q7 0 7 -7l-1 -20h-86v-446q0 -104 63 -163.5t171 -59.5t171 59.5t63 163.5v446h-86q-1 14 -1 20q0 7 7 7h197q7 0 7 -7l-1 -20h-87v-443q0 -122 -71 -191t-200 -69zM323 900l247 -113q2 -9 2 -23 q0 -7 -8 -5l-249 98q-4 19 -4 33q0 17 12 10z" />
<glyph unicode="&#xda;" horiz-adv-x="902" d="M445 -10q-130 0 -200 69t-70 191v443h-76q-1 14 -1 20q0 7 7 7h187q7 0 7 -7l-1 -20h-86v-446q0 -104 63 -163.5t171 -59.5t171 59.5t63 163.5v446h-86q-1 14 -1 20q0 7 7 7h197q7 0 7 -7l-1 -20h-87v-443q0 -122 -71 -191t-200 -69zM309 787l247 113q12 7 12 -10l-4 -33 l-249 -98q-8 -2 -8 5z" />
<glyph unicode="&#xdb;" horiz-adv-x="902" d="M445 -10q-130 0 -200 69t-70 191v443h-76q-1 14 -1 20q0 7 7 7h187q7 0 7 -7l-1 -20h-86v-446q0 -104 63 -163.5t171 -59.5t171 59.5t63 163.5v446h-86q-1 14 -1 20q0 7 7 7h197q7 0 7 -7l-1 -20h-87v-443q0 -122 -71 -191t-200 -69zM292 805l154 119l154 -119 q2 -8 2 -18t-8 -5l-148 91l-148 -91q-8 -5 -8 5z" />
<glyph unicode="&#xdc;" horiz-adv-x="902" d="M445 -10q-130 0 -200 69t-70 191v443h-76q-1 14 -1 20q0 7 7 7h187q7 0 7 -7l-1 -20h-86v-446q0 -104 63 -163.5t171 -59.5t171 59.5t63 163.5v446h-86q-1 14 -1 20q0 7 7 7h197q7 0 7 -7l-1 -20h-87v-443q0 -122 -71 -191t-200 -69zM318 863q0 17 11.5 29t28.5 12 t29 -12t12 -29q0 -16 -12 -27.5t-29 -11.5q-16 0 -28 11.5t-12 27.5zM491 863q0 17 12 29t28 12q17 0 29 -12t12 -29q0 -16 -12 -27.5t-29 -11.5q-16 0 -28 11.5t-12 27.5z" />
<glyph unicode="&#xdd;" horiz-adv-x="715" d="M492 0h-268q-1 14 -1 21q0 6 7 6h110v306l-241 360h-78q-1 14 -1 20q0 7 6 7h199q7 0 7 -7l-1 -20h-92l220 -328l219 328h-93q-1 14 -1 20q0 7 7 7h198q7 0 7 -7l-1 -20h-78l-241 -360v-306h110q7 0 7 -6zM221 787l247 113q13 6 13 -10l-4 -33l-250 -98q-7 -1 -7 5z" />
<glyph unicode="&#xde;" horiz-adv-x="612" d="M238 720q7 0 7 -7l-1 -20h-86v-94h145q133 0 200.5 -59t67.5 -167q0 -110 -68.5 -177.5t-198.5 -67.5q-76 0 -146 20v-121h110q6 0 6 -6l-1 -21h-238q-1 14 -1 21q0 6 7 6h81v666h-87q-1 14 -1 20q0 7 7 7h197zM158 567v-385q72 -20 146 -20q112 0 171 57.5t59 153.5 q0 93 -58 143.5t-175 50.5h-143z" />
<glyph unicode="&#xdf;" horiz-adv-x="649" d="M318 760q82 0 129 -41t47 -104q0 -39 -16.5 -67.5t-40.5 -42t-53 -24.5t-53 -18t-40.5 -20t-16.5 -31q0 -22 23.5 -36.5t58.5 -21t75.5 -19.5t75.5 -29.5t58.5 -52.5t23.5 -87q0 -89 -57.5 -132.5t-145.5 -43.5q-68 0 -160 30l11 32q75 -29 149 -29q86 0 126.5 39 t40.5 104q0 46 -23.5 77t-58 44t-75.5 24.5t-75.5 19.5t-58 28t-23.5 52q0 30 22 49t54 29.5t64 22.5t54 37.5t22 65.5q0 51 -36.5 82.5t-100.5 31.5q-81 0 -131.5 -51.5t-50.5 -144.5v-533h-112v21q0 6 6 6h71v506q0 108 60 167.5t157 59.5z" />
<glyph unicode="&#xe0;" horiz-adv-x="544" d="M117 441v-60q0 -10 -10 -10l-23 2v92q95 35 176 35q90 0 133 -46.5t43 -165.5v-261h71q7 0 7 -6l-1 -21h-112v55q-103 -65 -197 -65q-77 0 -121 37t-44 103q0 79 59.5 123t159.5 44q69 0 143 -23v14q0 104 -35 141.5t-106 37.5q-72 0 -143 -26zM204 23q100 0 197 72v147 q-76 23 -143 23q-85 0 -133.5 -36.5t-48.5 -98.5q0 -53 35 -80t93 -27zM119 724l247 -112q1 -9 1 -23q0 -8 -7 -5l-250 97q-4 20 -4 33q0 16 13 10z" />
<glyph unicode="&#xe1;" horiz-adv-x="544" d="M117 441v-60q0 -10 -10 -10l-23 2v92q95 35 176 35q90 0 133 -46.5t43 -165.5v-261h71q7 0 7 -6l-1 -21h-112v55q-103 -65 -197 -65q-77 0 -121 37t-44 103q0 79 59.5 123t159.5 44q69 0 143 -23v14q0 104 -35 141.5t-106 37.5q-72 0 -143 -26zM204 23q100 0 197 72v147 q-76 23 -143 23q-85 0 -133.5 -36.5t-48.5 -98.5q0 -53 35 -80t93 -27zM104 612l247 112q13 6 13 -10l-4 -33l-250 -97q-8 -3 -8 5z" />
<glyph unicode="&#xe2;" horiz-adv-x="544" d="M117 441v-60q0 -10 -10 -10l-23 2v92q95 35 176 35q90 0 133 -46.5t43 -165.5v-261h71q7 0 7 -6l-1 -21h-112v55q-103 -65 -197 -65q-77 0 -121 37t-44 103q0 79 59.5 123t159.5 44q69 0 143 -23v14q0 104 -35 141.5t-106 37.5q-72 0 -143 -26zM204 23q100 0 197 72v147 q-76 23 -143 23q-85 0 -133.5 -36.5t-48.5 -98.5q0 -53 35 -80t93 -27zM87 629l154 120l154 -120q2 -8 2 -17q0 -10 -8 -5l-148 91l-148 -91q-8 -5 -8 5z" />
<glyph unicode="&#xe3;" horiz-adv-x="544" d="M117 441v-60q0 -10 -10 -10l-23 2v92q95 35 176 35q90 0 133 -46.5t43 -165.5v-261h71q7 0 7 -6l-1 -21h-112v55q-103 -65 -197 -65q-77 0 -121 37t-44 103q0 79 59.5 123t159.5 44q69 0 143 -23v14q0 104 -35 141.5t-106 37.5q-72 0 -143 -26zM204 23q100 0 197 72v147 q-76 23 -143 23q-85 0 -133.5 -36.5t-48.5 -98.5q0 -53 35 -80t93 -27zM317 669q37 0 71 27q5 3 9 1.5t4 -6.5l-3 -26q-41 -30 -84 -30q-34 0 -76 21t-70 21q-37 0 -72 -26q-5 -3 -9 -1.5t-4 6.5l3 25q39 30 85 30q34 0 75.5 -21t70.5 -21z" />
<glyph unicode="&#xe4;" horiz-adv-x="544" d="M117 441v-60q0 -10 -10 -10l-23 2v92q95 35 176 35q90 0 133 -46.5t43 -165.5v-261h71q7 0 7 -6l-1 -21h-112v55q-103 -65 -197 -65q-77 0 -121 37t-44 103q0 79 59.5 123t159.5 44q69 0 143 -23v14q0 104 -35 141.5t-106 37.5q-72 0 -143 -26zM204 23q100 0 197 72v147 q-76 23 -143 23q-85 0 -133.5 -36.5t-48.5 -98.5q0 -53 35 -80t93 -27zM113 688q0 16 11.5 28t28.5 12t29 -12t12 -28t-12 -27.5t-29 -11.5t-28.5 11.5t-11.5 27.5zM286 688q0 16 12 28t28 12q17 0 29 -11.5t12 -28.5q0 -16 -12 -27.5t-29 -11.5q-16 0 -28 11.5t-12 27.5z " />
<glyph unicode="&#xe5;" horiz-adv-x="544" d="M117 441v-60q0 -10 -10 -10l-23 2v92q95 35 176 35q90 0 133 -46.5t43 -165.5v-261h71q7 0 7 -6l-1 -21h-112v55q-103 -65 -197 -65q-77 0 -121 37t-44 103q0 79 59.5 123t159.5 44q69 0 143 -23v14q0 104 -35 141.5t-106 37.5q-72 0 -143 -26zM204 23q100 0 197 72v147 q-76 23 -143 23q-85 0 -133.5 -36.5t-48.5 -98.5q0 -53 35 -80t93 -27zM241 622q24 0 41.5 17t17.5 42t-17.5 42.5t-41.5 17.5t-41.5 -17.5t-17.5 -42.5t17.5 -42t41.5 -17zM241 595q-38 0 -63.5 25t-25.5 62t26 62.5t63 25.5t63 -25.5t26 -62.5t-25.5 -62t-63.5 -25z" />
<glyph unicode="&#xe6;" horiz-adv-x="862" d="M260 500q72 0 114.5 -30.5t52.5 -102.5q29 65 82 99t118 34q90 0 138 -56t48 -158q0 -24 -3 -51h-373q1 -108 56.5 -159.5t131.5 -51.5q43 0 77 13t81 46l20 -27q-87 -66 -178 -66q-119 0 -181 89q-73 -47 -125.5 -68t-114.5 -21q-77 0 -121 37t-44 103q0 79 59.5 123 t159.5 44q69 0 143 -23v14q0 104 -35 141.5t-106 37.5q-72 0 -143 -26v-60q0 -10 -10 -10l-23 2v92q95 35 176 35zM204 23q104 0 222 87q-25 57 -25 130v2q-76 23 -143 23q-85 0 -133.5 -36.5t-48.5 -98.5q0 -53 35 -80t93 -27zM627 467q-75 0 -128.5 -53t-60.5 -148h338 q1 8 1 25q0 85 -39 130.5t-111 45.5z" />
<glyph unicode="&#xe7;" horiz-adv-x="513" d="M423 383v64q-42 20 -113 20q-98 0 -157 -61.5t-59 -167.5q0 -110 57 -162t140 -52q68 0 159 47l14 -29q-92 -52 -173 -52q-3 0 -8 0.5t-7 0.5l-7 -63q25 10 53 10q40 0 65 -21.5t25 -62.5q0 -46 -30 -72.5t-78 -26.5q-47 0 -82 24q-2 12 -2 27q0 11 7 6q38 -26 76 -26 q31 0 52.5 17.5t21.5 49.5q0 26 -16.5 40t-43.5 14q-35 0 -63 -14l-19 15l11 86q-84 12 -135.5 72.5t-51.5 171.5q0 124 70 193t181 69q77 0 146 -31v-94q-13 -2 -23 -2t-10 10z" />
<glyph unicode="&#xe8;" horiz-adv-x="520" d="M468 235h-373q1 -108 56.5 -159.5t131.5 -51.5q43 0 77 13t81 46l20 -27q-87 -66 -178 -66q-93 0 -158.5 62t-65.5 188q0 121 65.5 190.5t160.5 69.5q90 0 138 -56t48 -158q0 -24 -3 -51zM285 467q-75 0 -128.5 -53t-60.5 -148h338q1 8 1 25q0 85 -39 130.5t-111 45.5z M162 724l247 -112q2 -9 2 -23q0 -8 -8 -5l-250 97q-4 20 -4 33q0 16 13 10z" />
<glyph unicode="&#xe9;" horiz-adv-x="520" d="M468 235h-373q1 -108 56.5 -159.5t131.5 -51.5q43 0 77 13t81 46l20 -27q-87 -66 -178 -66q-93 0 -158.5 62t-65.5 188q0 121 65.5 190.5t160.5 69.5q90 0 138 -56t48 -158q0 -24 -3 -51zM285 467q-75 0 -128.5 -53t-60.5 -148h338q1 8 1 25q0 85 -39 130.5t-111 45.5z M147 612l247 112q13 6 13 -10l-4 -33l-250 -97q-8 -3 -8 5z" />
<glyph unicode="&#xea;" horiz-adv-x="520" d="M468 235h-373q1 -108 56.5 -159.5t131.5 -51.5q43 0 77 13t81 46l20 -27q-87 -66 -178 -66q-93 0 -158.5 62t-65.5 188q0 121 65.5 190.5t160.5 69.5q90 0 138 -56t48 -158q0 -24 -3 -51zM285 467q-75 0 -128.5 -53t-60.5 -148h338q1 8 1 25q0 85 -39 130.5t-111 45.5z M130 629l154 120l154 -120q2 -8 2 -17q0 -10 -8 -5l-148 91l-148 -91q-8 -5 -8 5z" />
<glyph unicode="&#xeb;" horiz-adv-x="520" d="M468 235h-373q1 -108 56.5 -159.5t131.5 -51.5q43 0 77 13t81 46l20 -27q-87 -66 -178 -66q-93 0 -158.5 62t-65.5 188q0 121 65.5 190.5t160.5 69.5q90 0 138 -56t48 -158q0 -24 -3 -51zM285 467q-75 0 -128.5 -53t-60.5 -148h338q1 8 1 25q0 85 -39 130.5t-111 45.5z M156 688q0 16 12 28t28 12q17 0 29 -11.5t12 -28.5q0 -16 -12 -27.5t-29 -11.5t-28.5 11.5t-11.5 27.5zM329 688q0 16 12 28t28 12q17 0 29.5 -12t12.5 -28t-12.5 -27.5t-29.5 -11.5q-16 0 -28 11.5t-12 27.5z" />
<glyph unicode="&#xec;" horiz-adv-x="280" d="M21 709l180 -88q2 -9 2 -22q0 -8 -8 -5l-183 73q-4 18 -4 32q0 15 13 10zM158 27h70q7 0 7 -6l-1 -21h-188q-1 14 -1 21q0 6 7 6h70v436h-76q-1 13 -1 20t7 7h106v-463z" />
<glyph unicode="&#xed;" horiz-adv-x="280" d="M10 621l180 88q13 5 13 -10l-4 -32l-183 -73q-8 -3 -8 5zM158 27h70q7 0 7 -6l-1 -21h-188q-1 14 -1 21q0 6 7 6h70v436h-76q-1 13 -1 20t7 7h106v-463z" />
<glyph unicode="&#xee;" horiz-adv-x="280" d="M9 618l109 105l109 -105q2 -6 2 -16q0 -11 -8 -5l-103 73l-103 -73q-8 -6 -8 5zM158 27h70q7 0 7 -6l-1 -21h-188q-1 14 -1 21q0 6 7 6h70v436h-76q-1 13 -1 20t7 7h106v-463z" />
<glyph unicode="&#xef;" horiz-adv-x="280" d="M5 688q0 16 12 28t28 12q17 0 29 -11.5t12 -28.5q0 -16 -12 -27.5t-29 -11.5q-16 0 -28 11.5t-12 27.5zM149 688q0 16 12 28t28 12q17 0 29 -11.5t12 -28.5q0 -16 -12 -27.5t-29 -11.5q-16 0 -28 11.5t-12 27.5zM158 27h70q7 0 7 -6l-1 -21h-188q-1 14 -1 21q0 6 7 6h70 v436h-76q-1 13 -1 20t7 7h106v-463z" />
<glyph unicode="&#xf0;" horiz-adv-x="574" d="M250 586l110 62q-44 52 -91 88l19 25q57 -44 102 -96l101 58l17 -29l-97 -55q112 -148 112 -331q0 -160 -63 -239t-169 -79q-110 0 -171.5 69t-61.5 185q0 115 66.5 186t183.5 71q85 0 156 -43q-27 85 -84 163l-113 -64zM487 308q0 52 -12 108q-72 51 -167 51 q-101 0 -157.5 -61.5t-56.5 -160.5q0 -101 52.5 -161.5t144.5 -60.5q89 0 142 69t54 216z" />
<glyph unicode="&#xf1;" horiz-adv-x="689" d="M158 490v-107q84 63 144 90t118 27q156 0 156 -196v-277h71q7 0 7 -6l-1 -21h-188q-1 14 -1 21q0 6 6 6h71v273q0 92 -32.5 129.5t-89.5 37.5q-114 0 -261 -121v-319h70q7 0 7 -6l-1 -21h-188q-1 14 -1 21q0 6 7 6h70v436h-76q-1 13 -1 20t7 7h106zM436 669q38 0 72 27 q4 4 8 2t4 -7l-3 -26q-39 -30 -84 -30q-33 0 -75.5 21t-70.5 21q-38 0 -71 -26q-5 -3 -9 -1.5t-4 6.5l3 25q38 30 84 30q35 0 76 -21t70 -21z" />
<glyph unicode="&#xf2;" horiz-adv-x="599" d="M299 23q89 0 147 59.5t58 155.5q0 100 -55 164.5t-150 64.5q-94 0 -149.5 -65.5t-55.5 -163.5q0 -95 58 -155t147 -60zM299 -10q-108 0 -174 69.5t-66 178.5q0 114 64.5 188t175.5 74t176 -73.5t65 -188.5q0 -109 -66.5 -178.5t-174.5 -69.5zM176 724l247 -112 q2 -9 2 -23q0 -8 -8 -5l-249 97q-4 20 -4 33q0 17 12 10z" />
<glyph unicode="&#xf3;" horiz-adv-x="599" d="M299 23q89 0 147 59.5t58 155.5q0 100 -55 164.5t-150 64.5q-94 0 -149.5 -65.5t-55.5 -163.5q0 -95 58 -155t147 -60zM299 -10q-108 0 -174 69.5t-66 178.5q0 114 64.5 188t175.5 74t176 -73.5t65 -188.5q0 -109 -66.5 -178.5t-174.5 -69.5zM162 612l247 112 q12 7 12 -10l-4 -33l-249 -97q-8 -3 -8 5z" />
<glyph unicode="&#xf4;" horiz-adv-x="599" d="M299 23q89 0 147 59.5t58 155.5q0 100 -55 164.5t-150 64.5q-94 0 -149.5 -65.5t-55.5 -163.5q0 -95 58 -155t147 -60zM299 -10q-108 0 -174 69.5t-66 178.5q0 114 64.5 188t175.5 74t176 -73.5t65 -188.5q0 -109 -66.5 -178.5t-174.5 -69.5zM145 629l154 120l154 -120 q2 -8 2 -17q0 -10 -8 -5l-148 91l-148 -91q-8 -5 -8 5z" />
<glyph unicode="&#xf5;" horiz-adv-x="599" d="M299 23q89 0 147 59.5t58 155.5q0 100 -55 164.5t-150 64.5q-94 0 -149.5 -65.5t-55.5 -163.5q0 -95 58 -155t147 -60zM299 -10q-108 0 -174 69.5t-66 178.5q0 114 64.5 188t175.5 74t176 -73.5t65 -188.5q0 -109 -66.5 -178.5t-174.5 -69.5zM374 669q38 0 72 27 q5 3 9 1.5t4 -6.5l-3 -26q-41 -30 -85 -30q-33 0 -75.5 21t-70.5 21q-38 0 -71 -26q-5 -3 -9 -1.5t-4 6.5l3 25q39 30 84 30q35 0 76.5 -21t69.5 -21z" />
<glyph unicode="&#xf6;" horiz-adv-x="599" d="M299 23q89 0 147 59.5t58 155.5q0 100 -55 164.5t-150 64.5q-94 0 -149.5 -65.5t-55.5 -163.5q0 -95 58 -155t147 -60zM299 -10q-108 0 -174 69.5t-66 178.5q0 114 64.5 188t175.5 74t176 -73.5t65 -188.5q0 -109 -66.5 -178.5t-174.5 -69.5zM171 688q0 16 11.5 28 t28.5 12t29 -12t12 -28t-12 -27.5t-29 -11.5t-28.5 11.5t-11.5 27.5zM344 688q0 16 12 28t28 12q17 0 29 -11.5t12 -28.5q0 -16 -12 -27.5t-29 -11.5q-16 0 -28 11.5t-12 27.5z" />
<glyph unicode="&#xf7;" d="M71 295h494v-32h-494v32zM283 102q0 16 12 28t28 12q17 0 29.5 -12t12.5 -28t-12.5 -27.5t-29.5 -11.5q-16 0 -28 11.5t-12 27.5zM283 458q0 16 12 28t28 12q17 0 29.5 -12t12.5 -28t-12.5 -28t-29.5 -12q-16 0 -28 12t-12 28z" />
<glyph unicode="&#xf8;" horiz-adv-x="599" d="M299 -10q-87 0 -151 48l-51 -59l-24 23l50 58q-64 69 -64 178q0 114 64.5 188t175.5 74q95 0 161 -60l50 57l24 -21l-52 -59q58 -72 58 -179q0 -109 -66.5 -178.5t-174.5 -69.5zM94 238q0 -92 54 -151l289 328q-54 52 -138 52q-94 0 -149.5 -65.5t-55.5 -163.5zM299 23 q89 0 147 59.5t58 155.5q0 90 -45 152l-288 -325q53 -42 128 -42z" />
<glyph unicode="&#xf9;" horiz-adv-x="654" d="M501 0v127q-34 -54 -90.5 -95.5t-123.5 -41.5q-83 0 -126 48t-43 159v266h-77q-1 13 -1 20t7 7h106v-270q0 -108 32.5 -152t97.5 -44q117 0 218 155v284h-77q-1 13 -1 20t7 7h106v-463h71q6 0 6 -6l-1 -21h-111zM190 724l247 -112q2 -9 2 -23q0 -8 -8 -5l-250 97 q-4 20 -4 33q0 16 13 10z" />
<glyph unicode="&#xfa;" horiz-adv-x="654" d="M501 0v127q-34 -54 -90.5 -95.5t-123.5 -41.5q-83 0 -126 48t-43 159v266h-77q-1 13 -1 20t7 7h106v-270q0 -108 32.5 -152t97.5 -44q117 0 218 155v284h-77q-1 13 -1 20t7 7h106v-463h71q6 0 6 -6l-1 -21h-111zM175 612l247 112q13 6 13 -10l-4 -33l-250 -97q-8 -3 -8 5 z" />
<glyph unicode="&#xfb;" horiz-adv-x="654" d="M501 0v127q-34 -54 -90.5 -95.5t-123.5 -41.5q-83 0 -126 48t-43 159v266h-77q-1 13 -1 20t7 7h106v-270q0 -108 32.5 -152t97.5 -44q117 0 218 155v284h-77q-1 13 -1 20t7 7h106v-463h71q6 0 6 -6l-1 -21h-111zM159 629l154 120l153 -120q2 -8 2 -17q0 -10 -7 -5 l-148 91l-148 -91q-8 -5 -8 5z" />
<glyph unicode="&#xfc;" horiz-adv-x="654" d="M501 0v127q-34 -54 -90.5 -95.5t-123.5 -41.5q-83 0 -126 48t-43 159v266h-77q-1 13 -1 20t7 7h106v-270q0 -108 32.5 -152t97.5 -44q117 0 218 155v284h-77q-1 13 -1 20t7 7h106v-463h71q6 0 6 -6l-1 -21h-111zM184 688q0 16 12 28t28 12q17 0 29.5 -12t12.5 -28 t-12.5 -27.5t-29.5 -11.5q-16 0 -28 11.5t-12 27.5zM358 688q0 16 12 28t28 12q17 0 29 -12t12 -28t-12 -27.5t-29 -11.5t-28.5 11.5t-11.5 27.5z" />
<glyph unicode="&#xfd;" horiz-adv-x="612" d="M106 -229v84q13 2 22 2q10 0 10 -10v-54q21 -7 40 -7q46 0 71 62l51 128l-220 487h-59q-1 13 -1 20t6 7h162q7 0 7 -7l-1 -20h-72l195 -448l179 448h-80v20q0 7 6 7h164q7 0 7 -7l-1 -20h-60l-250 -616q-37 -92 -102 -92q-32 0 -74 16zM169 595l247 113q12 5 12 -10 l-4 -34l-250 -97q-7 -3 -7 5z" />
<glyph unicode="&#xfe;" horiz-adv-x="594" d="M121 -218h99q7 0 7 -6l-1 -21h-217q-1 14 -1 21q0 6 7 6h70v945h-86q-1 14 -1 21t7 7h116v-372q122 117 234 117q83 0 139 -56t56 -173q0 -141 -76 -211t-191 -70q-85 0 -162 34v-242zM353 467q-111 0 -232 -126v-282q72 -36 162 -36q99 0 165 61t66 187q0 102 -46.5 149 t-114.5 47z" />
<glyph unicode="&#xff;" horiz-adv-x="612" d="M106 -229v84q13 2 22 2q10 0 10 -10v-54q21 -7 40 -7q46 0 71 62l51 128l-220 487h-59q-1 13 -1 20t6 7h162q7 0 7 -7l-1 -20h-72l195 -448l179 448h-80v20q0 7 6 7h164q7 0 7 -7l-1 -20h-60l-250 -616q-37 -92 -102 -92q-32 0 -74 16zM177 671q0 17 12 28.5t29 11.5 t29 -11.5t12 -28.5q0 -16 -12 -27.5t-29 -11.5t-29 11.5t-12 27.5zM351 671q0 17 11.5 28.5t28.5 11.5t29 -11.5t12 -28.5q0 -16 -12 -27.5t-29 -11.5q-16 0 -28 11.5t-12 27.5z" />
<glyph unicode="&#x152;" horiz-adv-x="1209" d="M436 720h707v-119q-13 -2 -23 -2t-10 10v80h-520q83 -38 133 -115.5t59 -180.5h230v-31h-229q0 -2 0.5 -6t0.5 -6q0 -112 -51 -196t-140 -123h530v91q0 9 10 9l22 -2v-129h-719q-157 0 -252.5 96.5t-95.5 253.5q0 163 94.5 266.5t253.5 103.5zM436 32q137 0 224.5 86.5 t87.5 231.5q0 148 -84 243t-228 95t-228 -95t-84 -243q0 -145 87.5 -231.5t224.5 -86.5z" />
<glyph unicode="&#x153;" horiz-adv-x="965" d="M913 235h-373q1 -108 56.5 -159.5t131.5 -51.5q43 0 77 13t81 46l20 -27q-87 -66 -178 -66q-69 0 -126 35t-82 107q-27 -66 -84.5 -104t-136.5 -38q-108 0 -174 69.5t-66 178.5q0 114 64.5 188t175.5 74q80 0 138 -41t83 -110q26 72 82.5 111.5t127.5 39.5q90 0 138 -56 t48 -158q0 -24 -3 -51zM299 23q89 0 147 58t58 157q0 100 -55 164.5t-150 64.5q-94 0 -149.5 -65.5t-55.5 -163.5q0 -95 58 -155t147 -60zM730 467q-75 0 -128.5 -53t-60.5 -148h338q1 8 1 25q0 85 -39 130.5t-111 45.5z" />
<glyph unicode="&#x178;" horiz-adv-x="715" d="M492 0h-268q-1 14 -1 21q0 6 7 6h110v306l-241 360h-78q-1 14 -1 20q0 7 6 7h199q7 0 7 -7l-1 -20h-92l220 -328l219 328h-93q-1 14 -1 20q0 7 7 7h198q7 0 7 -7l-1 -20h-78l-241 -360v-306h110q7 0 7 -6zM230 863q0 17 12 29t28 12q17 0 29.5 -12t12.5 -29 q0 -16 -12.5 -27.5t-29.5 -11.5q-16 0 -28 11.5t-12 27.5zM404 863q0 17 11.5 29t28.5 12t29 -12t12 -29q0 -16 -12 -27.5t-29 -11.5q-16 0 -28 11.5t-12 27.5z" />
<glyph unicode="&#x2c6;" horiz-adv-x="370" d="M31 629l154 120l154 -120q2 -8 2 -17q0 -10 -8 -5l-148 91l-148 -91q-8 -5 -8 5z" />
<glyph unicode="&#x2dc;" horiz-adv-x="416" d="M279 669q38 0 72 27q5 3 9 1.5t4 -6.5l-3 -26q-41 -30 -85 -30q-33 0 -75.5 21t-70.5 21q-38 0 -71 -26q-5 -3 -9 -1.5t-4 6.5l3 25q37 30 84 30q35 0 76.5 -21t69.5 -21z" />
<glyph unicode="&#x2000;" horiz-adv-x="473" />
<glyph unicode="&#x2001;" horiz-adv-x="946" />
<glyph unicode="&#x2002;" horiz-adv-x="473" />
<glyph unicode="&#x2003;" horiz-adv-x="946" />
<glyph unicode="&#x2004;" horiz-adv-x="315" />
<glyph unicode="&#x2005;" horiz-adv-x="236" />
<glyph unicode="&#x2006;" horiz-adv-x="157" />
<glyph unicode="&#x2007;" horiz-adv-x="157" />
<glyph unicode="&#x2008;" horiz-adv-x="118" />
<glyph unicode="&#x2009;" horiz-adv-x="189" />
<glyph unicode="&#x200a;" horiz-adv-x="52" />
<glyph unicode="&#x2010;" horiz-adv-x="411" d="M49 324h313v-34h-313v34z" />
<glyph unicode="&#x2011;" horiz-adv-x="411" d="M49 324h313v-34h-313v34z" />
<glyph unicode="&#x2013;" horiz-adv-x="509" d="M0 309h509v-31h-509v31z" />
<glyph unicode="&#x2014;" horiz-adv-x="1017" d="M0 309h1017v-31h-1017v31z" />
<glyph unicode="&#x2018;" horiz-adv-x="190" d="M114 761q5 5 11 2.5t11 -8.5l5 -6q-21 -34 -27.5 -58.5t-6.5 -71.5v-32h-48v47q7 40 17 65.5t38 61.5z" />
<glyph unicode="&#x2019;" horiz-adv-x="190" d="M131 755v-47q-7 -40 -17 -65.5t-38 -62.5q-5 -5 -11 -2.5t-11 8.5l-5 7q21 34 27.5 58.5t6.5 70.5v33h48z" />
<glyph unicode="&#x201a;" horiz-adv-x="171" d="M126 0v-47q-6 -39 -16 -64.5t-38 -62.5q-5 -5 -11.5 -2.5t-11.5 8.5l-5 6q21 34 27.5 58.5t6.5 71.5v32h48z" />
<glyph unicode="&#x201c;" horiz-adv-x="285" d="M228 761q5 5 11.5 2.5t11.5 -8.5l5 -6q-22 -34 -28.5 -58.5t-6.5 -71.5v-32h-48v47q7 39 17 64.5t38 62.5zM114 761q5 5 11 2.5t11 -8.5l5 -6q-21 -34 -27.5 -58.5t-6.5 -71.5v-32h-48v47q7 40 17 65.5t38 61.5z" />
<glyph unicode="&#x201d;" horiz-adv-x="285" d="M67 580q-10 -13 -28 13q22 34 28 58t6 71v33h49v-47q-7 -39 -17 -65t-38 -63zM181 580q-5 -5 -11 -2.5t-11 8.5l-5 7q21 34 27.5 58.5t6.5 70.5v33h48v-47q-7 -39 -17 -65t-38 -63z" />
<glyph unicode="&#x201e;" horiz-adv-x="285" d="M126 0v-47q-6 -39 -16 -64.5t-38 -62.5q-5 -5 -11.5 -2.5t-11.5 8.5l-5 6q21 34 27.5 58.5t6.5 71.5v32h48zM241 0v-47q-7 -39 -17 -64.5t-38 -62.5q-5 -5 -11 -2.5t-11 8.5l-5 6q21 34 27.5 58.5t6.5 71.5v32h48z" />
<glyph unicode="&#x2022;" horiz-adv-x="240" d="M60 303q0 29 20.5 49.5t48.5 20.5q31 0 52 -20.5t21 -49.5q0 -28 -21 -48t-52 -20q-28 0 -48.5 20t-20.5 48z" />
<glyph unicode="&#x2026;" horiz-adv-x="1017" d="M127 29q0 17 12 29t29 12t29 -12t12 -29q0 -16 -12 -27.5t-29 -11.5t-29 11.5t-12 27.5zM468 29q0 17 12 29t29 12t29 -12t12 -29q0 -16 -12 -27.5t-29 -11.5t-29 11.5t-12 27.5zM809 29q0 17 12 29t29 12t29 -12t12 -29q0 -16 -12 -27.5t-29 -11.5t-29 11.5t-12 27.5z " />
<glyph unicode="&#x202f;" horiz-adv-x="189" />
<glyph unicode="&#x2039;" horiz-adv-x="304" d="M219 45l-190 203l190 203q19 1 29 1q4 0 5.5 -2.5t-0.5 -5.5l-172 -196l172 -196q2 -3 0.5 -5.5t-5.5 -2.5z" />
<glyph unicode="&#x203a;" horiz-adv-x="304" d="M274 248l-189 -203q-19 -1 -29 -1q-4 0 -5.5 2.5t0.5 5.5l171 196l-171 196q-2 3 -0.5 5.5t5.5 2.5l29 -1z" />
<glyph unicode="&#x205f;" horiz-adv-x="236" />
<glyph unicode="&#x20ac;" d="M35 434h64q20 141 108 218t214 77q53 0 88 -7t89 -25v-102q-13 -2 -23 -2t-10 10v68q-62 26 -144 26q-110 0 -187.5 -68.5t-97.5 -194.5h281l-5 -32h-280q-2 -16 -2 -48q0 -37 5 -77h256l-6 -32h-244q25 -109 98.5 -165.5t175.5 -56.5q89 0 174 39l13 -31 q-62 -24 -99.5 -32.5t-88.5 -8.5q-119 0 -201.5 65t-108.5 190h-69v32h64q-5 30 -5 77q0 32 2 48h-61v32z" />
<glyph unicode="&#x2122;" horiz-adv-x="1059" d="M262 724v-289h65q7 0 7 -7l-1 -20h-178q-1 13 -1 20t7 7h65v289h-135v-56q0 -9 -10 -9l-22 2v94h370v-94q-13 -2 -22 -2q-10 0 -10 9v56h-135zM746 408h-31l-155 306v-279h55q7 0 7 -7l-1 -20h-158q-1 13 -1 20t6 7h56v292h-61q-1 14 -1 21t6 7h110l153 -305l155 305h108 q7 0 7 -7l-1 -21h-62v-292h56q7 0 7 -7l-1 -20h-159q-1 13 -1 20t7 7h56v279z" />
</font>
</defs>
</svg>
